<svg width="25" height="34" viewBox="0 0 25 34" fill="none" xmlns="http://www.w3.org/2000/svg">
<path d="M20.8806 18.0811C20.8457 13.7858 24.0592 11.696 24.2062 11.5987C22.3862 8.66274 19.5654 8.26159 18.5742 8.2296C16.205 7.95373 13.9069 9.79822 12.7 9.79822C11.469 9.79822 9.61051 8.25626 7.60748 8.30157C5.02992 8.34555 2.61868 9.9968 1.29607 12.561C-1.43315 17.7893 0.6023 25.4724 3.2173 29.6985C4.52525 31.7696 6.05382 34.0792 8.05434 33.9979C10.0116 33.91 10.7427 32.6185 13.1047 32.6185C15.4449 32.6185 16.1315 33.9979 18.1718 33.9459C20.2725 33.91 21.5949 31.8669 22.8573 29.7785C24.3689 27.4076 24.9758 25.07 25 24.95C24.9517 24.9314 20.9216 23.2281 20.8806 18.0811ZM17.0263 5.44953C18.0789 3.99286 18.7993 2.01109 18.5994 0C17.0756 0.0746328 15.1702 1.16614 14.0729 2.59083C13.1021 3.84626 12.2349 5.90399 12.4589 7.83911C14.1705 7.98038 15.9278 6.88355 17.0263 5.44953Z" fill="white"/>
</svg>
