<svg width="35" height="35" viewBox="0 0 35 35" fill="none" xmlns="http://www.w3.org/2000/svg">
<g clip-path="url(#clip0)">
<path d="M0 11.5714C0 16.3577 3.40809 20.3698 5.97157 22.9714C6.23913 23.243 6.59241 23.3789 6.94569 23.3789C7.29229 23.3789 7.63863 23.2481 7.90512 22.9856C8.44292 22.4555 8.44933 21.5898 7.91927 21.0523C4.38194 17.4623 2.73438 14.4497 2.73438 11.5714C2.73438 7.33421 5.48931 4.375 9.43359 4.375C11.9984 4.375 13.8922 5.33978 15.0626 7.24289C15.9913 8.75347 16.136 10.3257 16.1374 10.3415C16.1921 11.0537 16.786 11.6005 17.5003 11.6005C18.2146 11.6005 18.8084 11.0475 18.8632 10.3354C18.864 10.3257 19.0087 8.75347 19.9377 7.24289C21.1078 5.33978 23.0016 4.375 25.5664 4.375C29.5107 4.375 32.2656 7.33421 32.2656 11.5714C32.2656 13.4823 31.5406 15.4471 30.052 17.5684H26.8068L24.5386 12.9341C24.3052 12.4574 23.8152 12.157 23.2862 12.1682C22.7554 12.1776 22.2782 12.4935 22.0619 12.9781L19.2685 19.2394L17.4896 15.7211C17.2586 15.2644 16.7921 14.975 16.2805 14.9707H16.2693C15.7619 14.9707 15.2962 15.2516 15.0596 15.7013L14.077 17.5684H11.0059C10.2507 17.5684 9.63867 18.1804 9.63867 18.9355C9.63867 19.6907 10.2507 20.3027 11.0059 20.3027H14.9023C15.41 20.3027 15.8757 20.0216 16.1123 19.5724L16.2452 19.3195L18.1256 23.0387C18.3585 23.4996 18.8309 23.7891 19.3454 23.7891C19.3567 23.7891 19.3676 23.7888 19.3788 23.7885C19.9062 23.776 20.3791 23.4606 20.5943 22.9789L23.368 16.7622L24.7258 19.5366C24.9552 20.0055 25.4318 20.3027 25.9539 20.3027H33.6328C34.388 20.3027 35 19.6907 35 18.9355C35 18.1804 34.388 17.5684 33.6328 17.5684H33.2862C34.4366 15.5336 35 13.5565 35 11.5714C35 8.66776 34.0467 6.16756 32.2429 4.34109C30.5235 2.59953 28.1523 1.64062 25.5664 1.64062C21.0453 1.64062 18.7078 3.96698 17.543 5.91843C17.5286 5.94246 17.5142 5.96676 17.5 5.99106C17.4858 5.96676 17.4714 5.94246 17.457 5.91843C16.2922 3.96698 13.9547 1.64062 9.43359 1.64062C6.84769 1.64062 4.47647 2.59953 2.75707 4.34109C0.953293 6.16756 0 8.66776 0 11.5714ZM12.7279 25.4796L12.7592 25.5071C14.497 27.0316 16.1582 28.4904 17.5 29.9192C18.8418 28.4901 20.5033 27.0316 22.2411 25.5069C23.1666 24.6951 24.1236 23.8556 25.0513 23.0027C25.6073 22.4916 26.4722 22.5279 26.983 23.0838C27.4941 23.6395 27.4578 24.5044 26.9018 25.0155C25.9507 25.89 24.9816 26.7403 24.0443 27.5624C21.9028 29.4413 19.8798 31.2159 18.5649 32.8493C18.5636 32.8512 18.562 32.8528 18.5606 32.8547C18.5545 32.8622 18.5481 32.8694 18.5417 32.8766C18.5171 32.9057 18.4917 32.9337 18.465 32.9604C18.4634 32.962 18.4621 32.9636 18.4608 32.965C18.4285 32.997 18.3948 33.0267 18.3601 33.0547C18.359 33.0555 18.3582 33.0563 18.3572 33.0571C18.3566 33.0579 18.3558 33.0582 18.3553 33.0587C18.3251 33.083 18.2941 33.1057 18.2621 33.1271C18.2602 33.1284 18.2581 33.1297 18.2562 33.1311C18.2261 33.1511 18.1951 33.1701 18.1636 33.1874C18.1614 33.1887 18.1593 33.1901 18.1569 33.1911C18.1264 33.208 18.0955 33.2232 18.0637 33.2376C18.056 33.2411 18.0479 33.2443 18.0402 33.2478C18.0146 33.2587 17.9887 33.2691 17.9625 33.2785C17.9556 33.2809 17.9486 33.2838 17.9419 33.2862C17.9126 33.2961 17.8829 33.3046 17.853 33.3126C17.8413 33.3158 17.8298 33.3185 17.818 33.3215C17.7937 33.3273 17.7692 33.3324 17.7443 33.3369C17.7347 33.3385 17.7251 33.3404 17.7155 33.342C17.6867 33.3466 17.6575 33.35 17.6287 33.353C17.6183 33.3538 17.6081 33.3546 17.5977 33.3554C17.5665 33.3578 17.5352 33.3591 17.504 33.3591C17.5029 33.3591 17.5016 33.3594 17.5005 33.3594H17.4997H17.4989C17.4979 33.3594 17.4968 33.3591 17.4957 33.3591C17.4642 33.3591 17.4332 33.3575 17.402 33.3554C17.3916 33.3546 17.3812 33.3538 17.371 33.353C17.3419 33.35 17.3133 33.3468 17.2845 33.342C17.2746 33.3407 17.2647 33.3385 17.2546 33.3369C17.2303 33.3324 17.206 33.3273 17.1817 33.3215C17.17 33.3188 17.1582 33.3158 17.1465 33.3126C17.1168 33.3046 17.0872 33.2961 17.0581 33.2862C17.0509 33.2838 17.0436 33.2809 17.0364 33.2782C17.0108 33.2691 16.9852 33.259 16.9601 33.248C16.9518 33.2446 16.9435 33.2411 16.9355 33.2373C16.9043 33.2232 16.8733 33.208 16.8431 33.1914C16.8404 33.1901 16.8378 33.1885 16.8351 33.1869C16.8041 33.1698 16.7739 33.1511 16.744 33.1313C16.7416 33.13 16.7392 33.1284 16.7371 33.1268C16.7053 33.1057 16.6746 33.083 16.6444 33.0587C16.6439 33.0582 16.6431 33.0579 16.6423 33.0571C16.6412 33.0563 16.6404 33.0555 16.6394 33.0544C16.6049 33.0264 16.5713 32.9967 16.539 32.965C16.5374 32.9636 16.536 32.9618 16.5344 32.9602C16.508 32.9337 16.4824 32.9057 16.4578 32.8766C16.4516 32.8694 16.4452 32.8622 16.4391 32.8547C16.4378 32.8528 16.4362 32.8512 16.4346 32.8493C15.12 31.2159 13.0972 29.4413 10.9557 27.5627L10.9241 27.5349C10.3567 27.0372 10.3001 26.1734 10.7981 25.6057C11.2964 25.0382 12.1602 24.9816 12.7279 25.4796Z" fill="#333333"/>
</g>
<defs>
<clipPath id="clip0">
<rect width="35" height="35" fill="white" transform="matrix(-1 0 0 1 35 0)"/>
</clipPath>
</defs>
</svg>
