<svg width="32" height="32" viewBox="0 0 32 32" fill="none" xmlns="http://www.w3.org/2000/svg">
<path d="M10.8576 22.2472H10.3992H6.99023V23.9582H20.9898V22.3627L18.6738 22.2466H10.8576V22.2472ZM12.9047 23.2975H8.08125V22.9779H12.9047V23.2975Z" fill="black"/>
<path d="M0 29.204H6.24697V18.6963H0V29.204ZM3.20272 28.7505C3.00381 28.7505 2.84244 28.5885 2.84244 28.3902C2.84244 28.1899 3.00444 28.0292 3.20272 28.0292C3.40139 28.0292 3.56263 28.1899 3.56263 28.3902C3.56326 28.5885 3.40139 28.7505 3.20272 28.7505ZM3.263 19.1312C3.34588 19.1312 3.41319 19.1973 3.41319 19.281C3.41319 19.3645 3.34526 19.432 3.263 19.432C3.18012 19.432 3.11218 19.3639 3.11218 19.281C3.11156 19.1973 3.17937 19.1312 3.263 19.1312ZM2.36387 19.6355H4.15962V19.7801H2.36387V19.6355ZM1.00236 20.2968L5.24449 20.2941V27.5127C3.6219 27.5222 1.80681 27.5286 1.00236 27.5222V20.2968Z" fill="black"/>
<path d="M11.1951 4.26501H28.3292V9.98167H29.7985V2.79639H9.72656V10.2706H11.1951V4.26501Z" fill="black"/>
<path d="M19.5625 17.1672H22.2816V16.4837H21.4379V15.6563H22.2816V13.7627H19.5625V17.1672Z" fill="black"/>
<path d="M23.0527 10.6519V24.0737H31.9994V10.6519H23.0527ZM27.7154 23.3997C27.4769 23.3997 27.2843 23.2058 27.2843 22.9685C27.2843 22.7301 27.4768 22.5374 27.7154 22.5374C27.954 22.5374 28.1465 22.73 28.1465 22.9685C28.1465 23.2058 27.9539 23.3997 27.7154 23.3997ZM30.706 21.8476H24.3464V11.9447H30.7073L30.706 21.8476Z" fill="black"/>
<path d="M3.78978 12.3484H17.4699V20.5483H6.99037V21.7547H18.6765V11.1431H2.58398V17.9887H3.78978V12.3484Z" fill="black"/>
</svg>
