<svg width="32" height="32" viewBox="0 0 32 32" fill="none" xmlns="http://www.w3.org/2000/svg">
<path d="M5.5 23.5C3.8455 23.5 2.5 24.8455 2.5 26.5C2.5 28.1545 3.8455 29.5 5.5 29.5C7.1545 29.5 8.5 28.1545 8.5 26.5C8.5 24.8455 7.1545 23.5 5.5 23.5ZM5.5 28.5C4.397 28.5 3.5 27.603 3.5 26.5C3.5 25.397 4.397 24.5 5.5 24.5C6.603 24.5 7.5 25.397 7.5 26.5C7.5 27.603 6.603 28.5 5.5 28.5Z" fill="black"/>
<path d="M26.5 8.5C28.1545 8.5 29.5 7.1545 29.5 5.5C29.5 3.8455 28.1545 2.5 26.5 2.5C24.8455 2.5 23.5 3.8455 23.5 5.5C23.5 7.1545 24.8455 8.5 26.5 8.5ZM26.5 3.5C27.603 3.5 28.5 4.397 28.5 5.5C28.5 6.603 27.603 7.5 26.5 7.5C25.397 7.5 24.5 6.603 24.5 5.5C24.5 4.397 25.397 3.5 26.5 3.5Z" fill="black"/>
<path d="M31.5 5.5C31.5 2.743 29.257 0.5 26.5 0.5C25.056 0.5 23.7575 1.119 22.8435 2.101C20.725 1.0565 18.3695 0.5 16 0.5C7.453 0.5 0.5 7.4535 0.5 16C0.5 18.3695 1.0565 20.7245 2.101 22.8435C1.119 23.757 0.5 25.056 0.5 26.5C0.5 29.257 2.743 31.5 5.5 31.5C6.944 31.5 8.2425 30.881 9.1565 29.899C11.275 30.9435 13.6305 31.5 16 31.5C24.547 31.5 31.5 24.5465 31.5 16C31.5 13.6305 30.9435 11.2755 29.899 9.1565C30.881 8.243 31.5 6.944 31.5 5.5ZM26.5 1.5C28.7055 1.5 30.5 3.2945 30.5 5.5C30.5 7.7055 28.7055 9.5 26.5 9.5C24.2945 9.5 22.5 7.7055 22.5 5.5C22.5 3.2945 24.2945 1.5 26.5 1.5ZM22.1765 8H21.1005C20.336 4.9145 19.1385 2.6305 17.7155 1.6035C19.28 1.791 20.8085 2.237 22.2285 2.9135C21.7695 3.6695 21.5 4.5525 21.5 5.5C21.5 6.411 21.749 7.2635 22.1765 8ZM23.9495 16.5H30.4875C30.4075 18.8505 29.767 21.0605 28.6935 23H21.3275C21.614 21.6115 21.8175 20.0855 21.9215 18.4575C22.9355 18.2835 23.745 17.5035 23.9495 16.5ZM16 30C14.476 30 12.885 27.758 11.918 24H20.069C19.143 27.612 17.628 30 16 30ZM11.6825 23C11.2835 21.1265 11.035 18.9345 11.0045 16.5H19.05C19.244 17.4505 19.9815 18.201 20.9205 18.4255C20.814 20.0625 20.6005 21.6055 20.3025 23H11.6825ZM1.5125 15.5C1.5925 13.1495 2.233 10.9395 3.3065 9H8.55C8.739 9.9265 9.4455 10.6585 10.35 10.9035C10.143 12.3775 10.0285 13.918 10.0085 15.5H1.5125ZM12.5 8.5C12.5 9.327 11.827 10 11 10C10.173 10 9.5 9.327 9.5 8.5C9.5 7.673 10.173 7 11 7C11.827 7 12.5 7.673 12.5 8.5ZM21.5 17.5C20.673 17.5 20 16.827 20 16C20 15.173 20.673 14.5 21.5 14.5C22.327 14.5 23 15.173 23 16C23 16.827 22.327 17.5 21.5 17.5ZM19.0505 15.5H11.009C11.0295 13.937 11.1435 12.416 11.3515 10.9645C12.398 10.8155 13.2405 10.026 13.4495 9H20.303C20.601 10.3945 20.8145 11.9375 20.921 13.5745C19.982 13.799 19.2445 14.5495 19.0505 15.5ZM13.4495 8C13.317 7.349 12.9305 6.789 12.3985 6.429C13.3545 3.6485 14.6865 2 16 2C17.6275 2 19.142 4.388 20.0685 8H13.4495ZM14.245 1.61C13.1675 2.3875 12.218 3.897 11.473 6.0475C11.319 6.0185 11.162 6 11 6C9.793 6 8.783 6.8605 8.5505 8H3.9145C6.2075 4.548 9.938 2.1325 14.245 1.61ZM1.515 16.5H10.005C10.0345 18.856 10.271 21.058 10.6725 23H9.065C8.157 22.0755 6.895 21.5 5.5005 21.5C4.553 21.5 3.669 21.77 2.9135 22.2295C2.0505 20.4265 1.582 18.504 1.515 16.5ZM5.5 30.5C3.2945 30.5 1.5 28.7055 1.5 26.5C1.5 24.2945 3.2945 22.5 5.5 22.5C7.7055 22.5 9.5 24.2945 9.5 26.5C9.5 28.7055 7.7055 30.5 5.5 30.5ZM9.8235 24H10.899C11.66 27.0695 12.8535 29.365 14.283 30.3965C12.719 30.209 11.1905 29.763 9.7705 29.0865C10.2305 28.3305 10.5 27.4475 10.5 26.5C10.5 25.589 10.251 24.7365 9.8235 24ZM17.7185 30.3945C19.1405 29.367 20.337 27.084 21.101 24H28.0855C25.786 27.462 22.041 29.8815 17.7185 30.3945ZM30.485 15.5H23.9495C23.745 14.4965 22.9355 13.716 21.921 13.5425C21.817 11.9145 21.614 10.3885 21.327 9H22.935C23.843 9.9245 25.105 10.5 26.4995 10.5C27.447 10.5 28.331 10.23 29.0865 9.7705C29.9495 11.5735 30.418 13.496 30.485 15.5Z" fill="black"/>
<path d="M28.9905 12.3151C28.8975 11.9866 28.79 11.6546 28.669 11.3271L27.7305 11.6726C27.842 11.9751 27.942 12.2826 28.0275 12.5861L28.9905 12.3151Z" fill="black"/>
<path d="M28.4069 14.4697L29.3999 14.3492C29.3579 14.0062 29.3024 13.6617 29.2344 13.3237L28.2539 13.5217C28.3174 13.8337 28.3689 14.1532 28.4069 14.4697Z" fill="black"/>
<path d="M2.53906 14.9622L3.53606 15.0377C3.56056 14.7187 3.59706 14.3977 3.64556 14.0827L2.65706 13.9307C2.60506 14.2712 2.56506 14.6182 2.53906 14.9622Z" fill="black"/>
<path d="M2.85547 12.9117L3.82897 13.1392C3.90097 12.8317 3.98647 12.5202 4.08397 12.2122L3.13097 11.9102C3.02547 12.2427 2.93297 12.5797 2.85547 12.9117Z" fill="black"/>
<path d="M3.48438 10.9328L4.41138 11.3083C4.53038 11.0143 4.66338 10.7193 4.80638 10.4318L3.91088 9.98633C3.75638 10.2973 3.61288 10.6153 3.48438 10.9328Z" fill="black"/>
<path d="M22.8027 26.4896L23.3477 27.3281C23.6367 27.1406 23.9217 26.9391 24.1957 26.7296L23.5882 25.9351C23.3347 26.1286 23.0707 26.3156 22.8027 26.4896Z" fill="black"/>
<path d="M24.3281 25.3218L24.9941 26.0673C25.2496 25.8393 25.5006 25.5968 25.7411 25.3468L25.0196 24.6538C24.7971 24.8853 24.5641 25.1103 24.3281 25.3218Z" fill="black"/>
<path d="M21.1152 27.4089L21.5252 28.3209C21.8392 28.1794 22.1522 28.0244 22.4547 27.8594L21.9762 26.9814C21.6962 27.1344 21.4067 27.2784 21.1152 27.4089Z" fill="black"/>
<path d="M14 17.5H15V18.5H14V17.5Z" fill="black"/>
<path d="M16 17.5H17V18.5H16V17.5Z" fill="black"/>
<path d="M12 17.5H13V18.5H12V17.5Z" fill="black"/>
<path d="M18.5 10H19.5V11H18.5V10Z" fill="black"/>
<path d="M16.5 10H17.5V11H16.5V10Z" fill="black"/>
<path d="M14.5 10H15.5V11H14.5V10Z" fill="black"/>
</svg>
