<svg width="32" height="32" viewBox="0 0 32 32" fill="none" xmlns="http://www.w3.org/2000/svg">
<g clip-path="url(#clip0)">
<path d="M32.0004 26.723V22.8248L30.5072 22.4432C30.4969 22.418 30.4866 22.3928 30.4757 22.3679L31.2618 21.043L28.5052 18.2865L27.1804 19.0725C27.1549 19.0617 27.1297 19.0514 27.105 19.041L26.7235 17.5483H22.8253L22.4437 19.0415C22.4185 19.0519 22.3933 19.0622 22.3684 19.073L21.0435 18.287L18.287 21.0436L19.073 22.3684C19.0622 22.3939 19.0519 22.4191 19.0415 22.4438L17.5488 22.8253V26.7235L19.042 27.105C19.0524 27.1302 19.0627 27.1554 19.0735 27.1804L18.2875 28.5052L21.044 31.2618L22.3689 30.4758C22.3943 30.4866 22.4195 30.4969 22.4442 30.5073L22.8258 32H26.724L27.1055 30.5068C27.1307 30.4964 27.1559 30.4861 27.1809 30.4753L28.5057 31.2613L31.2623 28.5047L30.4762 27.1799C30.4871 27.1544 30.4974 27.1292 30.5077 27.1045L32.0004 26.723ZM29.9654 28.3422L28.3427 29.9649L27.2396 29.3104L26.9914 29.4291C26.8313 29.505 26.6678 29.5735 26.4994 29.633L26.2394 29.7253L25.9226 30.9677H23.6272L23.3104 29.7253L23.0503 29.633C22.882 29.574 22.7179 29.5055 22.5584 29.4291L22.3102 29.3104L21.2071 29.9649L19.5844 28.3422L20.2388 27.2391L20.1201 26.9909C20.0443 26.8308 19.9757 26.6673 19.9163 26.4989L19.824 26.2389L18.5811 25.9221V23.6267L19.8235 23.3099L19.9158 23.0499C19.9747 22.8815 20.0433 22.7174 20.1196 22.5579L20.2383 22.3097L19.5839 21.2066L21.2066 19.5839L22.3097 20.2384L22.5579 20.1197C22.7179 20.0438 22.8815 19.9753 23.0498 19.9158L23.3099 19.8235L23.6267 18.5806H25.9221L26.2388 19.823L26.4989 19.9153C26.6673 19.9742 26.8313 20.0428 26.9909 20.1192L27.2391 20.2379L28.3422 19.5834L29.9649 21.2061L29.3104 22.3092L29.4291 22.5574C29.505 22.7174 29.5735 22.881 29.633 23.0493L29.7252 23.3094L30.9682 23.6262V25.9216L29.7257 26.2384L29.6335 26.4984C29.5745 26.6668 29.506 26.8308 29.4296 26.9904L29.3109 27.2386L29.9654 28.3422Z" fill="black"/>
<path d="M24.7736 20.645C22.4968 20.645 20.6445 22.4973 20.6445 24.7741C20.6445 27.0508 22.4968 28.9031 24.7736 28.9031C27.0503 28.9031 28.9026 27.0508 28.9026 24.7741C28.9026 22.4973 27.0503 20.645 24.7736 20.645ZM24.7736 27.8708C23.0656 27.8708 21.6768 26.482 21.6768 24.7741C21.6768 23.0661 23.0656 21.6773 24.7736 21.6773C26.4815 21.6773 27.8703 23.0661 27.8703 24.7741C27.8703 26.482 26.4815 27.8708 24.7736 27.8708Z" fill="black"/>
<path d="M24.7735 22.7095C23.6349 22.7095 22.709 23.6354 22.709 24.774C22.709 25.9126 23.6349 26.8385 24.7735 26.8385C25.9121 26.8385 26.838 25.9126 26.838 24.774C26.838 23.6354 25.9121 22.7095 24.7735 22.7095ZM24.7735 25.8062C24.2042 25.8062 23.7412 25.3433 23.7412 24.774C23.7412 24.2047 24.2042 23.7417 24.7735 23.7417C25.3428 23.7417 25.8058 24.2047 25.8058 24.774C25.8058 25.3433 25.3428 25.8062 24.7735 25.8062Z" fill="black"/>
<path d="M13.0713 8.73916C13.2441 9.24597 13.545 9.69279 13.9357 10.0439V10.4816L11.4815 11.4017C10.4798 11.777 9.80664 12.748 9.80664 13.8178V16.5161H22.1937V13.8178C22.1937 12.748 21.5206 11.777 20.5193 11.4012L18.0647 10.4811V10.0439C18.4553 9.6933 18.7562 9.24647 18.9291 8.73916C19.9016 8.57233 20.6453 7.72858 20.6453 6.70968V4.64516C20.6453 2.08417 18.5617 0 16.0002 0C13.4387 0 11.355 2.08417 11.355 4.64516V6.70968C11.355 7.72858 12.0987 8.57233 13.0713 8.73916ZM17.0324 10.6958L16.0002 12.4161L14.9679 10.6958V10.658C15.2915 10.7732 15.6378 10.8387 16.0002 10.8387C16.3626 10.8387 16.7089 10.7727 17.0324 10.658V10.6958ZM14.2303 11.473L15.2709 13.2067L14.2371 13.7233L13.5692 11.7208L14.2303 11.473ZM21.1615 13.8178V15.4839H10.8389V13.8178C10.8389 13.1757 11.2426 12.5935 11.8437 12.3679L12.6025 12.0837L13.6343 15.1794L16.0002 13.9965L18.3661 15.1794L19.3979 12.0837L20.1572 12.3684C20.7577 12.5935 21.1615 13.1757 21.1615 13.8178ZM18.4311 11.7208L17.7633 13.7238L16.7295 13.2072L17.7701 11.473L18.4311 11.7208ZM16.0002 9.80645C14.8616 9.80645 13.9357 8.88054 13.9357 7.74194V5.64239C14.6912 5.56275 15.4042 5.2873 16.0002 4.81855C16.5962 5.2878 17.3092 5.56275 18.0647 5.64239V7.74194C18.0647 8.88054 17.1388 9.80645 16.0002 9.80645ZM19.097 7.59854V5.82132C19.4042 6.0005 19.6131 6.32989 19.6131 6.71018C19.6131 7.09047 19.4042 7.41935 19.097 7.59854ZM16.0002 1.03226C17.9919 1.03226 19.6131 2.65297 19.6131 4.64516V4.93221C19.3082 4.75454 18.9586 4.64516 18.5808 4.64516H18.4921C17.6884 4.64516 16.9329 4.33241 16.3651 3.76411L16.0002 3.39869L15.6353 3.76411C15.067 4.33241 14.3119 4.64516 13.5083 4.64516H13.4195C13.0418 4.64516 12.6922 4.75454 12.3873 4.93221V4.64516C12.3873 2.65297 14.0085 1.03226 16.0002 1.03226ZM12.9034 5.82082V7.59803C12.5962 7.41885 12.3873 7.08947 12.3873 6.70917C12.3873 6.32888 12.5962 6 12.9034 5.82082Z" fill="black"/>
<path d="M0 31.9999H10.3226V18.5806H0V31.9999ZM1.03226 19.6128H9.29032V30.9677H1.03226V19.6128Z" fill="black"/>
<path d="M2.06445 20.645H8.258V21.6773H2.06445V20.645Z" fill="black"/>
<path d="M2.06445 22.7095H3.09671V23.7417H2.06445V22.7095Z" fill="black"/>
<path d="M4.12891 22.7095H8.25794V23.7417H4.12891V22.7095Z" fill="black"/>
<path d="M2.06445 24.7744H8.258V25.8067H2.06445V24.7744Z" fill="black"/>
<path d="M2.06445 26.8389H8.258V27.8711H2.06445V26.8389Z" fill="black"/>
<path d="M7.22656 28.9033H8.25882V29.9356H7.22656V28.9033Z" fill="black"/>
<path d="M2.06445 28.9033H6.19349V29.9356H2.06445V28.9033Z" fill="black"/>
<path d="M13.7843 23.0746L13.0544 22.3447L10.625 24.7742L13.0544 27.2036L13.7843 26.4738L12.6008 25.2903H16.5161V24.258H12.6008L13.7843 23.0746Z" fill="black"/>
<path d="M5.67679 8.25808C5.67679 7.97381 5.90814 7.74195 6.19292 7.74195H8.55985L7.37639 8.92542L8.10622 9.65526L10.5357 7.22582L8.10622 4.79639L7.37639 5.52623L8.55985 6.70969H6.19292C5.33934 6.70969 4.64453 7.4045 4.64453 8.25808V17.5484H5.67679V8.25808Z" fill="black"/>
<path d="M24.7745 8.25786V14.7538L23.591 13.5704L22.8612 14.3002L25.2906 16.7296L27.7201 14.3002L26.9902 13.5704L25.8068 14.7538V8.25786C25.8068 7.40428 25.112 6.70947 24.2584 6.70947H21.6777V7.74173H24.2584C24.5432 7.74173 24.7745 7.97359 24.7745 8.25786Z" fill="black"/>
</g>
<defs>
<clipPath id="clip0">
<rect width="32" height="32" fill="white"/>
</clipPath>
</defs>
</svg>
