<svg width="36" height="36" viewBox="0 0 36 36" fill="none" xmlns="http://www.w3.org/2000/svg">
<g clip-path="url(#clip0)">
<path d="M25.401 36C23.2905 36 21.474 34.5045 21.0855 32.4435L19.488 24.012C19.3545 23.31 18.729 22.8 18 22.8C17.271 22.8 16.6455 23.3085 16.5135 24.0105L14.916 32.4435C14.526 34.5045 12.711 36 10.599 36C8.349 36 6.4725 34.3245 6.231 32.103L5.6055 26.3295C5.3865 24.297 4.953 22.2795 4.3215 20.3325L3.1035 16.575C2.04 13.2975 1.5 9.891 1.5 6.45C1.5 2.8935 4.416 0 7.9995 0C10.4445 0 12.7995 0.594 15.321 1.8165C17.124 2.691 18.8775 2.691 20.679 1.8165C23.2005 0.594 25.5555 0 27.8775 0C31.584 0 34.5 2.8935 34.5 6.45C34.5 9.891 33.96 13.2975 32.8965 16.575L31.677 20.3325C31.0455 22.2795 30.6135 24.297 30.393 26.3295L29.7675 32.1045C29.5275 34.3245 27.6495 36 25.401 36ZM18 19.8C20.169 19.8 22.0335 21.336 22.434 23.454L24.0315 31.8855C24.1545 32.532 24.729 33 25.401 33C26.115 33 26.7105 32.475 26.7855 31.7805L27.411 26.007C27.6525 23.7705 28.128 21.5505 28.824 19.4085L30.0435 15.651C31.0095 12.672 31.5 9.576 31.5 6.45C31.5 4.548 29.9295 3 28.0005 3C26.019 3 24.093 3.4965 21.9885 4.5165C19.341 5.799 16.659 5.799 14.013 4.5165C11.9085 3.4965 9.981 3 8.1225 3C6.0705 3 4.5 4.548 4.5 6.45C4.5 9.576 4.9905 12.672 5.9565 15.6495L7.176 19.407C7.872 21.549 8.3475 23.7705 8.589 26.007L9.2145 31.7805C9.2895 32.475 9.885 33 10.599 33C11.2695 33 11.8455 32.5305 11.9685 31.8855L13.566 23.454C13.9665 21.3375 15.831 19.8 18 19.8Z" fill="#333333"/>
<path d="M31.875 16.5H26.604C24.8895 16.5 23.3475 15.5475 22.5795 14.013L21.987 12.8295C21.732 12.318 21.2175 12 20.646 12H15.354C14.7825 12 14.268 12.318 14.013 12.8295L13.4205 14.013C12.654 15.5475 11.1105 16.5 9.396 16.5H4.125V13.5H9.396C9.9675 13.5 10.482 13.182 10.737 12.6705L11.3295 11.487C12.096 9.9525 13.6395 9 15.354 9H20.646C22.3605 9 23.9025 9.9525 24.6705 11.487L25.263 12.6705C25.518 13.182 26.0325 13.5 26.604 13.5H31.875V16.5Z" fill="#333333"/>
</g>
<defs>
<clipPath id="clip0">
<rect width="36" height="36" fill="white"/>
</clipPath>
</defs>
</svg>
