<svg width="72" height="72" viewBox="0 0 72 72" fill="none" xmlns="http://www.w3.org/2000/svg">
<g clip-path="url(#clip0)">
<path d="M66.9465 47.1398C66.9299 44.982 66.0776 43.0417 64.7273 41.5666C66.0987 40.0206 66.8729 37.6218 66.8568 35.5404C66.8337 32.5581 65.2455 29.968 62.8891 28.5006C63.5714 27.2752 63.9869 25.8828 63.9753 24.3818C63.9463 20.6393 61.4685 17.2146 58.0745 16.0572C58.0701 16.016 59.2923 12.3237 56.2221 9.29728C55.1588 8.25175 53.7613 7.54277 52.207 7.34515C51.7238 5.97497 50.8929 4.69704 49.8225 3.67401C48.3298 2.24738 46.3704 1.31757 44.2305 1.3342C43.1997 1.34217 42.2144 1.55754 41.3052 1.93712C38.1292 3.26285 35.8857 6.6029 35.9135 10.2035C35.8945 7.74989 34.8227 5.43328 33.1305 3.80231C32.0323 4.85622 31.1884 6.18111 30.7133 7.59741C29.1622 7.81907 27.7758 8.54958 26.7289 9.61145C23.7528 12.6373 24.9811 16.385 24.9813 16.3992C21.6056 17.609 19.1809 21.0715 19.2099 24.8141C19.2215 26.3151 19.6585 27.7009 20.3596 28.9155C18.0261 30.4192 16.4782 33.0336 16.5012 36.0159C16.5173 38.0994 17.3296 40.485 18.7236 42.0084C17.3962 43.5043 16.5742 45.4576 16.591 47.6153C16.6109 50.2076 17.8306 52.4875 19.6915 54.012C19.544 54.6462 19.4456 55.2983 19.4509 55.9789C19.4867 60.6103 23.2727 64.7542 27.9041 64.7185C28.2214 64.7159 28.5228 64.655 28.83 64.6177C29.5513 66.1409 30.6499 67.449 32.0045 68.4191C34.6175 66.5217 36.3244 63.3516 36.2982 59.9554C36.3286 63.8817 38.6706 67.4693 42.0214 69.1221C43.2815 69.7436 44.6832 70.0932 46.1597 70.0818C48.2453 70.0657 50.1666 69.3943 51.7394 68.2665C53.1335 67.2668 54.2539 65.9086 54.972 64.3295C55.2797 64.3621 55.582 64.4184 55.8993 64.416C60.5307 64.3802 64.2521 60.1782 64.2164 55.5468C64.211 54.8661 64.1026 54.2157 63.9454 53.5839C65.7823 52.0306 66.9665 49.7322 66.9465 47.1398Z" fill="#FFA8BE"/>
<path d="M43.0987 14.3947C43.8702 14.3947 44.4963 13.7686 44.4963 12.9972C44.4963 12.2257 43.8702 11.5996 43.0987 11.5996C42.3273 11.5996 41.7012 12.2257 41.7012 12.9972C41.7012 13.7686 42.3273 14.3947 43.0987 14.3947Z" fill="black"/>
<path d="M29.1232 14.3947C29.8946 14.3947 30.5207 13.7686 30.5207 12.9972C30.5207 12.2257 29.8946 11.5996 29.1232 11.5996C28.3517 11.5996 27.7256 12.2257 27.7256 12.9972C27.7256 13.7686 28.3517 14.3947 29.1232 14.3947Z" fill="black"/>
<path d="M3.9668 47.3776C3.9668 49.9793 5.02168 52.4578 6.88758 54.2981C5.92829 60.0969 10.5528 65.9653 16.5449 65.9653C16.5882 65.9653 16.6309 65.9646 16.6727 65.9633C18.6593 69.3904 22.3469 71.5556 26.3279 71.5556C30.477 71.5556 34.1845 69.0651 36.1109 65.477C38.0373 69.0651 41.7448 71.5556 45.8939 71.5556C49.8749 71.5556 53.5625 69.3904 55.5491 65.9633C55.5911 65.9646 55.6335 65.9653 55.6769 65.9653C60.9798 65.9653 65.4599 61.2932 65.4599 55.763C65.4599 55.2922 65.4185 54.8079 65.3342 54.2981C67.2001 52.4578 68.255 49.9795 68.255 47.3776C68.255 45.3713 67.6226 43.4184 66.4553 41.7708C67.6549 39.9705 68.255 37.7242 68.255 35.7778C68.255 32.8434 66.9515 30.1172 64.7147 28.2685C65.2097 27.0856 65.4599 25.8553 65.4599 24.5972C65.4599 20.7043 63.188 17.0779 59.8102 15.3844C60.3227 11.1339 57.553 7.23773 53.4484 6.24392C51.8419 2.53016 48.2663 0 44.4963 0C40.987 0 37.8396 2.04688 36.1109 5.03349C34.3821 2.04688 31.2346 0 27.7255 0C23.9553 0 20.3796 2.53016 18.7733 6.24406C14.6442 7.24416 11.9005 11.1597 12.4116 15.3844C9.03397 17.0777 6.76194 20.7043 6.76194 24.5972C6.76194 25.8553 7.0121 27.0856 7.50712 28.2685C5.27031 30.1173 3.9668 32.8434 3.9668 35.7778C3.9668 37.7344 4.57194 39.9778 5.76645 41.7707C4.5992 43.4184 3.9668 45.3713 3.9668 47.3776ZM44.4963 2.79514C46.908 2.79514 48.9574 4.27992 50.1899 6.10934C48.4424 6.37851 46.8298 7.19077 45.5547 8.46438C45.0085 9.00985 45.008 9.89465 45.5534 10.4408C46.0989 10.987 46.984 10.9874 47.5299 10.4419C48.5871 9.38622 49.9913 8.80469 51.4842 8.80469C54.5578 8.80469 57.0744 11.2905 57.0744 14.395C57.0744 14.4319 57.0716 14.4678 57.0709 14.5045C56.6102 14.4328 56.1448 14.395 55.6769 14.395C50.3739 14.395 45.8939 19.067 45.8939 24.5972C45.8939 25.3691 46.5197 25.9948 47.2915 25.9948C48.0632 25.9948 48.689 25.3691 48.689 24.5972C48.689 20.6515 51.9543 17.1901 55.6769 17.1901C59.5875 17.1901 62.6647 20.8234 62.6647 24.5972C62.6647 25.7716 62.3497 26.9226 61.7285 28.0182C61.3609 28.6665 61.5668 29.4893 62.1964 29.8881C64.2399 31.1827 65.4599 33.3844 65.4599 35.7778C65.4599 39.7372 62.2537 43.1849 58.472 43.1849C57.7003 43.1849 57.0744 43.8106 57.0744 44.5825C57.0744 45.3543 57.7003 45.98 58.472 45.98C60.6732 45.98 62.7582 45.155 64.4345 43.7818C65.1014 44.8695 65.4599 46.11 65.4599 47.3776C65.4599 49.428 64.5313 51.3766 62.9125 52.7237C62.5033 53.0642 62.3231 53.6074 62.4477 54.1248C62.5958 54.7401 62.6647 55.2607 62.6647 55.7629C62.6647 60.1009 58.741 63.6069 55.2035 63.1233C55.1053 63.1099 55.0069 63.0966 54.9081 63.0854C54.3089 63.0177 53.7358 63.3399 53.4827 63.8857C52.1083 66.847 49.1294 68.7604 45.8939 68.7604C41.3486 68.7604 37.5085 64.7283 37.5085 59.9557C37.5085 55.332 41.2702 51.5703 45.8939 51.5703C46.6656 51.5703 47.2915 50.9446 47.2915 50.1727C47.2915 49.4009 46.6656 48.7752 45.8939 48.7752C42.5569 48.7752 39.5588 50.2465 37.5085 52.5722V25.9948C37.5085 24.4536 38.7624 23.1997 40.3036 23.1997C41.0753 23.1997 41.7012 22.574 41.7012 21.8021C41.7012 21.0302 41.0753 20.4045 40.3036 20.4045C39.2858 20.4045 38.3314 20.6793 37.5085 21.1565V10.2023C37.5085 6.25636 40.7737 2.79514 44.4963 2.79514ZM10.0255 29.8881C10.6551 29.4893 10.861 28.6665 10.4933 28.0182C9.87209 26.9226 9.55707 25.7716 9.55707 24.5972C9.55707 20.8252 12.632 17.1901 16.5449 17.1901C20.2675 17.1901 23.5328 20.6515 23.5328 24.5972C23.5328 25.3691 24.1585 25.9948 24.9303 25.9948C25.7022 25.9948 26.3279 25.3691 26.3279 24.5972C26.3279 19.067 21.8479 14.395 16.5449 14.395C16.077 14.395 15.6116 14.4328 15.1508 14.5045C15.1501 14.4678 15.1474 14.432 15.1474 14.395C15.1474 11.276 17.6793 8.80469 20.7376 8.80469C22.2305 8.80469 23.6348 9.38622 24.6916 10.4419C25.2377 10.9874 26.1225 10.9869 26.6681 10.441C27.2135 9.89479 27.2131 9.00999 26.6671 8.46452C25.3921 7.19091 23.7794 6.37865 22.0318 6.10948C23.2643 4.27992 25.3138 2.79514 27.7255 2.79514C31.448 2.79514 34.7133 6.25636 34.7133 10.2023V21.1565C33.8904 20.6793 32.936 20.4045 31.9182 20.4045C31.1463 20.4045 30.5206 21.0302 30.5206 21.8021C30.5206 22.574 31.1463 23.1997 31.9182 23.1997C33.4594 23.1997 34.7133 24.4536 34.7133 25.9948V52.5722C32.663 50.2465 29.6649 48.7752 26.3279 48.7752C25.556 48.7752 24.9303 49.4009 24.9303 50.1727C24.9303 50.9446 25.556 51.5703 26.3279 51.5703C30.9516 51.5703 34.7133 55.332 34.7133 59.9557C34.7133 64.7283 30.8732 68.7604 26.3279 68.7604C23.0923 68.7604 20.1136 66.847 18.7392 63.8857C18.4859 63.3399 17.912 63.0181 17.3137 63.0854C17.2149 63.0968 17.1167 63.1099 17.0184 63.1233C13.0409 63.6673 8.56173 59.1633 9.77426 54.1248C9.89878 53.6073 9.71849 53.0642 9.30942 52.7237C7.69048 51.3766 6.76194 49.428 6.76194 47.3776C6.76194 46.1099 7.12041 44.8692 7.78747 43.7814C9.46372 45.1552 11.5488 45.98 13.7498 45.98C14.5217 45.98 15.1474 45.3543 15.1474 44.5825C15.1474 43.8106 14.5217 43.1849 13.7498 43.1849C9.95692 43.1849 6.76194 39.7231 6.76194 35.7778C6.76194 33.3844 7.98187 31.1827 10.0255 29.8881Z" fill="black"/>
<path d="M23.3372 34.248C22.7991 35.943 21.211 37.1749 19.3402 37.1749C18.5683 37.1749 17.9426 37.8006 17.9426 38.5725C17.9426 39.3444 18.5683 39.9701 19.3402 39.9701C22.7442 39.9701 25.5859 37.5229 26.2025 34.2956C28.1461 34.0414 29.9754 33.2097 31.4525 31.8883C32.0277 31.3737 32.0769 30.4902 31.5623 29.915C31.0477 29.3397 30.1643 29.2905 29.589 29.8051C25.1072 33.814 17.9426 30.6101 17.9426 24.5968C17.9426 23.8249 17.3169 23.1992 16.545 23.1992C15.7732 23.1992 15.1475 23.8249 15.1475 24.5968C15.1475 29.4485 18.6983 33.4846 23.3372 34.248Z" fill="black"/>
<path d="M16.545 54.3652C15.7732 54.3652 15.1475 54.9909 15.1475 55.7628C15.1475 56.5347 15.7732 57.1604 16.545 57.1604C20.2676 57.1604 23.5329 60.6217 23.5329 64.5675C23.5329 65.3394 24.1586 65.9651 24.9304 65.9651C25.7023 65.9651 26.328 65.3394 26.328 64.5675C26.328 59.0373 21.848 54.3652 16.545 54.3652Z" fill="black"/>
<path d="M27.7255 43.1855C22.9897 43.1855 18.9236 45.7829 16.7825 49.5596C16.402 50.2311 16.6377 51.084 17.3091 51.4646C17.9807 51.8451 18.8335 51.6095 19.2142 50.938C20.8822 47.9953 24.0471 45.9807 27.7255 45.9807C28.4974 45.9807 29.1231 45.355 29.1231 44.5831C29.1231 43.8112 28.4974 43.1855 27.7255 43.1855Z" fill="black"/>
<path d="M40.6597 29.915C40.145 30.4902 40.1943 31.3737 40.7696 31.8883C42.2466 33.2097 44.0761 34.0414 46.0195 34.2956C46.6361 37.5229 49.4778 39.9701 52.8819 39.9701C53.6536 39.9701 54.2794 39.3444 54.2794 38.5725C54.2794 37.8006 53.6536 37.1749 52.8819 37.1749C51.0111 37.1749 49.4229 35.943 48.8848 34.248C53.5238 33.4846 57.0746 29.4485 57.0746 24.5968C57.0746 23.8249 56.4487 23.1992 55.677 23.1992C54.9053 23.1992 54.2794 23.8249 54.2794 24.5968C54.2794 28.4499 51.1447 31.5846 47.2916 31.5846C45.5703 31.5846 43.916 30.9527 42.6331 29.8051C42.058 29.2905 41.1743 29.3396 40.6597 29.915Z" fill="black"/>
<path d="M55.6765 54.3652C50.3736 54.3652 45.8936 59.0373 45.8936 64.5675C45.8936 65.3394 46.5194 65.9651 47.2911 65.9651C48.0629 65.9651 48.6887 65.3394 48.6887 64.5675C48.6887 60.6217 51.954 57.1604 55.6765 57.1604C56.4483 57.1604 57.0741 56.5347 57.0741 55.7628C57.0741 54.9909 56.4483 54.3652 55.6765 54.3652Z" fill="black"/>
<path d="M53.0073 50.938C53.3884 51.6104 54.2419 51.8449 54.9123 51.4647C55.5838 51.0842 55.8196 50.2313 55.4392 49.5597C53.3034 45.792 49.2429 43.1855 44.4962 43.1855C43.7245 43.1855 43.0986 43.8112 43.0986 44.5831C43.0986 45.355 43.7245 45.9807 44.4962 45.9807C48.1719 45.9807 51.3393 47.9947 53.0073 50.938Z" fill="black"/>
</g>
<defs>
<clipPath id="clip0">
<rect width="71.5556" height="71.5556" fill="white" transform="translate(0.333008)"/>
</clipPath>
</defs>
</svg>
