<svg width="72" height="72" viewBox="0 0 72 72" fill="none" xmlns="http://www.w3.org/2000/svg">
<g clip-path="url(#clip0)">
<path d="M66.9455 47.1398C66.9289 44.982 66.0767 43.0417 64.7263 41.5666C66.0978 40.0206 66.8719 37.6218 66.8558 35.5404C66.8327 32.5581 65.2445 29.968 62.8881 28.5006C63.5704 27.2752 63.9859 25.8828 63.9743 24.3818C63.9454 20.6393 61.4675 17.2146 58.0735 16.0572C58.0691 16.016 59.2913 12.3237 56.2211 9.29728C55.1579 8.25175 53.7603 7.54277 52.2061 7.34515C51.7228 5.97497 50.8919 4.69704 49.8215 3.67401C48.3288 2.24738 46.3694 1.31757 44.2296 1.3342C43.1987 1.34217 42.2134 1.55754 41.3042 1.93712C38.1282 3.26285 35.8847 6.6029 35.9125 10.2035C35.8935 7.74989 34.8217 5.43328 33.1295 3.80231C32.0313 4.85622 31.1875 6.18111 30.7123 7.59741C29.1613 7.81907 27.7749 8.54958 26.7279 9.61145C23.7518 12.6373 24.9801 16.385 24.9803 16.3992C21.6046 17.609 19.18 21.0715 19.2089 24.8141C19.2205 26.3151 19.6575 27.7009 20.3587 28.9155C18.0251 30.4192 16.4772 33.0336 16.5003 36.0159C16.5163 38.0994 17.3286 40.485 18.7227 42.0084C17.3953 43.5043 16.5732 45.4576 16.59 47.6153C16.61 50.2076 17.8296 52.4875 19.6905 54.012C19.543 54.6462 19.4447 55.2983 19.45 55.9789C19.4857 60.6103 23.2718 64.7542 27.9032 64.7185C28.2204 64.7159 28.5219 64.655 28.8291 64.6177C29.5503 66.1409 30.649 67.449 32.0035 68.4191C34.6165 66.5217 36.3234 63.3516 36.2972 59.9554C36.3276 63.8817 38.6696 67.4693 42.0204 69.1221C43.2805 69.7436 44.6822 70.0932 46.1588 70.0818C48.2444 70.0657 50.1656 69.3943 51.7384 68.2665C53.1325 67.2668 54.2529 65.9086 54.971 64.3295C55.2788 64.3621 55.5811 64.4184 55.8983 64.416C60.5297 64.3802 64.2512 60.1782 64.2154 55.5468C64.2101 54.8661 64.1016 54.2157 63.9444 53.5839C65.7814 52.0306 66.9655 49.7322 66.9455 47.1398Z" fill="#FFA8BE"/>
<path d="M43.0968 14.3947C43.8682 14.3947 44.4944 13.7686 44.4944 12.9972C44.4944 12.2257 43.8682 11.5996 43.0968 11.5996C42.3253 11.5996 41.6992 12.2257 41.6992 12.9972C41.6992 13.7686 42.3253 14.3947 43.0968 14.3947Z" fill="black"/>
<path d="M29.1222 14.3947C29.8936 14.3947 30.5197 13.7686 30.5197 12.9972C30.5197 12.2257 29.8936 11.5996 29.1222 11.5996C28.3507 11.5996 27.7246 12.2257 27.7246 12.9972C27.7246 13.7686 28.3507 14.3947 29.1222 14.3947Z" fill="black"/>
<path d="M3.96484 47.3776C3.96484 49.9793 5.01973 52.4578 6.88562 54.2981C5.92633 60.0969 10.5509 65.9653 16.543 65.9653C16.5863 65.9653 16.6289 65.9646 16.6707 65.9633C18.6574 69.3904 22.345 71.5556 26.326 71.5556C30.4751 71.5556 34.1825 69.0651 36.1089 65.477C38.0354 69.0651 41.7428 71.5556 45.8919 71.5556C49.8729 71.5556 53.5605 69.3904 55.5472 65.9633C55.5891 65.9646 55.6316 65.9653 55.6749 65.9653C60.9779 65.9653 65.4579 61.2932 65.4579 55.763C65.4579 55.2922 65.4165 54.8079 65.3323 54.2981C67.1982 52.4578 68.253 49.9795 68.253 47.3776C68.253 45.3713 67.6206 43.4184 66.4534 41.7708C67.6529 39.9705 68.253 37.7242 68.253 35.7778C68.253 32.8434 66.9495 30.1172 64.7127 28.2685C65.2077 27.0856 65.4579 25.8553 65.4579 24.5972C65.4579 20.7043 63.186 17.0779 59.8082 15.3844C60.3207 11.1339 57.551 7.23773 53.4465 6.24392C51.84 2.53016 48.2643 0 44.4944 0C40.9851 0 37.8376 2.04688 36.1089 5.03349C34.3801 2.04688 31.2327 0 27.7235 0C23.9533 0 20.3776 2.53016 18.7714 6.24406C14.6423 7.24416 11.8986 11.1597 12.4097 15.3844C9.03201 17.0777 6.75998 20.7043 6.75998 24.5972C6.75998 25.8553 7.01015 27.0856 7.50517 28.2685C5.26836 30.1173 3.96484 32.8434 3.96484 35.7778C3.96484 37.7344 4.56999 39.9778 5.76449 41.7707C4.59724 43.4184 3.96484 45.3713 3.96484 47.3776ZM44.4944 2.79514C46.906 2.79514 48.9554 4.27992 50.1879 6.10934C48.4404 6.37851 46.8279 7.19077 45.5527 8.46438C45.0066 9.00985 45.006 9.89465 45.5515 10.4408C46.097 10.987 46.982 10.9874 47.5279 10.4419C48.5852 9.38622 49.9893 8.80469 51.4822 8.80469C54.5559 8.80469 57.0725 11.2905 57.0725 14.395C57.0725 14.4319 57.0697 14.4678 57.069 14.5045C56.6082 14.4328 56.1428 14.395 55.6749 14.395C50.372 14.395 45.8919 19.067 45.8919 24.5972C45.8919 25.3691 46.5178 25.9948 47.2895 25.9948C48.0612 25.9948 48.6871 25.3691 48.6871 24.5972C48.6871 20.6515 51.9523 17.1901 55.6749 17.1901C59.5856 17.1901 62.6628 20.8234 62.6628 24.5972C62.6628 25.7716 62.3477 26.9226 61.7265 28.0182C61.359 28.6665 61.5648 29.4893 62.1944 29.8881C64.238 31.1827 65.4579 33.3844 65.4579 35.7778C65.4579 39.7372 62.2517 43.1849 58.4701 43.1849C57.6983 43.1849 57.0725 43.8106 57.0725 44.5825C57.0725 45.3543 57.6983 45.98 58.4701 45.98C60.6712 45.98 62.7563 45.155 64.4325 43.7818C65.0994 44.8695 65.4579 46.11 65.4579 47.3776C65.4579 49.428 64.5294 51.3766 62.9106 52.7237C62.5013 53.0642 62.3212 53.6074 62.4457 54.1248C62.5939 54.7401 62.6628 55.2607 62.6628 55.7629C62.6628 60.1009 58.7391 63.6069 55.2016 63.1233C55.1033 63.1099 55.0049 63.0966 54.9061 63.0854C54.307 63.0177 53.7338 63.3399 53.4807 63.8857C52.1064 66.847 49.1274 68.7604 45.8919 68.7604C41.3466 68.7604 37.5065 64.7283 37.5065 59.9557C37.5065 55.332 41.2682 51.5703 45.8919 51.5703C46.6637 51.5703 47.2895 50.9446 47.2895 50.1727C47.2895 49.4009 46.6637 48.7752 45.8919 48.7752C42.555 48.7752 39.5569 50.2465 37.5065 52.5722V25.9948C37.5065 24.4536 38.7604 23.1997 40.3017 23.1997C41.0734 23.1997 41.6992 22.574 41.6992 21.8021C41.6992 21.0302 41.0734 20.4045 40.3017 20.4045C39.2838 20.4045 38.3294 20.6793 37.5065 21.1565V10.2023C37.5065 6.25636 40.7718 2.79514 44.4944 2.79514ZM10.0236 29.8881C10.6532 29.4893 10.8591 28.6665 10.4914 28.0182C9.87013 26.9226 9.55512 25.7716 9.55512 24.5972C9.55512 20.8252 12.6301 17.1901 16.543 17.1901C20.2655 17.1901 23.5308 20.6515 23.5308 24.5972C23.5308 25.3691 24.1565 25.9948 24.9284 25.9948C25.7003 25.9948 26.326 25.3691 26.326 24.5972C26.326 19.067 21.8459 14.395 16.543 14.395C16.0751 14.395 15.6097 14.4328 15.1489 14.5045C15.1482 14.4678 15.1454 14.432 15.1454 14.395C15.1454 11.276 17.6774 8.80469 20.7357 8.80469C22.2286 8.80469 23.6328 9.38622 24.6897 10.4419C25.2357 10.9874 26.1205 10.9869 26.6661 10.441C27.2116 9.89479 27.2112 9.00999 26.6651 8.46452C25.3901 7.19091 23.7775 6.37865 22.0298 6.10948C23.2623 4.27992 25.3119 2.79514 27.7235 2.79514C31.4461 2.79514 34.7114 6.25636 34.7114 10.2023V21.1565C33.8885 20.6793 32.9341 20.4045 31.9162 20.4045C31.1444 20.4045 30.5187 21.0302 30.5187 21.8021C30.5187 22.574 31.1444 23.1997 31.9162 23.1997C33.4575 23.1997 34.7114 24.4536 34.7114 25.9948V52.5722C32.661 50.2465 29.6629 48.7752 26.326 48.7752C25.5541 48.7752 24.9284 49.4009 24.9284 50.1727C24.9284 50.9446 25.5541 51.5703 26.326 51.5703C30.9497 51.5703 34.7114 55.332 34.7114 59.9557C34.7114 64.7283 30.8713 68.7604 26.326 68.7604C23.0903 68.7604 20.1117 66.847 18.7373 63.8857C18.4839 63.3399 17.9101 63.0181 17.3118 63.0854C17.213 63.0968 17.1147 63.1099 17.0165 63.1233C13.039 63.6673 8.55977 59.1633 9.7723 54.1248C9.89683 53.6073 9.71654 53.0642 9.30747 52.7237C7.68853 51.3766 6.75998 49.428 6.75998 47.3776C6.75998 46.1099 7.11846 44.8692 7.78552 43.7814C9.46176 45.1552 11.5468 45.98 13.7478 45.98C14.5197 45.98 15.1454 45.3543 15.1454 44.5825C15.1454 43.8106 14.5197 43.1849 13.7478 43.1849C9.95497 43.1849 6.75998 39.7231 6.75998 35.7778C6.75998 33.3844 7.97992 31.1827 10.0236 29.8881Z" fill="black"/>
<path d="M23.3362 34.248C22.7982 35.943 21.21 37.1749 19.3392 37.1749C18.5673 37.1749 17.9416 37.8006 17.9416 38.5725C17.9416 39.3444 18.5673 39.9701 19.3392 39.9701C22.7432 39.9701 25.5849 37.5229 26.2015 34.2956C28.1451 34.0414 29.9744 33.2097 31.4515 31.8883C32.0267 31.3737 32.0759 30.4902 31.5613 29.915C31.0468 29.3397 30.1634 29.2905 29.588 29.8051C25.1063 33.814 17.9416 30.6101 17.9416 24.5968C17.9416 23.8249 17.3159 23.1992 16.5441 23.1992C15.7722 23.1992 15.1465 23.8249 15.1465 24.5968C15.1465 29.4485 18.6973 33.4846 23.3362 34.248Z" fill="black"/>
<path d="M16.5441 54.3652C15.7722 54.3652 15.1465 54.9909 15.1465 55.7628C15.1465 56.5347 15.7722 57.1604 16.5441 57.1604C20.2666 57.1604 23.5319 60.6217 23.5319 64.5675C23.5319 65.3394 24.1576 65.9651 24.9295 65.9651C25.7013 65.9651 26.327 65.3394 26.327 64.5675C26.327 59.0373 21.847 54.3652 16.5441 54.3652Z" fill="black"/>
<path d="M27.7245 43.1855C22.9887 43.1855 18.9226 45.7829 16.7816 49.5596C16.401 50.2311 16.6368 51.084 17.3082 51.4646C17.9797 51.8451 18.8325 51.6095 19.2132 50.938C20.8812 47.9953 24.0461 45.9807 27.7245 45.9807C28.4964 45.9807 29.1221 45.355 29.1221 44.5831C29.1221 43.8112 28.4964 43.1855 27.7245 43.1855Z" fill="black"/>
<path d="M40.6587 29.915C40.144 30.4902 40.1933 31.3737 40.7686 31.8883C42.2457 33.2097 44.0751 34.0414 46.0185 34.2956C46.6351 37.5229 49.4768 39.9701 52.8809 39.9701C53.6526 39.9701 54.2784 39.3444 54.2784 38.5725C54.2784 37.8006 53.6526 37.1749 52.8809 37.1749C51.0101 37.1749 49.4219 35.943 48.8838 34.248C53.5228 33.4846 57.0736 29.4485 57.0736 24.5968C57.0736 23.8249 56.4478 23.1992 55.676 23.1992C54.9043 23.1992 54.2784 23.8249 54.2784 24.5968C54.2784 28.4499 51.1437 31.5846 47.2906 31.5846C45.5694 31.5846 43.9151 30.9527 42.6321 29.8051C42.057 29.2905 41.1733 29.3396 40.6587 29.915Z" fill="black"/>
<path d="M55.6756 54.3652C50.3726 54.3652 45.8926 59.0373 45.8926 64.5675C45.8926 65.3394 46.5184 65.9651 47.2901 65.9651C48.0619 65.9651 48.6877 65.3394 48.6877 64.5675C48.6877 60.6217 51.953 57.1604 55.6756 57.1604C56.4473 57.1604 57.0731 56.5347 57.0731 55.7628C57.0731 54.9909 56.4473 54.3652 55.6756 54.3652Z" fill="black"/>
<path d="M53.0063 50.938C53.3874 51.6104 54.2409 51.8449 54.9113 51.4647C55.5828 51.0842 55.8186 50.2313 55.4382 49.5597C53.3024 45.792 49.2419 43.1855 44.4952 43.1855C43.7235 43.1855 43.0977 43.8112 43.0977 44.5831C43.0977 45.355 43.7235 45.9807 44.4952 45.9807C48.171 45.9807 51.3383 47.9947 53.0063 50.938Z" fill="black"/>
</g>
<defs>
<clipPath id="clip0">
<rect width="71.5556" height="71.5556" fill="white" transform="translate(0.332031)"/>
</clipPath>
</defs>
</svg>
