<svg width="72" height="72" viewBox="0 0 72 72" fill="none" xmlns="http://www.w3.org/2000/svg">
<g clip-path="url(#clip0)">
<path d="M59.6394 66.941C59.9964 67.6799 59.9484 68.5506 59.5124 69.2458C59.0763 69.9411 58.3135 70.3633 57.4928 70.3637H33.4382C32.414 70.3595 31.5068 69.7019 31.1842 68.7299C30.3971 66.4639 28.6678 62.4807 25.8056 61.1807C22.4095 62.4105 18.95 63.4575 15.442 64.3173C13.7319 64.682 12.04 63.6278 11.6137 61.9321C10.6 58.9983 12.0073 58.1993 11.5541 56.4461C11.244 55.2297 10.0991 54.9316 9.19277 54.2876C8.46529 53.7747 9.77714 52.0932 9.77714 52.0932C9.77714 52.0932 8.38181 51.0556 7.88092 50.6024C7.35618 50.1612 8.08366 49.4218 8.75151 48.0264C9.02411 47.4252 9.09926 46.753 8.96618 46.1064C8.72766 44.8184 6.79566 44.3413 5.84159 43.6258C3.84996 42.147 3.74262 41.7892 8.94233 36.1721C10.0313 34.9061 10.7203 33.3456 10.922 31.6879C11.0174 31.1274 11.5899 30.5192 11.578 29.8394C11.5541 28.134 9.08544 27.4304 8.85885 25.7727C8.67996 24.4847 10.3377 22.1353 10.8743 19.8335C11.1679 18.4246 11.5462 17.0347 12.0073 15.6714C12.9974 12.9259 14.5352 10.4103 16.5272 8.27733C19.4491 5.17658 23.5039 3.84088 27.6064 2.88681C42.6092 -0.571713 50.1345 1.32451 58.6853 8.05073C61.9102 10.4514 64.2635 13.8389 65.3877 17.6988C66.2487 20.8852 66.6503 24.1782 66.5803 27.4781C66.461 36.2317 60.8916 39.2967 58.4111 44.9615C56.8935 48.4528 56.3258 52.2831 56.7653 56.0645C57.0952 59.8147 58.0632 63.4809 59.6275 66.9052L59.6394 66.941Z" fill="#FFE0B2"/>
<path d="M59.6288 66.904C58.0645 63.4797 57.0966 59.8135 56.7666 56.0633C56.3271 52.2819 56.8949 48.4516 58.4124 44.9603C60.893 39.2955 66.4624 36.2305 66.5816 27.4769C66.6516 24.177 66.25 20.884 65.389 17.6976C64.2648 13.8377 61.9115 10.4502 58.6867 8.04954C52.4983 3.18137 46.8323 0.858204 38.4961 1.24937C44.9659 1.60715 49.8472 3.90886 55.1101 8.04715C58.335 10.4478 60.6882 13.8353 61.8125 17.6952C62.6734 20.8816 63.075 24.1746 63.0051 27.4745C62.8858 36.2281 57.3164 39.2931 54.8358 44.9579C53.3183 48.4492 52.7505 52.2795 53.19 56.0609C53.52 59.8111 54.488 63.4773 56.0522 66.9016L56.0642 66.9374C56.4224 67.6768 56.3748 68.5484 55.9384 69.2445C55.5019 69.9405 54.7379 70.3629 53.9163 70.3625H57.4941C58.3148 70.3621 59.0777 69.9399 59.5137 69.2446C59.9498 68.5493 59.9978 67.6787 59.6407 66.9398L59.6288 66.904Z" fill="#DFC49C"/>
<path d="M59.4373 26.0936C59.437 27.6587 58.8547 29.1678 57.8035 30.3273H57.7915C57.3079 32.9715 55.6495 35.2529 53.2835 36.5288C53.979 37.4925 54.5109 38.5643 54.8578 39.7011C54.938 39.9475 54.9783 40.2052 54.977 40.4644C54.9738 41.4549 54.3837 42.3494 53.4744 42.7422C53.3291 42.8039 53.1769 42.8479 53.0212 42.8734V42.8853C52.0961 43.0672 51.1464 42.723 50.5525 41.9909C49.7661 41.0783 48.7424 40.4014 47.5949 40.035C47.3921 39.9635 47.2013 39.9038 47.0105 39.8323C43.7309 38.6516 42.7172 37.4113 42.4786 35.372H42.4071C41.1258 35.3736 39.8556 35.1349 38.6623 34.6684C37.1948 36.3722 34.9285 37.1616 32.72 36.7381C30.5116 36.3146 28.698 34.7429 27.9648 32.6171H27.9529C25.3375 33.5811 22.4158 33.2028 20.1324 31.6043C17.8489 30.0059 16.4933 27.3902 16.504 24.6029C16.4982 22.7718 17.0884 20.9885 18.1855 19.5224C18.0517 19.1308 17.9832 18.7198 17.9828 18.306C17.9792 16.5342 19.2273 15.0065 20.9643 14.6566C20.9523 14.5135 20.9404 14.3704 20.9404 14.2154C20.9397 11.5588 23.09 9.40323 25.7466 9.39731C26.4698 9.39253 27.1843 9.55584 27.8336 9.87435C29.1032 7.73675 31.4058 6.42685 33.892 6.42776C35.601 6.42345 37.2521 7.04736 38.5312 8.18087C39.2622 7.00163 40.592 6.33098 41.9748 6.44413C43.3577 6.55727 44.5608 7.43514 45.0904 8.71754C45.427 8.6795 45.7654 8.65959 46.1041 8.65791C50.7289 8.66107 54.5802 12.2066 54.9651 16.8152H54.9889C56.3066 16.824 57.5214 17.5288 58.183 18.6682C58.8446 19.8077 58.8545 21.2121 58.2089 22.3608C59.0089 23.4407 59.4397 24.7497 59.4373 26.0936Z" fill="#EF314C"/>
<path d="M58.209 22.3608C58.8546 21.2121 58.8447 19.8077 58.1831 18.6682C57.5215 17.5287 56.3067 16.824 54.9891 16.8152H54.9652C54.5803 12.2065 50.729 8.66105 46.1042 8.65788C45.7655 8.65957 45.4271 8.67947 45.0905 8.71751C44.5171 7.33281 43.1666 6.42934 41.6678 6.42773C41.0403 6.4299 40.4241 6.59423 39.8789 6.90477C40.6115 7.30853 41.187 7.94703 41.5128 8.71751C41.8493 8.67947 42.1877 8.65957 42.5265 8.65788C47.1512 8.66105 51.0025 12.2065 51.3874 16.8152H51.4113C52.7289 16.824 53.9437 17.5287 54.6053 18.6682C55.267 19.8077 55.2768 21.2121 54.6313 22.3608C56.4107 24.7739 56.2411 28.1073 54.2258 30.3273H54.2139C53.7302 32.9715 52.0718 35.2529 49.7059 36.5288C50.4014 37.4925 50.9333 38.5643 51.2801 39.7011C51.3603 39.9475 51.4006 40.2052 51.3993 40.4643C51.3895 41.0877 51.1441 41.6842 50.7124 42.134C51.3029 42.7626 52.1744 43.0448 53.0213 42.8817V42.8698C53.177 42.8443 53.3292 42.8003 53.4745 42.7386C54.3838 42.3458 54.9739 41.4513 54.9771 40.4608C54.9784 40.2016 54.9381 39.9439 54.8579 39.6975C54.511 38.5607 53.9792 37.4889 53.2836 36.5252C55.6496 35.2493 57.308 32.9679 57.7916 30.3237H57.8036C59.8188 28.1037 59.9885 24.7704 58.209 22.3572V22.3608Z" fill="#BB193B"/>
<path d="M55.5492 70.3624H50.1349C47.6304 63.5765 45.3764 56.2898 46.7121 48.7884C47.213 45.95 48.2744 42.9208 47.0103 39.832C47.2011 39.9036 47.3919 39.9632 47.5946 40.0348C48.7422 40.4011 49.7659 41.0781 50.5523 41.9906C51.1461 42.7228 52.0959 43.0669 53.0209 42.8851C52.908 44.8765 52.6086 46.8529 52.1265 48.7884C50.7908 56.2898 53.0448 63.5765 55.5492 70.3624Z" fill="#BB193B"/>
<path d="M45.3467 19.5683C44.7 19.4446 44.0753 19.8685 43.9514 20.5152C43.7171 21.7451 43.0075 22.833 41.9765 23.5432C39.9935 24.88 37.3333 24.5794 35.6987 22.8336C35.2571 22.3449 34.5029 22.3067 34.0141 22.7484C33.5254 23.19 33.4872 23.9442 33.9289 24.4329C34.9387 25.5489 36.2737 26.3194 37.7452 26.6356C37.0788 27.5773 35.996 28.136 34.8424 28.1335C34.1837 28.1335 33.6498 28.6675 33.6498 29.3261C33.6498 29.9848 34.1837 30.5187 34.8424 30.5187C37.3133 30.5307 39.5314 29.0056 40.4046 26.6941C43.3707 26.2034 45.7191 23.9206 46.2937 20.9696C46.3548 20.6581 46.2893 20.3351 46.1116 20.0721C45.9338 19.8091 45.6586 19.6278 45.3467 19.5683Z" fill="#F5F5F5"/>
<path d="M35.3406 15.9699C35.3406 15.3113 34.8067 14.7773 34.148 14.7773C31.1199 14.7813 28.6661 17.2351 28.6621 20.2633C28.6621 20.9219 29.1961 21.4559 29.8547 21.4559C30.5134 21.4559 31.0473 20.9219 31.0473 20.2633C31.0473 18.5508 32.4355 17.1625 34.148 17.1625C34.8067 17.1625 35.3406 16.6286 35.3406 15.9699Z" fill="#F5F5F5"/>
<path d="M9.75429 31.4848C9.59186 32.9153 9.00731 34.2649 8.07512 35.362C4.328 39.4037 3.25824 40.7954 3.38942 42.2361C3.52061 43.6767 5.09602 44.6558 6.37091 45.3058C6.88372 45.5682 7.74239 46.0082 7.80202 46.3231C7.88017 46.7267 7.83444 47.1445 7.67083 47.5216C7.02325 48.886 5.74599 50.3636 7.08765 51.4942C7.34406 51.722 7.78532 52.069 8.18722 52.3767C7.88877 52.9011 7.75497 53.5033 7.80321 54.1048C7.9332 55.0028 8.55097 55.3307 9.33569 55.7744C10.3888 56.3778 10.6619 56.5555 10.3029 58.0701C9.32496 62.2025 11.7245 66.299 15.6827 65.4773C19.0786 64.6563 22.4275 63.6518 25.7148 62.4684C27.3605 63.4499 28.924 65.8351 30.0534 69.1159C30.5462 70.5701 31.9085 71.5506 33.444 71.556H57.4938C58.732 71.5551 59.8817 70.9141 60.5334 69.8613C61.1851 68.8085 61.2461 67.4935 60.6947 66.3849C59.2053 63.0719 58.2783 59.5339 57.9517 55.9163C57.5286 52.3494 58.0637 48.7342 59.5021 45.443C61.8634 40.0489 67.6463 36.644 67.7739 27.498C67.9266 17.0199 64.6863 11.237 59.4174 7.11063C50.021 -0.283445 41.9245 -1.63942 27.3367 1.72607C23.3773 2.6396 18.8931 4.03374 15.6624 7.45052C13.5583 9.69971 11.9351 12.3545 10.892 15.2525C10.4509 16.5284 10.0924 17.8314 9.81869 19.1534C9.56859 20.2658 9.18288 21.3432 8.67023 22.3615C7.36553 25.2822 7.05068 26.4163 9.42394 28.5928C11.2021 30.2338 10.0286 29.8152 9.75429 31.4848ZM46.6054 34.5593C46.5127 34.2567 46.3035 34.0033 46.0239 33.855C45.7443 33.7067 45.4172 33.6757 45.1147 33.7687C43.1413 34.3858 41.0162 34.3096 39.0921 33.5528C38.6196 33.387 38.0938 33.5178 37.754 33.8855C36.0149 35.8693 33.0509 36.2015 30.9159 34.6519C28.7809 33.1023 28.178 30.1813 29.5251 27.913C29.864 27.3482 29.6808 26.6157 29.116 26.2768C28.5512 25.9379 27.8187 26.1211 27.4798 26.6858C27.1951 27.1696 26.9662 27.6841 26.7976 28.2195C25.8469 28.1671 25.1018 27.3828 25.0982 26.4306C25.0976 26.1159 24.9712 25.8146 24.7473 25.5935C24.5233 25.3724 24.2203 25.25 23.9056 25.2535C21.6397 25.2535 22.6832 30.1646 26.41 30.5749C26.4143 30.9747 26.4506 31.3735 26.5186 31.7675C23.8584 32.3308 21.1056 31.37 19.3737 29.2737C17.6419 27.1774 17.2178 24.2927 18.273 21.7867C18.5405 22.0564 18.8387 22.2937 19.1615 22.4939C19.7259 22.8334 20.4588 22.6511 20.7983 22.0866C21.1378 21.5222 20.9555 20.7893 20.391 20.4498C19.4295 19.8639 18.9728 18.7116 19.2718 17.626C19.5708 16.5405 20.5531 15.7846 21.679 15.7736C22.4704 15.7715 23.2152 16.1472 23.6838 16.7849C23.9381 17.1269 24.3556 17.3071 24.7789 17.2578C25.2022 17.2085 25.567 16.9371 25.7359 16.5458C25.9049 16.1546 25.8522 15.7029 25.5979 15.361C24.7879 14.2782 23.5601 13.5858 22.2145 13.4528C22.5978 11.62 24.3295 10.3927 26.1858 10.6383C26.0964 10.884 26.0022 11.1285 25.9366 11.3825C25.7999 12.0088 26.1828 12.6311 26.8034 12.7914C27.424 12.9518 28.0604 12.5929 28.2442 11.9788C28.7175 10.1687 30.0315 8.69621 31.7762 8.02063C33.5209 7.34506 35.4839 7.54868 37.0527 8.56798C36.8738 9.07215 36.7795 9.60247 36.7737 10.1374C36.7737 10.7961 37.3076 11.33 37.9663 11.33C38.6249 11.33 39.1589 10.7961 39.1589 10.1374C39.1589 9.24119 39.637 8.41302 40.4132 7.9649C41.1893 7.51678 42.1456 7.51678 42.9218 7.9649C43.698 8.41302 44.1761 9.24119 44.1761 10.1374C44.1761 10.7961 44.71 11.33 45.3687 11.33C46.0273 11.33 46.5613 10.7961 46.5613 10.1374C46.5613 10.0444 46.5386 9.95854 46.5339 9.86671C49.9485 10.0778 52.8198 12.505 53.5964 15.8368C53.0402 15.9991 52.5175 16.2596 52.0532 16.6061C51.5262 17.0012 51.4195 17.7488 51.8146 18.2757C52.2098 18.8026 52.9574 18.9094 53.4843 18.5142C54.2535 17.9328 55.2876 17.8426 56.1459 18.2821C57.0042 18.7216 57.5355 19.6133 57.5134 20.5773C57.4914 21.5413 56.9199 22.4078 56.0424 22.8075C55.446 23.0875 55.1894 23.7979 55.4693 24.3943C55.7493 24.9907 56.4597 25.2472 57.0561 24.9673C57.3725 24.8142 57.6716 24.6274 57.9482 24.4104C58.6704 26.4916 57.9741 28.8014 56.2219 30.1367C54.4697 31.4721 52.0581 31.5309 50.2428 30.2827C51.1204 29.052 51.243 27.4362 50.5612 26.0872C50.2671 25.4977 49.5509 25.2582 48.9614 25.5523C48.3719 25.8464 48.1324 26.5627 48.4265 27.1522C48.8204 27.9406 48.5756 28.8986 47.8517 29.4014C47.4279 29.6842 46.904 29.774 46.4102 29.6482C45.9165 29.5224 45.4993 29.193 45.2625 28.7419C45.0726 28.3582 44.6916 28.1058 44.2643 28.0804C43.8369 28.0551 43.4288 28.2608 43.1949 28.6193C42.961 28.9779 42.9372 29.4343 43.1326 29.8152C44.0806 31.7409 46.3497 32.6143 48.3442 31.8212C50.2448 33.4587 52.8525 34.007 55.2517 33.2737C54.0733 34.8833 52.3095 35.9652 50.3406 36.2862C49.6902 36.3906 49.2475 37.0025 49.3519 37.6529C49.4563 38.3033 50.0682 38.746 50.7187 38.6416C51.4444 38.5157 52.1537 38.3085 52.8331 38.0238C53.2002 38.6738 53.498 39.3605 53.7216 40.0727C53.9101 40.6715 53.6386 41.3188 53.0794 41.604C52.5202 41.8892 51.8369 41.7289 51.4628 41.2248C50.5382 40.1408 49.3286 39.3373 47.9709 38.9052C45.3937 38.0429 44.3991 37.2713 43.9769 36.4317C44.5959 36.3547 45.2074 36.2267 45.8052 36.0489C46.433 35.8558 46.7865 35.1915 46.5959 34.5629L46.6054 34.5593ZM48.7378 41.9367C49.0763 42.1758 49.3836 42.4562 49.6525 42.7715C50.1999 43.4191 50.9471 43.8663 51.7765 44.0428C51.3221 48.7321 48.2512 53.4822 53.8528 69.172H50.9643C44.2739 50.7774 49.3841 48.4817 48.7282 41.9403L48.7378 41.9367ZM10.0441 25.6113C10.1889 24.8162 10.4578 24.0488 10.8407 23.337C11.4145 22.1767 11.8504 20.9531 12.1395 19.6913C12.3946 18.4672 12.7264 17.2603 13.1329 16.0777C14.0668 13.4832 15.5195 11.1061 17.4024 9.09153C20.1883 6.14105 24.0809 4.9258 27.8769 4.05044C43.4307 0.461925 50.2058 2.89839 57.9482 8.98777C60.9764 11.2282 63.1857 14.4007 64.2367 18.0181C65.0704 21.0953 65.4592 24.276 65.3911 27.4634C65.2719 35.8116 59.9052 38.5677 57.3185 44.4913C55.709 48.1713 55.11 52.2139 55.5832 56.2025C55.9395 60.0957 56.9474 63.9014 58.5647 67.4606C58.7425 67.8296 58.7185 68.264 58.5011 68.6112C58.2837 68.9583 57.9034 69.1696 57.4938 69.1708H56.3847C50.4217 52.7714 53.8719 49.2151 54.1843 43.7125C55.7824 42.8959 56.5496 41.0385 55.9935 39.3321C55.7267 38.4891 55.3738 37.6759 54.9404 36.9052C56.9675 35.4472 58.3796 33.2872 58.9022 30.8456C60.9345 28.4245 61.2001 24.9784 59.5629 22.2744C60.0745 20.9411 59.9777 19.4508 59.2978 18.1949C58.6179 16.939 57.423 16.0432 56.0269 15.7426C55.1177 10.8333 50.761 7.32262 45.7706 7.47795C44.9926 6.25799 43.7108 5.44884 42.2748 5.27122C40.8388 5.09359 39.3985 5.56603 38.3467 6.55965C34.7604 4.23584 29.9907 5.05526 27.3856 8.44276C25.6528 7.94922 23.7897 8.26449 22.3158 9.30068C20.8418 10.3369 19.9145 11.9832 19.7923 13.7808C17.6202 14.6893 16.4074 17.0201 16.9098 19.3204C14.7365 22.6461 14.8111 26.9609 17.0979 30.2095C19.3848 33.4582 23.4215 34.9838 27.2854 34.0597C28.3719 36.119 30.3561 37.5543 32.6521 37.9418C34.948 38.3292 37.2933 37.6245 38.9955 36.0358C39.805 36.2893 40.6401 36.452 41.4856 36.5212C41.9996 38.4293 43.3651 39.678 46.0556 40.7453C46.5447 42.8038 46.4743 44.9557 45.8517 46.9778C44.1999 54.8597 45.5929 61.2245 48.4289 69.1708H33.444C32.9282 69.1659 32.4724 68.8345 32.3086 68.3455C31.5323 65.8136 30.1938 63.4898 28.3933 61.5477C29.6849 61.0957 30.7284 60.7236 31.1637 60.5865C36.2644 58.9813 38.8166 56.6581 38.7462 53.679C38.7473 53.3601 38.6172 53.0548 38.3865 52.8347C38.1557 52.6146 37.8447 52.499 37.5262 52.515C36.8679 52.5307 36.3469 53.0768 36.3622 53.735C36.4302 56.6402 31.2078 58.0284 28.4911 58.9825C24.1351 60.6031 19.6969 61.9936 15.1949 63.1482C14.0813 63.3577 13.0007 62.6516 12.7453 61.5477C11.8056 58.8382 13.2999 58.4673 12.7119 56.1524C12.3601 54.7666 11.3798 54.2145 10.2635 53.5645C10.6142 52.8263 11.0578 52.6271 10.9624 51.9295C10.867 51.2318 10.5068 51.1948 9.03635 50.0213C9.93799 48.8434 10.336 47.3562 10.1431 45.8854C9.77218 43.926 7.40011 43.3106 6.55218 42.6797C6.27318 42.4848 6.00963 42.2687 5.76388 42.0333C5.78415 41.344 8.40785 38.514 9.81869 36.9934C11.0725 35.5578 11.8675 33.7796 12.1013 31.8879C12.4668 31.2561 12.6947 30.5543 12.7704 29.8283C12.7465 27.5409 10.1789 26.5952 10.0441 25.6113Z" fill="black"/>
</g>
<defs>
<clipPath id="clip0">
<rect width="71.5556" height="71.5556" fill="white" transform="translate(0.332031)"/>
</clipPath>
</defs>
</svg>
