<svg width="72" height="58" viewBox="0 0 72 58" fill="none" xmlns="http://www.w3.org/2000/svg">
<path d="M70.4906 20.0143C70.4881 25.9997 68.0295 31.311 64.2337 34.6365L61.8144 36.892C60.2132 34.6142 57.7912 33.1635 55.0802 33.1635C50.2603 33.1635 46.3522 37.7501 46.3522 43.4065C46.3522 45.7481 47.0214 47.9057 48.1491 49.6306L42.79 54.6261C40.7975 56.483 37.9778 56.4845 35.9839 54.6276C32.5266 51.4059 27.0336 46.2873 22.383 41.9527C17.7311 37.6165 13.9226 34.0658 13.8343 33.9784C10.4299 30.6203 8.26936 25.5819 8.28327 19.9505C8.30729 10.0423 15.1601 1.89775 23.6027 1.75396C32.298 1.60439 35.9839 9.77999 35.9839 19.9505C35.9839 9.78296 46.4721 1.61018 55.1635 1.75396C63.6277 1.89329 70.4957 10.0794 70.4906 20.0143Z" fill="#FF7A7A"/>
<path d="M55.0809 53.6487C59.9009 53.6487 63.8082 49.0631 63.8082 43.4064C63.8082 37.7497 59.9009 33.1641 55.0809 33.1641C50.2609 33.1641 46.3535 37.7497 46.3535 43.4064C46.3535 49.0631 50.2609 53.6487 55.0809 53.6487Z" fill="#A0E4A5"/>
<path d="M53.5679 0.269726C48.5508 0.192269 43.82 2.2118 40.2494 5.94978C38.4408 7.84333 37.0436 10.0583 36.1051 12.475C34.1044 7.32413 30.0917 3.18818 24.9095 1.31644C24.1788 1.05276 23.385 1.4675 23.1363 2.24326C22.8876 3.01917 23.2785 3.862 24.0093 4.12597C30.411 6.43827 34.7122 12.8184 34.7122 20.0019C34.7122 20.8213 35.3379 21.4858 36.1097 21.4858C36.8815 21.4858 37.5073 20.8213 37.5073 20.0019C37.5073 15.4791 39.1781 11.239 42.212 8.06294C45.191 4.94402 49.1203 3.23536 53.2989 3.23536C53.3753 3.23536 53.4522 3.23596 53.5286 3.23714C62.1156 3.36505 69.0976 10.8907 69.0924 20.0132C69.0899 25.3518 66.7738 30.2482 62.7379 33.4468C62.7267 33.4559 62.7157 33.4648 62.7048 33.4741L61.0383 34.8795C59.0047 32.8365 56.2554 31.6793 53.4561 31.6793C47.3659 31.6793 42.4113 36.94 42.4113 43.4062C42.4113 45.4769 42.9275 47.5337 43.9159 49.32L39.0023 53.4638C37.2991 54.8993 34.9203 54.8997 33.2173 53.4653C29.3958 50.2435 23.3242 45.1249 18.1838 40.7903C15.1975 38.2719 8.9832 33.0317 8.76462 32.8423C5.1684 29.633 3.11369 24.9356 3.12725 19.9544C3.14528 13.2124 6.96134 7.15868 12.8489 4.53166C13.5605 4.21411 13.895 3.34443 13.5959 2.58885C13.2968 1.83341 12.4777 1.47788 11.766 1.79572C4.84137 4.88511 0.353213 12.0096 0.332109 19.9458C0.316177 25.8088 2.73425 31.3374 6.96511 35.1131C7.04925 35.1884 8.58504 36.4858 16.4454 43.1143C21.5861 47.449 27.6577 52.5675 31.4796 55.7896C32.8425 56.9379 34.4756 57.512 36.1089 57.512C37.7429 57.5119 39.3773 56.9372 40.7407 55.7876L45.6268 51.6671C47.6285 53.8055 50.3991 55.1318 53.4562 55.1318C59.546 55.1318 64.5004 49.8715 64.5004 43.4057C64.5004 41.1185 63.8782 38.9838 62.8072 37.1778L64.4273 35.8115C66.688 34.0154 68.562 31.6604 69.8479 29C71.1999 26.2024 71.8861 23.1791 71.8877 20.0148C71.8935 9.27792 63.6754 0.420338 53.5679 0.269726ZM53.456 52.1641C48.9663 52.1641 45.2069 48.1728 45.2069 43.4057C45.2069 38.5764 48.9076 34.6474 53.456 34.6474C56.904 34.6474 60.066 37.0206 61.2263 40.4643C61.5437 41.4064 61.705 42.4053 61.705 43.4057C61.7051 48.235 58.0045 52.1641 53.456 52.1641Z" fill="black"/>
<path d="M57.4707 41.7571H54.8532V38.978C54.8532 38.1586 54.2274 37.4941 53.4556 37.4941C52.6839 37.4941 52.058 38.1586 52.058 38.978V41.7571H49.4405C48.6688 41.7571 48.043 42.4216 48.043 43.241C48.043 44.0604 48.6688 44.7248 49.4405 44.7248H52.058V47.5039C52.058 48.3233 52.6839 48.9878 53.4556 48.9878C54.2274 48.9878 54.8532 48.3233 54.8532 47.5039V44.7248H57.4707C58.2424 44.7248 58.8683 44.0604 58.8683 43.241C58.8683 42.4216 58.2424 41.7571 57.4707 41.7571Z" fill="black"/>
<path d="M16.9421 2.31854C17.231 3.06625 18.0641 3.43054 18.766 3.1213C19.4696 2.81133 19.8143 1.9311 19.522 1.18324C19.2298 0.435233 18.4005 0.0727279 17.6968 0.382111C16.9945 0.690901 16.6499 1.57305 16.9421 2.31854Z" fill="black"/>
</svg>
