<svg width="72" height="72" viewBox="0 0 72 72" fill="none" xmlns="http://www.w3.org/2000/svg">
<g clip-path="url(#clip0)">
<path d="M70.4906 32.0143C70.4881 37.9997 68.0295 43.311 64.2337 46.6365L61.8144 48.892C60.2132 46.6142 57.7912 45.1635 55.0802 45.1635C50.2603 45.1635 46.3522 49.7501 46.3522 55.4065C46.3522 57.7481 47.0214 59.9057 48.1491 61.6306L42.79 66.6261C40.7975 68.483 37.9778 68.4845 35.9839 66.6276C32.5266 63.4059 27.0336 58.2873 22.383 53.9527C17.7311 49.6165 13.9226 46.0658 13.8343 45.9784C10.4299 42.6203 8.26936 37.5819 8.28327 31.9505C8.30729 22.0423 15.1601 13.8977 23.6027 13.754C32.298 13.6044 35.9839 21.78 35.9839 31.9505C35.9839 21.783 46.4721 13.6102 55.1635 13.754C63.6277 13.8933 70.4957 22.0794 70.4906 32.0143Z" fill="#FF7A7A"/>
<path d="M55.0809 65.6487C59.9009 65.6487 63.8082 61.0631 63.8082 55.4064C63.8082 49.7497 59.9009 45.1641 55.0809 45.1641C50.2609 45.1641 46.3535 49.7497 46.3535 55.4064C46.3535 61.0631 50.2609 65.6487 55.0809 65.6487Z" fill="#A0E4A5"/>
<path d="M53.5679 12.2697C48.5508 12.1923 43.82 14.2118 40.2494 17.9498C38.4408 19.8433 37.0436 22.0583 36.1051 24.475C34.1044 19.3241 30.0917 15.1882 24.9095 13.3164C24.1788 13.0528 23.385 13.4675 23.1363 14.2433C22.8876 15.0192 23.2785 15.862 24.0093 16.126C30.411 18.4383 34.7122 24.8184 34.7122 32.0019C34.7122 32.8213 35.3379 33.4858 36.1097 33.4858C36.8815 33.4858 37.5073 32.8213 37.5073 32.0019C37.5073 27.4791 39.1781 23.239 42.212 20.0629C45.191 16.944 49.1203 15.2354 53.2989 15.2354C53.3753 15.2354 53.4522 15.236 53.5286 15.2371C62.1156 15.3651 69.0976 22.8907 69.0924 32.0132C69.0899 37.3518 66.7738 42.2482 62.7379 45.4468C62.7267 45.4559 62.7157 45.4648 62.7048 45.4741L61.0383 46.8795C59.0047 44.8365 56.2554 43.6793 53.4561 43.6793C47.3659 43.6793 42.4113 48.94 42.4113 55.4062C42.4113 57.4769 42.9275 59.5337 43.9159 61.32L39.0023 65.4638C37.2991 66.8993 34.9203 66.8997 33.2173 65.4653C29.3958 62.2435 23.3242 57.1249 18.1838 52.7903C15.1975 50.2719 8.9832 45.0317 8.76462 44.8423C5.1684 41.633 3.11369 36.9356 3.12725 31.9544C3.14528 25.2124 6.96134 19.1587 12.8489 16.5317C13.5605 16.2141 13.895 15.3444 13.5959 14.5888C13.2968 13.8334 12.4777 13.4779 11.766 13.7957C4.84137 16.8851 0.353213 24.0096 0.332109 31.9458C0.316177 37.8088 2.73425 43.3374 6.96511 47.1131C7.04925 47.1884 8.58504 48.4858 16.4454 55.1143C21.5861 59.449 27.6577 64.5675 31.4796 67.7896C32.8425 68.9379 34.4756 69.512 36.1089 69.512C37.7429 69.5119 39.3773 68.9372 40.7407 67.7876L45.6268 63.6671C47.6285 65.8055 50.3991 67.1318 53.4562 67.1318C59.546 67.1318 64.5004 61.8715 64.5004 55.4057C64.5004 53.1185 63.8782 50.9838 62.8072 49.1778L64.4273 47.8115C66.688 46.0154 68.562 43.6604 69.8479 41C71.1999 38.2024 71.8861 35.1791 71.8877 32.0148C71.8935 21.2779 63.6754 12.4203 53.5679 12.2697ZM53.456 64.1641C48.9663 64.1641 45.2069 60.1728 45.2069 55.4057C45.2069 50.5764 48.9076 46.6474 53.456 46.6474C56.904 46.6474 60.066 49.0206 61.2263 52.4643C61.5437 53.4064 61.705 54.4053 61.705 55.4057C61.7051 60.235 58.0045 64.1641 53.456 64.1641Z" fill="black"/>
<path d="M57.4707 53.7571H54.8532V50.978C54.8532 50.1586 54.2274 49.4941 53.4556 49.4941C52.6839 49.4941 52.058 50.1586 52.058 50.978V53.7571H49.4405C48.6688 53.7571 48.043 54.4216 48.043 55.241C48.043 56.0604 48.6688 56.7248 49.4405 56.7248H52.058V59.5039C52.058 60.3233 52.6839 60.9878 53.4556 60.9878C54.2274 60.9878 54.8532 60.3233 54.8532 59.5039V56.7248H57.4707C58.2424 56.7248 58.8683 56.0604 58.8683 55.241C58.8683 54.4216 58.2424 53.7571 57.4707 53.7571Z" fill="black"/>
<path d="M16.9421 14.3185C17.231 15.0663 18.0641 15.4305 18.766 15.1213C19.4696 14.8113 19.8143 13.9311 19.522 13.1832C19.2298 12.4352 18.4005 12.0727 17.6968 12.3821C16.9945 12.6909 16.6499 13.5731 16.9421 14.3185Z" fill="black"/>
</g>
<defs>
<clipPath id="clip0">
<rect width="71.5556" height="71.5556" fill="white" transform="translate(0.332031)"/>
</clipPath>
</defs>
</svg>
