<svg width="73" height="72" viewBox="0 0 73 72" fill="none" xmlns="http://www.w3.org/2000/svg">
<g clip-path="url(#clip0)">
<path d="M46.0597 46.6047V32.9805H16.4326V56.3188H32.8756H32.879L46.0597 46.6047Z" fill="#E3F2FF"/>
<path d="M57.3232 47.9895C57.3258 47.988 57.3277 47.9869 57.3287 47.9863C57.3277 47.9869 57.3258 47.988 57.3232 47.9895Z" fill="#FE73B1"/>
<path d="M57.3154 47.9935C57.3177 47.9923 57.3195 47.9912 57.3211 47.9902C57.3196 47.9911 57.3178 47.9922 57.3154 47.9935Z" fill="#FE73B1"/>
<path d="M57.2713 48.0215C57.2638 48.0258 57.2566 48.0301 57.25 48.0337C57.2541 48.0313 57.2578 48.0291 57.2616 48.027C57.2647 48.0253 57.2679 48.0233 57.2713 48.0215Z" fill="#FE73B1"/>
<path d="M57.3186 47.9941C57.3121 47.9978 57.3043 48.0024 57.2959 48.0073C57.3008 48.0044 57.3065 48.0012 57.312 47.998C57.3143 47.9964 57.3166 47.9952 57.3186 47.9941Z" fill="#FE73B1"/>
<path d="M57.3272 47.9872C57.3209 47.9909 57.3156 47.9939 57.3099 47.9973C57.3053 48 57.2998 48.003 57.2934 48.0068C57.294 48.0065 57.2945 48.0061 57.2952 48.0058C57.2853 48.0116 57.2768 48.0164 57.2692 48.0208C57.2729 48.0187 57.2763 48.0166 57.28 48.0145C57.2741 48.0178 57.2675 48.0216 57.2604 48.0258C57.2494 48.0322 57.2413 48.0368 57.236 48.0399C57.2397 48.0378 57.2443 48.035 57.2497 48.032C56.9141 48.2257 55.3342 49.138 49.1797 52.6912L55.5471 63.7196L63.6159 59.061C67.3074 56.9293 69.0665 52.7776 68.349 48.8361C65.294 46.3803 60.9257 45.9095 57.3272 47.9872Z" fill="#FE73B1"/>
<path d="M34.8041 67.2313C37.8545 70.3382 42.727 71.1213 46.6726 68.8432L54.781 64.1616L48.4809 53.25L39.685 58.3285C36.434 60.2063 34.6501 63.6901 34.8041 67.2313Z" fill="#FEC459"/>
<path d="M44.9418 28.6949L37.6749 19.0062V13.416H24.3987V19.006L17.1317 28.6948C16.4064 29.6633 16.0137 30.8399 16.0137 32.0488V32.981H46.0599V32.0488C46.0599 30.8401 45.6672 29.6633 44.9418 28.6949Z" fill="#ED5151"/>
<path d="M40.4695 10.622V4.19344C40.4695 2.64926 39.2187 1.39844 37.6745 1.39844H23.42C21.8758 1.39844 20.625 2.64926 20.625 4.19344V10.622C20.625 12.1662 21.8758 13.417 23.42 13.417H37.6745C39.2187 13.417 40.4695 12.1663 40.4695 10.622Z" fill="#57555C"/>
<path d="M32.8769 56.3198L32.8755 56.3184H16.293V59.1134C16.293 62.2005 18.7959 64.7034 21.883 64.7034H33.0084L33.0098 64.702L32.8769 56.3198Z" fill="#ED5151"/>
<path d="M18.1455 20.4043C18.9169 20.4043 19.5429 19.7781 19.5429 19.0068C19.5429 18.2354 18.9168 17.6094 18.1455 17.6094C17.374 17.6094 16.748 18.2355 16.748 19.0068C16.7479 19.7781 17.374 20.4043 18.1455 20.4043Z" fill="black"/>
<path d="M30.7227 43.7422H26.5302V39.5498C26.5302 38.778 25.9044 38.1523 25.1328 38.1523C24.3612 38.1523 23.7354 38.7782 23.7354 39.5498V43.7422H19.5429C18.7712 43.7422 18.1455 44.368 18.1455 45.1398C18.1455 45.9115 18.7713 46.5372 19.5429 46.5372H23.7354V50.7296C23.7354 51.5014 24.3612 52.1271 25.1328 52.1271C25.9044 52.1271 26.5302 51.5012 26.5302 50.7296V46.5372H30.7227C31.4944 46.5372 32.1201 45.9114 32.1201 45.1398C32.1202 44.368 31.4945 43.7422 30.7227 43.7422Z" fill="black"/>
<path d="M53.169 40.9076L47.4923 44.1849V32.0489C47.4923 30.5486 46.9962 29.0598 46.0947 27.8565L39.1073 18.5402V14.573C40.7338 13.9961 41.9023 12.4428 41.9023 10.6208V4.19243C41.9023 1.88071 40.0216 0 37.7099 0H12.5549C10.2432 0 8.36232 1.88071 8.36232 4.19243V10.621C8.36232 12.4427 9.53083 13.9962 11.1573 14.5732V18.5403L4.16933 27.8572C3.26846 29.0599 2.77246 30.5486 2.77246 32.0489V59.1143C2.77246 62.9672 5.90707 66.1017 9.75989 66.1017H32.2191C35.3526 71.3542 42.1093 73.1119 47.4057 70.0539L64.3491 60.2713C69.6536 57.2081 71.5458 50.3794 68.4408 44.9995C65.3516 39.6488 58.5207 37.8174 53.169 40.9076ZM32.0539 54.9217H5.56732V34.3785H44.6973V45.7984L36.2254 50.6901C34.459 51.7105 33.0312 53.163 32.0539 54.9217ZM11.1573 4.19243C11.1573 3.42181 11.7843 2.795 12.5547 2.795H37.7097C38.4804 2.795 39.1073 3.42195 39.1073 4.19243V10.621C39.1073 11.3916 38.4804 12.0184 37.7097 12.0184H12.5549C11.7843 12.0184 11.1575 11.3914 11.1575 10.621C11.1573 10.621 11.1573 4.19243 11.1573 4.19243ZM13.6728 19.8445C13.8542 19.6027 13.9523 19.3084 13.9523 19.006V14.8135H36.3123V17.6085H23.7349C22.9632 17.6085 22.3375 18.2344 22.3375 19.006C22.3375 19.7777 22.9633 20.4034 23.7349 20.4034H37.0111L43.8582 29.5326C44.3057 30.1301 44.5837 30.8449 44.6677 31.5834H5.59709C5.68094 30.8449 5.95892 30.1302 6.406 29.5333L13.6728 19.8445ZM5.56732 59.1143V57.7029H30.9577C30.5145 59.5148 30.5174 61.4501 31.0249 63.3068H9.75989C7.44817 63.3067 5.56732 61.426 5.56732 59.1143ZM46.0082 67.6333C41.9976 69.9492 36.8727 68.5796 34.5553 64.5662C32.2268 60.5141 33.6379 55.4124 37.6232 53.1104L45.2088 48.7307L53.5938 63.2536L46.0082 67.6333ZM62.9515 57.8508L56.0144 61.8561L47.6293 47.333L54.5665 43.328C58.5798 41.0111 63.7029 42.3831 66.0203 46.3966C68.348 50.4305 66.9325 55.552 62.9515 57.8508Z" fill="black"/>
</g>
<defs>
<clipPath id="clip0">
<rect width="71.5556" height="71.5556" fill="white" transform="translate(0.578125)"/>
</clipPath>
</defs>
</svg>
