<svg width="35" height="35" viewBox="0 0 35 35" fill="none" xmlns="http://www.w3.org/2000/svg">
<g clip-path="url(#clip0)">
<path d="M34.7665 16.8478C31.5854 12.9721 24.8505 8.44922 17.5 8.44922C10.1232 8.44922 3.38804 13.0029 0.233574 16.8478C-0.0778579 17.2274 -0.0778579 17.774 0.233574 18.1536C3.49008 22.123 10.2408 26.5522 17.5 26.5522C25.0173 26.5522 31.7235 21.8611 34.7665 18.1537C35.0779 17.774 35.0779 17.2274 34.7665 16.8478ZM24.4927 17.5007C24.4927 21.3565 21.3558 24.4934 17.5 24.4934C13.6441 24.4934 10.5072 21.3563 10.5072 17.5007C10.5072 13.6449 13.6441 10.508 17.5 10.508C21.3561 10.508 24.4927 13.6453 24.4927 17.5007ZM2.41998 17.501C3.57861 16.2968 6.3723 13.6979 10.294 12.0299C7.8329 15.2638 7.83194 19.7349 10.2929 22.97C7.31106 21.7062 4.54111 19.7095 2.41998 17.501ZM24.7061 22.9715C27.1672 19.7375 27.1681 15.2665 24.7072 12.0314C27.6889 13.2952 30.4589 15.2919 32.5801 17.5004C31.4215 18.7047 28.6278 21.3034 24.7061 22.9715Z" fill="#333333"/>
<path d="M14 17.5C14 19.4299 15.5701 21 17.5 21C19.4299 21 21 19.4299 21 17.5C21 15.5701 19.4299 14 17.5 14C15.5701 14 14 15.5701 14 17.5ZM18.9412 17.5C18.9412 18.2947 18.2946 18.9412 17.5 18.9412C16.7053 18.9412 16.0588 18.2947 16.0588 17.5C16.0588 16.7053 16.7053 16.0588 17.5 16.0588C18.2946 16.0588 18.9412 16.7053 18.9412 17.5Z" fill="#333333"/>
<path d="M17.5001 4.46078C18.0686 4.46078 18.5295 3.99988 18.5295 3.43137V1.02941C18.5295 0.460902 18.0686 0 17.5001 0C16.9316 0 16.4707 0.460902 16.4707 1.02941V3.43137C16.4707 3.99988 16.9316 4.46078 17.5001 4.46078Z" fill="#333333"/>
<path d="M23.6426 5.83751C24.1362 6.11902 24.765 5.94738 25.0468 5.45326L26.4167 3.0513C26.6984 2.55746 26.5265 1.92883 26.0326 1.64712C25.5386 1.36547 24.9101 1.53738 24.6284 2.03136L23.2584 4.43332C22.9768 4.9271 23.1488 5.55579 23.6426 5.83751Z" fill="#333333"/>
<path d="M9.95455 5.45325C10.2362 5.9471 10.8648 6.11908 11.3587 5.83743C11.8526 5.55578 12.0246 4.92709 11.7429 4.43324L10.373 2.03128C10.0913 1.53744 9.46256 1.36546 8.96878 1.64711C8.47494 1.92875 8.30296 2.55745 8.58461 3.05129L9.95455 5.45325Z" fill="#333333"/>
<path d="M17.5001 30.5391C16.9316 30.5391 16.4707 31 16.4707 31.5685V33.9704C16.4707 34.539 16.9316 34.9999 17.5001 34.9999C18.0686 34.9999 18.5295 34.539 18.5295 33.9704V31.5685C18.5295 31 18.0686 30.5391 17.5001 30.5391Z" fill="#333333"/>
<path d="M11.3587 29.1627C10.8649 28.8811 10.2363 29.053 9.95455 29.5469L8.58461 31.9488C8.30296 32.4427 8.47494 33.0714 8.96878 33.353C9.46269 33.6347 10.0913 33.4626 10.373 32.9688L11.7429 30.5669C12.0246 30.073 11.8526 29.4443 11.3587 29.1627Z" fill="#333333"/>
<path d="M25.0468 29.5469C24.7652 29.053 24.1363 28.8812 23.6426 29.1627C23.1488 29.4443 22.9768 30.073 23.2584 30.5669L24.6284 32.9688C24.91 33.4627 25.5386 33.6347 26.0326 33.3531C26.5264 33.0714 26.6984 32.4427 26.4167 31.9489L25.0468 29.5469Z" fill="#333333"/>
</g>
<defs>
<clipPath id="clip0">
<rect width="35" height="35" fill="white"/>
</clipPath>
</defs>
</svg>
