<svg width="84" height="84" viewBox="0 0 84 84" fill="none" xmlns="http://www.w3.org/2000/svg">
<g clip-path="url(#clip0)">
<path d="M77.0886 26.1958C77.3969 25.888 77.5701 25.4703 77.5701 25.0347C77.5701 24.5991 77.3969 24.1814 77.0886 23.8736L68.3513 15.1519C67.7108 14.5127 66.6736 14.5127 66.0331 15.1519L61.5409 19.6361C57.5256 16.949 53.0169 15.1325 48.251 14.2845C49.659 12.7663 50.5208 10.736 50.5208 8.50836C50.5208 3.81699 46.6987 0.000244141 42.0004 0.000244141C37.3021 0.000244141 33.48 3.81699 33.48 8.50836C33.48 10.7358 34.3416 12.7663 35.7498 14.2845C30.9839 15.1325 26.4752 16.949 22.4599 19.6361L17.9677 15.1519C17.3272 14.5127 16.29 14.5127 15.6495 15.1519L6.91219 23.8736C6.60391 24.1814 6.43066 24.5991 6.43066 25.0347C6.43066 25.4703 6.60391 25.888 6.91219 26.1958L11.6984 30.9736C8.5095 36.334 6.80817 42.4704 6.80817 48.8677C6.80817 58.2524 10.4691 67.0754 17.1167 73.7112C23.7635 80.3462 32.6008 84.0002 42.0004 84.0002C51.4 84.0002 60.2372 80.3462 66.8839 73.7112C73.5316 67.0756 77.1925 58.2524 77.1925 48.8677C77.1925 42.4703 75.4911 36.334 72.3022 30.9734L77.0886 26.1958ZM67.1922 18.6312L73.6072 25.0347L70.4547 28.1816C69.3834 26.7195 68.1915 25.3297 66.8839 24.0244C66.0273 23.1695 65.1343 22.3639 64.2085 21.6094L67.1922 18.6312ZM42.0004 3.28149C44.8892 3.28149 47.2396 5.62628 47.2396 8.50836C47.2396 10.819 45.7287 12.7843 43.641 13.4727V9.68124C43.641 8.77529 42.9065 8.04062 42.0004 8.04062C41.0943 8.04062 40.3598 8.77529 40.3598 9.68124V13.4727C38.2719 12.7843 36.7612 10.819 36.7612 8.50836C36.7612 5.62628 39.1116 3.28149 42.0004 3.28149ZM10.3936 25.0347L16.8086 18.6312L19.7922 21.6094C18.8664 22.3639 17.9734 23.1693 17.1169 24.0244C15.8093 25.3297 14.6174 26.7196 13.5461 28.1816L10.3936 25.0347ZM42.0004 80.719C24.4045 80.719 10.0894 66.4306 10.0894 48.8677C10.0894 31.3048 24.4045 17.0166 42.0004 17.0166C59.5963 17.0166 73.9114 31.305 73.9114 48.8679C73.9114 66.4308 59.5961 80.719 42.0004 80.719Z" fill="#222222"/>
<path d="M42.0005 73.9235C55.8631 73.9235 67.1011 62.7057 67.1011 48.8677C67.1011 35.0298 55.8631 23.812 42.0005 23.812C28.1378 23.812 16.8999 35.0298 16.8999 48.8677C16.8999 62.7057 28.1378 73.9235 42.0005 73.9235Z" fill="#4643D3"/>
<path d="M42 32.1275C41.0939 32.1275 40.3594 31.3929 40.3594 30.4869V29.9273C40.3594 29.0212 41.0939 28.2867 42 28.2867C42.9061 28.2867 43.6406 29.0212 43.6406 29.9273V30.4869C43.6406 31.393 42.9061 32.1275 42 32.1275Z" fill="white"/>
<path d="M42 69.4488C41.0939 69.4488 40.3594 68.7141 40.3594 67.8082V67.2485C40.3594 66.3426 41.0939 65.6079 42 65.6079C42.9061 65.6079 43.6406 66.3426 43.6406 67.2485V67.8082C43.6406 68.7141 42.9061 69.4488 42 69.4488Z" fill="white"/>
<path d="M60.9411 50.5084H60.3813C59.4752 50.5084 58.7407 49.7738 58.7407 48.8678C58.7407 47.9618 59.4752 47.2272 60.3813 47.2272H60.9411C61.8472 47.2272 62.5818 47.9618 62.5818 48.8678C62.5818 49.7739 61.8472 50.5084 60.9411 50.5084Z" fill="white"/>
<path d="M23.6198 50.5084H23.0601C22.1539 50.5084 21.4194 49.7738 21.4194 48.8678C21.4194 47.9618 22.1539 47.2272 23.0601 47.2272H23.6198C24.526 47.2272 25.2605 47.9618 25.2605 48.8678C25.2605 49.7739 24.526 50.5084 23.6198 50.5084Z" fill="white"/>
<path d="M54.998 37.5113C54.5782 37.5113 54.1582 37.351 53.8379 37.0308C53.1973 36.3901 53.1973 35.3513 53.8379 34.7104L54.2336 34.3147C54.8743 33.6742 55.9131 33.6742 56.554 34.3147C57.1946 34.9554 57.1946 35.9942 56.554 36.6351L56.1582 37.0308C55.8377 37.351 55.4178 37.5113 54.998 37.5113Z" fill="white"/>
<path d="M28.6079 63.9011C28.188 63.9011 27.768 63.7409 27.4478 63.4206C26.8071 62.7799 26.8071 61.7411 27.4478 61.1003L27.8435 60.7046C28.4842 60.0641 29.523 60.0641 30.1638 60.7046C30.8045 61.3452 30.8045 62.3841 30.1638 63.0249L29.7681 63.4206C29.4477 63.741 29.0277 63.9011 28.6079 63.9011Z" fill="white"/>
<path d="M55.3937 63.9011C54.9739 63.9011 54.5539 63.7409 54.2336 63.4206L53.8379 63.0249C53.1973 62.3842 53.1973 61.3454 53.8379 60.7046C54.4786 60.0641 55.5174 60.0641 56.1582 60.7046L56.554 61.1003C57.1946 61.7409 57.1946 62.7798 56.554 63.4206C56.2334 63.741 55.8135 63.9011 55.3937 63.9011Z" fill="white"/>
<path d="M29.0036 37.5113C28.5838 37.5113 28.1638 37.351 27.8435 37.0308L27.4478 36.6351C26.8071 35.9944 26.8071 34.9556 27.4478 34.3147C28.0884 33.6742 29.1273 33.6742 29.7681 34.3147L30.1638 34.7104C30.8045 35.3511 30.8045 36.39 30.1638 37.0308C29.8434 37.351 29.4234 37.5113 29.0036 37.5113Z" fill="white"/>
<path d="M51.8131 46.9813H47.6659C47.1184 45.1765 45.6921 43.7501 43.887 43.2026V38.0662C43.887 37.16 43.1525 36.4255 42.2464 36.4255C41.3403 36.4255 40.6058 37.16 40.6058 38.0662V43.2026C38.2814 43.9076 36.5845 46.0704 36.5845 48.6219C36.5845 51.7439 39.1245 54.2839 42.2464 54.2839C44.7981 54.2839 46.9609 52.5872 47.6659 50.2626H51.8131C52.7192 50.2626 53.4537 49.5279 53.4537 48.6219C53.4537 47.716 52.7192 46.9813 51.8131 46.9813ZM42.2464 51.0026C40.9338 51.0026 39.8657 49.9346 39.8657 48.6219C39.8657 47.3093 40.9336 46.2414 42.2464 46.2414C43.5591 46.2414 44.6271 47.3093 44.6271 48.6219C44.627 49.9346 43.5591 51.0026 42.2464 51.0026Z" fill="white"/>
</g>
<defs>
<clipPath id="clip0">
<rect width="84" height="84" fill="white" transform="translate(0 0.000244141)"/>
</clipPath>
</defs>
</svg>
