<svg width="81" height="81" viewBox="0 0 81 81" fill="none" xmlns="http://www.w3.org/2000/svg">
<g clip-path="url(#clip0)">
<path d="M45.7186 77.8362H15.0924V20.9835H23.5218V29.0971C23.5218 29.9709 24.2302 30.6792 25.1038 30.6792C25.9774 30.6792 26.6858 29.9709 26.6858 29.0971V20.9835H48.2899V29.0971C48.2899 29.9709 48.9983 30.6792 49.8719 30.6792C50.7455 30.6792 51.454 29.9709 51.454 29.0971V20.9835H59.6199V37.555C59.6199 38.4287 60.3282 39.137 61.202 39.137C62.0756 39.137 62.784 38.4287 62.784 37.555V19.4015C62.784 18.5277 62.0756 17.8195 61.202 17.8195H51.454V13.8985C51.4538 6.23487 45.1888 0.000244141 37.4878 0.000244141C35.7246 0.000244141 34.0367 0.327092 32.4821 0.923043C30.9274 0.327092 29.2396 0.000244141 27.4764 0.000244141C19.7754 0.000244141 13.5104 6.23487 13.5104 13.8985V17.8195H3.76221C2.88861 17.8195 2.18018 18.5277 2.18018 19.4015V73.4973C2.18018 77.6343 5.55085 81.0002 9.69387 81.0002H51.1213C48.8014 81.0002 46.7794 79.7243 45.7186 77.8362ZM37.4878 3.16431C43.444 3.16431 48.2897 7.97969 48.2897 13.8985V17.8195H41.4424V13.8985C41.4424 9.61029 39.4807 5.76944 36.4035 3.2181C36.7602 3.1825 37.1219 3.16431 37.4878 3.16431ZM32.4821 4.38801C35.9249 6.18456 38.2783 9.77356 38.2783 13.8985V17.8195H26.6858V13.8985C26.6858 9.77356 29.0393 6.18456 32.4821 4.38801ZM16.6744 13.8985C16.6744 7.97969 21.5202 3.16431 27.4764 3.16431C27.8423 3.16431 28.204 3.1825 28.5607 3.21794C25.4835 5.76944 23.5218 9.61013 23.5218 13.8984V17.8193H16.6744V13.8985ZM11.9283 77.8362H9.69387C7.29552 77.8362 5.34424 75.8898 5.34424 73.4973V20.9835H11.9282V77.8362H11.9283Z" fill="#222222"/>
<path d="M72.6274 81.0003H49.5387C46.1187 81.0003 43.3462 78.2278 43.3462 74.8078V45.7876H78.8199V74.8078C78.8199 78.2278 76.0474 81.0003 72.6274 81.0003Z" fill="#FE805C"/>
<path d="M67.8649 55.2037C66.9913 55.2037 66.2828 54.4952 66.2828 53.6216V44.8516C66.2828 41.9986 63.9392 39.6774 61.0587 39.6774C58.1779 39.6774 55.8345 41.9986 55.8345 44.8516V53.6216C55.8345 54.4952 55.126 55.2037 54.2524 55.2037C53.3787 55.2037 52.6704 54.4952 52.6704 53.6216V44.8516C52.6704 40.2538 56.4334 36.5134 61.0587 36.5134C65.6839 36.5134 69.4469 40.2539 69.4469 44.8516V53.6216C69.4469 54.4954 68.7385 55.2037 67.8649 55.2037Z" fill="#222222"/>
</g>
<defs>
<clipPath id="clip0">
<rect width="81" height="81" fill="white" transform="translate(0 0.000244141)"/>
</clipPath>
</defs>
</svg>
