<svg width="86" height="86" viewBox="0 0 86 86" fill="none" xmlns="http://www.w3.org/2000/svg">
<path d="M36.9761 7.71521V27.147H54.6146V47.2154H67.7543L78.0424 53.3948L78.6206 47.2154H85.9996V7.71521H36.9761Z" fill="#FE805C"/>
<path d="M54.6149 25.4673H1.67969C0.751996 25.4673 0 26.2194 0 27.147V69.7989C0 70.7265 0.751996 71.4786 1.67969 71.4786H9.89823L10.2762 76.7262C10.3198 77.3317 10.6867 77.8663 11.2358 78.125C11.4635 78.2323 11.7079 78.2851 11.9513 78.2851C12.2946 78.2851 12.6361 78.1797 12.9254 77.9738L22.0514 71.4785H54.6149C55.5424 71.4785 56.2946 70.7263 56.2946 69.7988V27.147C56.2946 26.2194 55.5426 25.4673 54.6149 25.4673ZM52.9352 68.1193H21.5148C21.1656 68.1193 20.8253 68.2279 20.5407 68.4303L13.4121 73.504L13.1365 69.6782C13.0732 68.7997 12.342 68.1193 11.4612 68.1193H3.35938V28.8267H52.9352V68.1193Z" fill="#222222"/>
<path d="M23.4993 59.6994C23.7116 59.7885 23.9318 59.8308 24.1485 59.8308C24.8048 59.8308 25.4283 59.4436 25.698 58.8006L33.9614 39.1105C34.3204 38.255 33.9181 37.2706 33.0626 36.9116C32.2073 36.5527 31.2229 36.9551 30.8639 37.8104L22.6005 57.5006C22.2416 58.356 22.644 59.3405 23.4993 59.6994Z" fill="#222222"/>
<path d="M21.7905 47.7084C24.7299 47.7084 27.1215 45.0517 27.1215 41.7858C27.1215 38.52 24.7301 35.8631 21.7905 35.8631C18.8508 35.8631 16.4595 38.52 16.4595 41.7858C16.4595 45.0517 18.851 47.7084 21.7905 47.7084ZM21.7905 39.2225C22.8591 39.2225 23.7621 40.3962 23.7621 41.7858C23.7621 43.1751 22.8592 44.349 21.7905 44.349C20.7218 44.349 19.8188 43.1753 19.8188 41.7858C19.8188 40.3962 20.7218 39.2225 21.7905 39.2225Z" fill="#222222"/>
<path d="M29.1738 55.2482C29.1738 58.5138 31.5652 61.1709 34.5048 61.1709C37.4443 61.1709 39.8358 58.514 39.8358 55.2482C39.8358 51.9825 37.4444 49.3254 34.5048 49.3254C31.5652 49.3254 29.1738 51.9825 29.1738 55.2482ZM34.5048 52.6848C35.5734 52.6848 36.4764 53.8586 36.4764 55.2482C36.4764 56.6376 35.5736 57.8116 34.5048 57.8116C33.4362 57.8116 32.5332 56.6378 32.5332 55.2482C32.5332 53.8587 33.436 52.6848 34.5048 52.6848Z" fill="#222222"/>
</svg>
