<svg width="81" height="81" viewBox="0 0 81 81" fill="none" xmlns="http://www.w3.org/2000/svg">
<g clip-path="url(#clip0)">
<path d="M50.6578 74.9493H14.4771V21.047H22.9501V29.195C22.9501 30.0688 23.6584 30.7771 24.5322 30.7771C25.4058 30.7771 26.1142 30.0688 26.1142 29.195V21.047H47.811V29.195C47.811 30.0688 48.5194 30.7771 49.393 30.7771C50.2666 30.7771 50.975 30.0688 50.975 29.195V21.047H59.1836V37.8091H62.3476V19.4649C62.3476 18.5912 61.6392 17.8829 60.7656 17.8829H50.975V13.9422C50.975 6.25465 44.6891 0.000244141 36.9627 0.000244141C35.1917 0.000244141 33.4964 0.328832 31.9351 0.927947C30.3738 0.328832 28.6785 0.000244141 26.9076 0.000244141C19.1809 0.000244141 12.8951 6.25465 12.8951 13.9422V17.8827H3.10449C2.23089 17.8827 1.52246 18.591 1.52246 19.4648V70.5892C1.52246 74.7379 4.9031 78.1132 9.05847 78.1132H55.433C53.8703 77.2698 52.2147 76.2228 50.6578 74.9493ZM36.9627 3.16431C42.9445 3.16431 47.811 7.99931 47.811 13.9422V17.8827H40.9199V13.9422C40.9199 9.63592 38.9476 5.77956 35.8546 3.21999C36.2189 3.18329 36.5887 3.16431 36.9627 3.16431ZM31.9351 4.39323C35.3925 6.19722 37.756 9.80077 37.756 13.9424V17.8829H26.1142V13.9422C26.1142 9.80061 28.4777 6.19722 31.9351 4.39323ZM16.0591 13.9422C16.0591 7.99931 20.9258 3.16431 26.9076 3.16431C27.2816 3.16431 27.6511 3.18313 28.0155 3.22015C24.9224 5.77956 22.95 9.63608 22.95 13.9424V17.8829H16.059V13.9422H16.0591ZM11.313 74.9493H9.05847C6.64777 74.9493 4.68652 72.9934 4.68652 70.5894V21.047H11.313V74.9493Z" fill="#222222"/>
<path d="M74.4878 43.0461C69.7051 43.0461 65.58 40.2571 63.6607 36.2267H58.0359C56.1166 40.2569 51.9914 43.0461 47.2088 43.0461C45.4277 43.0461 43.738 42.6589 42.2188 41.9655V61.6699C42.2188 76.0821 60.8483 81.0001 60.8483 81.0001C60.8483 81.0001 79.4778 76.0821 79.4778 61.6699V41.9655C77.9586 42.6589 76.2686 43.0461 74.4878 43.0461Z" fill="#4643D3"/>
<path d="M60.2368 64.1751C59.8198 64.1751 59.4186 64.0103 59.1215 63.7149L55.6834 60.2963C55.0637 59.6801 55.0609 58.6785 55.6771 58.059C56.293 57.4393 57.2947 57.4364 57.9144 58.0526L60.135 60.2605L65.9043 53.4208C66.4678 52.7528 67.4658 52.6684 68.1336 53.2316C68.8015 53.7949 68.8863 54.793 68.3228 55.461L61.4463 63.6133C61.1612 63.9513 60.748 64.1544 60.3063 64.1737C60.283 64.1746 60.2601 64.1751 60.2368 64.1751Z" fill="white"/>
</g>
<defs>
<clipPath id="clip0">
<rect width="81" height="81" fill="white" transform="translate(0 0.000244141)"/>
</clipPath>
</defs>
</svg>
