<svg width="81" height="81" viewBox="0 0 81 81" fill="none" xmlns="http://www.w3.org/2000/svg">
<path d="M50.6578 74.9491H14.4771V21.0467H22.9501V29.1948C22.9501 30.0686 23.6584 30.7768 24.5322 30.7768C25.4058 30.7768 26.1142 30.0686 26.1142 29.1948V21.0467H47.811V29.1948C47.811 30.0686 48.5194 30.7768 49.393 30.7768C50.2666 30.7768 50.975 30.0686 50.975 29.1948V21.0467H59.1836V37.8088H62.3476V19.4647C62.3476 18.5909 61.6392 17.8826 60.7656 17.8826H50.975V13.942C50.975 6.2544 44.6891 0 36.9627 0C35.1917 0 33.4964 0.328588 31.9351 0.927703C30.3738 0.328588 28.6785 0 26.9076 0C19.1809 0 12.8951 6.2544 12.8951 13.942V17.8825H3.10449C2.23089 17.8825 1.52246 18.5908 1.52246 19.4645V70.589C1.52246 74.7377 4.9031 78.113 9.05847 78.113H55.433C53.8703 77.2696 52.2147 76.2226 50.6578 74.9491ZM36.9627 3.16406C42.9445 3.16406 47.811 7.99907 47.811 13.942V17.8825H40.9199V13.942C40.9199 9.63568 38.9476 5.77932 35.8546 3.21975C36.2189 3.18305 36.5887 3.16406 36.9627 3.16406ZM31.9351 4.39298C35.3925 6.19697 37.756 9.80052 37.756 13.9421V17.8826H26.1142V13.942C26.1142 9.80037 28.4777 6.19697 31.9351 4.39298ZM16.0591 13.942C16.0591 7.99907 20.9258 3.16406 26.9076 3.16406C27.2816 3.16406 27.6511 3.18289 28.0155 3.21991C24.9224 5.77932 22.95 9.63584 22.95 13.9421V17.8826H16.059V13.942H16.0591ZM11.313 74.9491H9.05847C6.64777 74.9491 4.68652 72.9932 4.68652 70.5891V21.0467H11.313V74.9491Z" fill="#222222"/>
<path d="M74.4878 43.0458C69.7051 43.0458 65.58 40.2569 63.6607 36.2265H58.0359C56.1166 40.2567 51.9914 43.0458 47.2088 43.0458C45.4277 43.0458 43.738 42.6587 42.2188 41.9653V61.6697C42.2188 76.0818 60.8483 80.9999 60.8483 80.9999C60.8483 80.9999 79.4778 76.0818 79.4778 61.6697V41.9653C77.9586 42.6587 76.2686 43.0458 74.4878 43.0458Z" fill="#4643D3"/>
<path d="M60.2368 64.1749C59.8198 64.1749 59.4186 64.01 59.1215 63.7147L55.6834 60.2961C55.0637 59.6799 55.0609 58.6783 55.6771 58.0588C56.293 57.4391 57.2947 57.4362 57.9144 58.0524L60.135 60.2603L65.9043 53.4206C66.4678 52.7526 67.4658 52.6681 68.1336 53.2313C68.8015 53.7947 68.8863 54.7928 68.3228 55.4607L61.4463 63.6131C61.1612 63.951 60.748 64.1542 60.3063 64.1735C60.283 64.1744 60.2601 64.1749 60.2368 64.1749Z" fill="white"/>
</svg>
