<svg width="34" height="36" viewBox="0 0 34 36" fill="none" xmlns="http://www.w3.org/2000/svg">
<path d="M33.1417 22.6395C31.5875 19.9475 28.1509 19.0262 25.4584 20.5808L22.6025 22.2296V16.124C22.6025 15.3692 22.3528 14.6201 21.8994 14.0148L18.384 9.32766V7.33177C19.2023 7.04152 19.7902 6.26006 19.7902 5.3434V2.10923C19.79 0.946195 18.8438 0 17.6808 0H5.02518C3.86214 0 2.91587 0.946195 2.91587 2.10923V5.34347C2.91587 6.25999 3.50376 7.04159 4.32205 7.33184V9.32773L0.806359 14.0151C0.353125 14.6202 0.103516 15.3692 0.103516 16.124V29.7407C0.103516 31.6792 1.68055 33.2561 3.61893 33.2561H14.9183C16.4948 35.8987 19.8941 36.7831 22.5587 35.2445L31.0831 30.3228C33.7518 28.7817 34.7038 25.3462 33.1417 22.6395ZM4.32205 2.10923C4.32205 1.72153 4.63748 1.40611 5.02511 1.40611H17.6807C18.0684 1.40611 18.3839 1.72153 18.3839 2.10923V5.34347C18.3839 5.73117 18.0684 6.04652 17.6807 6.04652H5.02518C4.63748 6.04652 4.32212 5.7311 4.32212 5.34347V2.10923H4.32205ZM1.93164 14.8584L5.58761 9.98388C5.67887 9.86224 5.72823 9.71416 5.72823 9.56201V7.45277H16.9777V8.85895H10.6499C10.2616 8.85895 9.94677 9.17381 9.94677 9.56208C9.94677 9.95034 10.2616 10.2652 10.6499 10.2652H17.3292L20.7741 14.8582C20.9992 15.1587 21.139 15.5184 21.1813 15.8899H1.52467C1.56686 15.5183 1.70671 15.1587 1.93164 14.8584ZM3.619 31.8499C2.45596 31.8499 1.50977 30.9037 1.50977 29.7407V29.0306H14.2838C14.0608 29.9422 14.0623 30.9159 14.3176 31.85H3.619V31.8499ZM14.8352 27.6314H1.5097V17.296H21.1962V23.0414L16.9339 25.5025C16.0453 26.0158 15.3269 26.7466 14.8352 27.6314ZM21.8557 34.0267C19.838 35.1918 17.2596 34.5028 16.0937 32.4836C14.9222 30.445 15.6322 27.8783 17.6372 26.7202L21.4536 24.5167L25.6721 31.8232L21.8557 34.0267ZM30.38 29.1051L26.8899 31.1202L22.6713 23.8135L26.1615 21.7986C28.1806 20.633 30.758 21.3232 31.9239 23.3425C33.095 25.3718 32.3829 27.9485 30.38 29.1051Z" fill="black"/>
</svg>
