<svg width="56" height="56" viewBox="0 0 56 56" fill="none" xmlns="http://www.w3.org/2000/svg">
<rect width="56" height="56" rx="7" fill="#FCC250" fill-opacity="0.388549"/>
<path d="M43.7079 15.2931C43.5208 15.1061 43.2637 15 43.0005 15C42.7364 15 42.4793 15.1061 42.2921 15.2931C42.1061 15.479 42 15.736 42 16C42 16.263 42.1061 16.521 42.2921 16.707C42.4792 16.893 42.7363 17 43.0005 17C43.2636 17 43.5208 16.8931 43.7079 16.707C43.894 16.521 44 16.2631 44 16C44 15.736 43.894 15.479 43.7079 15.2931Z" fill="black"/>
<path d="M26.7079 33.2931C26.5209 33.1061 26.2637 33 26.0005 33C25.7364 33 25.4792 33.1061 25.2921 33.2931C25.1061 33.479 25 33.736 25 34C25 34.263 25.1061 34.5209 25.2921 34.707C25.4792 34.893 25.7363 35 26.0005 35C26.2636 35 26.5208 34.8931 26.7079 34.707C26.894 34.521 27 34.2631 27 34C27.0001 33.736 26.8941 33.479 26.7079 33.2931Z" fill="black"/>
<path fill-rule="evenodd" clip-rule="evenodd" d="M44.5023 17.5882C44.8585 17.3829 45.3118 17.5091 45.5144 17.8703C48.0485 22.386 47.2839 28.1081 43.6545 31.7852L42.2151 33.2438C42.1551 33.3046 42.0871 33.352 42.0149 33.3877C41.8787 33.7229 41.6766 34.0369 41.4083 34.3088C40.88 34.8442 40.1776 35.139 39.4306 35.139C39.3928 35.139 39.3552 35.1377 39.3177 35.1362C39.3475 35.8993 39.0761 36.6723 38.5024 37.2536C37.9742 37.7889 37.2717 38.0838 36.5247 38.0838C36.4869 38.0838 36.4493 38.0825 36.4118 38.081C36.4416 38.8441 36.1702 39.6171 35.5966 40.1984C35.0513 40.751 34.3349 41.0273 33.6186 41.0273C33.5719 41.0273 33.5252 41.0259 33.4786 41.0236C33.5164 41.796 33.2451 42.5812 32.6642 43.1698C32.136 43.7052 31.4335 44 30.6865 44C29.9394 44 29.237 43.7052 28.7087 43.1698L27.3075 41.75L26.2701 42.8013C25.7419 43.3366 25.0395 43.6315 24.2924 43.6315C23.5453 43.6315 22.8429 43.3366 22.3146 42.8013C21.7406 42.2196 21.4692 41.446 21.4993 40.6826C21.4617 40.6841 21.4241 40.6853 21.3865 40.6853C20.6702 40.6853 19.954 40.409 19.4087 39.8565C18.8803 39.3211 18.5894 38.6093 18.5894 37.8523C18.5894 37.814 18.5906 37.7759 18.5921 37.7379C18.5549 37.7394 18.5177 37.7406 18.4805 37.7406C17.7642 37.7407 17.0481 37.4644 16.5027 36.9118C15.9744 36.3764 15.6835 35.6646 15.6835 34.9076C15.6835 34.8693 15.6847 34.8312 15.6862 34.7932C15.649 34.7947 15.6118 34.7959 15.5746 34.7959C14.8583 34.7959 14.1423 34.5197 13.5968 33.9671C13.1068 33.4705 12.8377 32.834 12.7881 32.1832C12.731 32.1505 12.677 32.1102 12.6283 32.061L12.3485 31.7775C10.1892 29.5893 9 26.68 9 23.5854C9 20.4909 10.1891 17.5814 12.3485 15.3932C14.5079 13.2051 17.3789 12 20.4327 12C23.2515 12 25.914 13.0274 28.0054 14.9063C29.7078 13.3786 31.7847 12.4158 34.0537 12.1097C36.4783 11.7824 38.9851 12.261 41.1128 13.4567C41.4713 13.6582 41.6007 14.1161 41.4019 14.4794C41.203 14.8427 40.7512 14.9736 40.3927 14.7723C36.5352 12.604 31.6595 13.3 28.5365 16.4648L23.4261 21.6434C22.7613 22.317 22.7613 23.413 23.4261 24.0866C24.0908 24.7603 25.1724 24.7603 25.8371 24.0866L28.0755 21.8183C28.2148 21.6773 28.4036 21.598 28.6004 21.598H31.5244C32.4961 21.598 33.4097 21.2145 34.0969 20.5182L35.5596 19.0359C35.8496 18.7422 36.3194 18.7422 36.6093 19.0359C36.8992 19.3296 36.8992 19.8059 36.6093 20.0996L35.1466 21.5819C34.7421 21.9919 34.2812 22.3236 33.7825 22.5723L41.4089 30.3004C41.6959 30.5912 41.9066 30.9303 42.0425 31.2919L42.6053 30.7215C45.7632 27.5216 46.4288 22.5427 44.2241 18.6139C44.0214 18.2528 44.146 17.7936 44.5023 17.5882ZM14.6465 32.9033C14.8945 33.1546 15.2241 33.2929 15.5747 33.2929C15.9254 33.2929 16.2549 33.1545 16.5028 32.9034L17.7819 31.6071C18.2937 31.0886 18.2937 30.2448 17.7819 29.7261C17.534 29.4749 17.2043 29.3366 16.8538 29.3366C16.5032 29.3366 16.1735 29.4749 15.9256 29.7261L14.6465 31.0223C14.3985 31.2735 14.262 31.6076 14.262 31.9628C14.262 32.3181 14.3986 32.6521 14.6465 32.9033ZM17.5526 35.8482C17.3046 35.597 17.1682 35.2629 17.1682 34.9077C17.1682 34.5524 17.3046 34.2184 17.5526 33.9672L18.8318 32.6709V32.6708C19.0797 32.4196 19.4093 32.2812 19.7599 32.2812C20.1104 32.2812 20.4401 32.4196 20.688 32.6708C21.1998 33.1895 21.1998 34.0333 20.688 34.5518L19.4089 35.8481C18.897 36.3666 18.0641 36.3666 17.5526 35.8482ZM20.074 37.8523C20.074 38.2076 20.2105 38.5416 20.4585 38.7928C20.9703 39.3115 21.803 39.3115 22.3147 38.7928L23.5939 37.4966C24.1057 36.978 24.1057 36.1343 23.5939 35.6155C23.346 35.3643 23.0164 35.2259 22.6658 35.2259C22.3152 35.2259 21.9856 35.3643 21.7377 35.6155V35.6156L20.4585 36.9118C20.2105 37.163 20.074 37.4971 20.074 37.8523ZM26.4998 40.4414L25.2207 41.7378C24.9728 41.989 24.6432 42.1273 24.2926 42.1273C23.942 42.1273 23.6124 41.989 23.3645 41.7378C22.8527 41.219 22.8527 40.3753 23.3645 39.8567L24.6436 38.5604V38.5604C24.8915 38.3092 25.2211 38.1708 25.5717 38.1708C25.9223 38.1708 26.252 38.3091 26.4998 38.5604C26.7478 38.8116 26.8843 39.1457 26.8843 39.5009C26.8844 39.8563 26.7478 40.1902 26.4998 40.4414ZM39.4311 33.6347C39.7816 33.6347 40.1113 33.4964 40.3592 33.2451C40.8709 32.7266 40.8709 31.8828 40.3596 31.3639L32.1656 23.0607C31.9546 23.0872 31.7409 23.1022 31.5248 23.1022H28.9084L26.8873 25.1503C26.2655 25.7804 25.4487 26.0954 24.632 26.0954C23.8153 26.0954 22.9985 25.7803 22.3767 25.1503C21.7743 24.5398 21.4426 23.7282 21.4426 22.8649C21.4426 22.0016 21.7743 21.19 22.3767 20.5796L26.938 15.9574C25.1313 14.3703 22.8479 13.5042 20.4331 13.5042C17.7759 13.5042 15.2776 14.5528 13.3987 16.4569C11.5196 18.3609 10.4848 20.8925 10.4848 23.5853C10.4848 26.1741 11.4418 28.6137 13.1853 30.4903C13.299 30.3009 13.4358 30.122 13.5971 29.9585L14.8762 28.6623C15.9668 27.5572 17.7414 27.5572 18.832 28.6623C19.4056 29.2436 19.6771 30.0166 19.6472 30.7797C19.6848 30.7782 19.7223 30.7769 19.7601 30.7769C20.5071 30.7769 21.2095 31.0717 21.7379 31.6071C22.3115 32.1884 22.5829 32.9614 22.5531 33.7245C22.5907 33.7229 22.6282 33.7217 22.666 33.7217C23.413 33.7217 24.1154 34.0165 24.6438 34.5518C25.2174 35.1331 25.4888 35.9061 25.459 36.6692C25.4966 36.6677 25.5341 36.6664 25.5719 36.6664C26.3189 36.6664 27.0213 36.9613 27.5497 37.4966C28.078 38.0319 28.3689 38.7437 28.3689 39.5008C28.3689 39.852 28.3055 40.1933 28.1857 40.5119L29.7588 42.106C30.0067 42.3573 30.3363 42.4956 30.6869 42.4956C31.0374 42.4956 31.3671 42.3573 31.615 42.106C32.1268 41.5874 32.1268 40.7436 31.615 40.2249L27.4809 36.0357C27.191 35.742 27.191 35.2656 27.4809 34.972C27.7708 34.6783 28.2407 34.6783 28.5306 34.972L29.4118 35.8649C29.4802 35.9 29.5444 35.946 29.6015 36.0038L32.6911 39.1347C33.2027 39.6533 34.0355 39.6533 34.5474 39.1347C35.0591 38.6161 35.0591 37.7722 34.5473 37.2535L31.4577 34.1228L31.4571 34.1221L28.5517 31.178C28.2619 30.8842 28.2619 30.4079 28.5517 30.1142C28.8417 29.8206 29.3116 29.8206 29.6014 30.1142L35.597 36.1898C35.8449 36.441 36.1745 36.5793 36.5251 36.5793C36.8756 36.5793 37.2053 36.441 37.4532 36.1898C37.965 35.6712 37.965 34.8274 37.4532 34.3087L31.4577 28.2332C31.1678 27.9395 31.1678 27.4632 31.4577 27.1695C31.7476 26.8758 32.2175 26.8758 32.5074 27.1695L35.4131 30.114L35.4135 30.1144L38.503 33.2451C38.7509 33.4964 39.0805 33.6347 39.4311 33.6347Z" fill="black"/>
</svg>
