<svg width="56" height="56" viewBox="0 0 56 56" fill="none" xmlns="http://www.w3.org/2000/svg">
<rect width="56" height="56" rx="7" fill="#76D1AD" fill-opacity="0.39"/>
<path d="M24.707 25.293C24.5211 25.107 24.2631 25 24 25C23.737 25 23.479 25.107 23.2931 25.293C23.107 25.479 23 25.737 23 26C23 26.263 23.1071 26.521 23.2931 26.707C23.479 26.893 23.737 27 24 27C24.2631 27 24.5211 26.893 24.707 26.707C24.8931 26.521 25 26.263 25 26C25 25.737 24.893 25.479 24.707 25.293Z" fill="black"/>
<path d="M37.3645 18H14.6355C14.2846 18 14 18.2824 14 18.626V23.6028C14 23.9464 14.2846 24.2249 14.6355 24.2249H16.6655C16.9769 24.2249 17.2425 24.004 17.2927 23.7032L17.621 21.7365H23.3308V24.4038C23.3308 24.7474 23.6154 25.0259 23.9664 25.0259C24.3173 25.0259 24.6019 24.7474 24.6019 24.4038V21.1144C24.6019 20.7708 24.3173 20.4923 23.9664 20.4923H17.0808C16.7694 20.4923 16.5038 20.7132 16.4536 21.0141L16.1253 22.9807H15.271V19.2442H36.729V22.9807H35.8747L35.5464 21.0141C35.4962 20.7132 35.2306 20.4923 34.9192 20.4923H28.0337C27.6828 20.4923 27.3982 20.7708 27.3982 21.1144V40.8856C27.3982 41.2292 27.6828 41.5077 28.0337 41.5077H32.3169V42.7558H19.6832V41.5077H23.9664C24.3173 41.5077 24.6019 41.2292 24.6019 40.8856V29.3391C24.6019 28.9955 24.3173 28.717 23.9664 28.717C23.6154 28.717 23.3308 28.9955 23.3308 29.3391V40.2635H19.0477C18.6967 40.2635 18.4121 40.542 18.4121 40.8856V43.3779C18.4121 43.7215 18.6967 44 19.0477 44H32.9524C33.3034 44 33.5879 43.7215 33.5879 43.3779V40.8856C33.5879 40.542 33.3033 40.2635 32.9524 40.2635H28.6692V21.7365H34.379L34.7073 23.7032C34.7576 24.004 35.0231 24.2249 35.3345 24.2249H37.3645C37.7154 24.2249 38 23.9464 38 23.6028V18.6221C38 18.2785 37.7154 18 37.3645 18Z" fill="black"/>
<path d="M41.7069 34.2921C41.521 34.1061 41.263 34 41 34C40.737 34 40.479 34.1061 40.293 34.2921C40.107 34.4792 40 34.7364 40 34.9995C40 35.2626 40.1069 35.5208 40.293 35.7069C40.479 35.8939 40.737 36 41 36C41.263 36 41.521 35.8939 41.7069 35.7069C41.8929 35.5208 42 35.2626 42 34.9995C42 34.7364 41.893 34.4782 41.7069 34.2921Z" fill="black"/>
<path d="M42.8145 41.8282C42.5673 41.6088 42.1664 41.6088 41.919 41.8282L41.6334 42.0816V38.5619C41.6334 38.2516 41.3498 38 41.0001 38C40.6504 38 40.3668 38.2516 40.3668 38.5619V42.0816L40.0811 41.8282C39.8338 41.6088 39.4329 41.6088 39.1855 41.8282C38.9382 42.0476 38.9382 42.4034 39.1855 42.6228L40.5522 43.8354C40.6759 43.9452 40.8379 44 41 44C41.1621 44 41.3241 43.9452 41.4478 43.8354L42.8145 42.6228C43.0618 42.4034 43.0618 42.0476 42.8145 41.8282Z" fill="black"/>
<path d="M42.8145 19.4911L41.4478 18.1781C41.2005 17.9406 40.7996 17.9406 40.5522 18.1781L39.1855 19.4911C38.9382 19.7286 38.9382 20.1138 39.1855 20.3515C39.4328 20.589 39.8337 20.589 40.0811 20.3515L40.3667 20.0771V32.3916C40.3667 32.7276 40.6503 33 41 33C41.3497 33 41.6333 32.7276 41.6333 32.3916V20.0771L41.9189 20.3515C42.0426 20.4702 42.2047 20.5297 42.3667 20.5297C42.5288 20.5297 42.6908 20.4702 42.8145 20.3515C43.0618 20.1139 43.0618 19.7287 42.8145 19.4911Z" fill="black"/>
<path d="M37.8137 13.5522L36.441 12.1855C36.1925 11.9382 35.7899 11.9382 35.5412 12.1855C35.2928 12.4328 35.2928 12.8338 35.5412 13.0811L35.8281 13.3667H16.172L16.4589 13.0811C16.7073 12.8338 16.7073 12.4328 16.4589 12.1855C16.2104 11.9382 15.8077 11.9382 15.5592 12.1855L14.1863 13.5522C13.9379 13.7995 13.9379 14.2004 14.1863 14.4478L15.5592 15.8145C15.6834 15.9382 15.8462 16 16.009 16C16.1718 16 16.3346 15.9381 16.4588 15.8145C16.7072 15.5672 16.7072 15.1662 16.4588 14.9189L16.1719 14.6333H35.8281L35.5412 14.9189C35.2928 15.1662 35.2928 15.5672 35.5412 15.8145C35.6654 15.9382 35.8282 16 35.991 16C36.1538 16 36.3166 15.9381 36.4408 15.8145L37.8137 14.4478C38.0621 14.2005 38.0621 13.7996 37.8137 13.5522Z" fill="black"/>
</svg>
