<svg width="56" height="56" viewBox="0 0 56 56" fill="none" xmlns="http://www.w3.org/2000/svg">
<rect width="56" height="56" rx="7" fill="#2896F7" fill-opacity="0.39"/>
<path fill-rule="evenodd" clip-rule="evenodd" d="M31.258 13.4242C32.3415 13.9897 33.0063 15.0341 32.9999 16.1619C32.9892 17.6409 31.8453 18.9176 30.242 19.2396V25.4295C31.8545 25.7426 33.0042 27.0282 32.9999 28.5136C32.9956 29.9987 31.8385 31.2789 30.2243 31.5849L30.2342 37.7771C31.9825 38.1176 33.1634 39.5915 32.9704 41.1927C32.777 42.794 31.2722 44.0054 29.4834 44C27.6946 43.9945 26.1991 42.7738 26.0181 41.1713C25.8372 39.5691 27.0291 38.1023 28.7803 37.7726L28.7728 31.5852C27.161 31.2738 26.0096 29.9913 26.0092 28.5072C25.9925 27.0138 27.1589 25.7211 28.786 25.4295V19.2396C27.1592 18.9477 25.994 17.655 26.0117 16.1619C26.0053 15.0341 26.6697 13.9897 27.7536 13.4242C28.8371 12.8586 30.1741 12.8586 31.258 13.4242ZM29.4952 14.3258C28.369 14.3261 27.4561 15.148 27.4561 16.1619C27.4575 17.1756 28.37 17.9968 29.4959 17.9978C30.6217 17.9975 31.5346 17.1752 31.5342 16.1613C31.5342 15.1477 30.6213 14.3258 29.4952 14.3258ZM31.5342 40.8525C31.5342 41.8665 30.6213 42.6887 29.4948 42.6887C28.3686 42.6884 27.4557 41.8665 27.4561 40.8522C27.4561 39.8382 28.3693 39.0163 29.4959 39.0167C30.621 39.0183 31.5328 39.8395 31.5342 40.8525ZM29.4948 30.3431C30.621 30.3431 31.5342 29.5212 31.5342 28.5072C31.5328 27.4939 30.621 26.6726 29.4959 26.6714C28.3693 26.671 27.4561 27.4926 27.4561 28.5069C27.4557 29.5208 28.3686 30.3431 29.4948 30.3431Z" fill="black"/>
<path fill-rule="evenodd" clip-rule="evenodd" d="M43.3043 13C43.6885 13 44 13.3388 44 13.7568V19.2432C44 19.6612 43.6885 20 43.3043 20H34.6957C34.3115 20 34 19.6612 34 19.2432V13.7568C34 13.3388 34.3115 13 34.6957 13H43.3043ZM42.6087 14.5135H35.3913V18.4865H42.6087V14.5135Z" fill="black"/>
<path fill-rule="evenodd" clip-rule="evenodd" d="M46.4 25C46.7313 25 47 25.3388 47 25.7568V31.2432C47 31.6612 46.7313 32 46.4 32H35.6C35.2687 32 35 31.6612 35 31.2432V25.7568C35 25.3388 35.2687 25 35.6 25H46.4ZM36.2 30.4865H45.8V26.5135H36.2V30.4865Z" fill="black"/>
<path fill-rule="evenodd" clip-rule="evenodd" d="M43.3043 37C43.6885 37 44 37.3388 44 37.7568V43.2432C44 43.6612 43.6885 44 43.3043 44H34.6957C34.3115 44 34 43.6612 34 43.2432V37.7568C34 37.3388 34.3115 37 34.6957 37H43.3043ZM35.3913 42.4865H42.6087V38.5135H35.3913V42.4865Z" fill="black"/>
<path fill-rule="evenodd" clip-rule="evenodd" d="M16.6938 21.0316L23.5575 23.2283C23.8266 23.317 24.0059 23.5695 23.9998 23.8507V33.1493C24.0063 33.4302 23.8273 33.6827 23.5585 33.7714L16.7032 35.9684C16.6385 35.9895 16.5709 36 16.5026 36C16.4353 36 16.3684 35.9895 16.3043 35.9684L9.44129 33.7717C9.17215 33.6827 8.99348 33.4302 9.00024 33.1493V23.8507C8.99252 23.5701 9.17087 23.3173 9.43936 23.2283L16.2927 21.0316C16.4231 20.9895 16.5635 20.9895 16.6938 21.0316ZM21.2219 23.8507L16.4987 22.3403L11.7756 23.8507L16.4987 25.3608L21.2219 23.8507ZM10.3189 24.7482L15.7583 26.4977V34.4229L10.3189 32.6734V24.7482ZM17.0769 26.5498V34.4749L22.6812 32.6734V24.7482L17.0769 26.5498Z" fill="black"/>
</svg>
