<svg width="48" height="48" viewBox="0 0 48 48" fill="none" xmlns="http://www.w3.org/2000/svg">
<path d="M23.25 14.25H39V24.75H23.25V14.25Z" fill="#CC9059"/>
<path d="M24 22.5C32.2843 22.5 39 18.8063 39 14.25C39 9.69365 32.2843 6 24 6C15.7157 6 9 9.69365 9 14.25C9 18.8063 15.7157 22.5 24 22.5Z" fill="#CC9059"/>
<path d="M24 17.25C28.1421 17.25 31.5 15.9069 31.5 14.25C31.5 12.5931 28.1421 11.25 24 11.25C19.8579 11.25 16.5 12.5931 16.5 14.25C16.5 15.9069 19.8579 17.25 24 17.25Z" fill="#E8732D"/>
<path d="M45.75 27.75V33H24C15.7153 33 9 29.3062 9 24.75V14.25C9 16.7587 11.0363 19.0059 14.25 20.5191C14.7244 20.7431 15.2259 20.9503 15.75 21.1406C16.4867 21.407 17.2379 21.6315 18 21.8128C18.4875 21.9309 18.9875 22.0341 19.5 22.1222C20.2275 22.2478 20.9794 22.3444 21.75 22.4081C22.2431 22.4484 22.7428 22.4766 23.25 22.4897C23.4984 22.4963 23.7484 22.4997 24 22.5H40.5C41.1896 22.4993 41.8726 22.6346 42.5099 22.8982C43.1472 23.1618 43.7262 23.5485 44.2139 24.0361C44.7015 24.5238 45.0882 25.1028 45.3518 25.7401C45.6154 26.3774 45.7507 27.0604 45.75 27.75Z" fill="#CC9059"/>
<path d="M45.75 27.75V36.75C45.75 38.1424 45.1969 39.4777 44.2123 40.4623C43.2277 41.4469 41.8924 42 40.5 42H2.25V33H40.5C41.1895 33.0001 41.8722 32.8644 42.5092 32.6005C43.1462 32.3367 43.725 31.95 44.2125 31.4625C44.7 30.975 45.0867 30.3962 45.3505 29.7592C45.6143 29.1222 45.7501 28.4395 45.75 27.75Z" fill="#CC9059"/>
<path d="M2.25 33H12V42H2.25V33Z" fill="#B3B2B3"/>
<path d="M4.5 35.25H6V39.75H4.5V35.25Z" fill="black"/>
<path d="M7.5 35.25H9V36.75H7.5V35.25Z" fill="black"/>
<path d="M7.5 38.25H9V39.75H7.5V38.25Z" fill="black"/>
<path d="M18.4181 17.0677C19.9212 17.6689 21.9036 18 24 18C26.0964 18 28.0788 17.6689 29.5819 17.0677C31.3025 16.3794 32.25 15.3788 32.25 14.25C32.25 13.1212 31.3025 12.1206 29.5819 11.4323C28.0788 10.8311 26.0964 10.5 24 10.5C21.9036 10.5 19.9212 10.8311 18.4181 11.4323C16.6975 12.1206 15.75 13.1212 15.75 14.25C15.75 15.3788 16.6975 16.3794 18.4181 17.0677ZM24 12C28.1205 12 30.75 13.3326 30.75 14.25C30.75 15.1674 28.1205 16.5 24 16.5C19.8795 16.5 17.25 15.1674 17.25 14.25C17.25 13.3326 19.8795 12 24 12Z" fill="black"/>
<path d="M40.5 21.75H39.75V14.25C39.75 11.7604 38.0517 9.45525 34.968 7.75922C32.026 6.14109 28.1308 5.25 24 5.25C19.8692 5.25 15.974 6.14062 13.032 7.75922C9.94828 9.45525 8.25 11.7604 8.25 14.25V24.75C8.25 27.2396 9.94828 29.5447 13.032 31.2408C13.7412 31.6281 14.4767 31.9653 15.233 32.25H2.25C2.05109 32.25 1.86032 32.329 1.71967 32.4697C1.57902 32.6103 1.5 32.8011 1.5 33V42C1.5 42.1989 1.57902 42.3897 1.71967 42.5303C1.86032 42.671 2.05109 42.75 2.25 42.75H40.5C42.0908 42.7482 43.6158 42.1155 44.7407 40.9907C45.8655 39.8658 46.4982 38.3408 46.5 36.75V27.75C46.4982 26.1592 45.8655 24.6342 44.7407 23.5093C43.6158 22.3845 42.0908 21.7518 40.5 21.75ZM10.5 41.25H3V33.75H10.5V41.25ZM38.25 21.75H32.767C33.5233 21.4653 34.2588 21.1281 34.968 20.7408C36.35 19.9808 37.4524 19.098 38.25 18.1315V21.75ZM13.7549 9.0735C16.4791 7.575 20.1176 6.75 24 6.75C27.8824 6.75 31.5209 7.575 34.2451 9.0735C36.8277 10.494 38.25 12.3323 38.25 14.25C38.25 16.1677 36.8277 18.006 34.2451 19.4265C31.5209 20.925 27.8824 21.75 24 21.75C20.1176 21.75 16.4791 20.925 13.7549 19.4265C11.1723 18.006 9.75 16.1677 9.75 14.25C9.75 12.3323 11.1723 10.494 13.7549 9.0735ZM13.7549 29.9265C11.1723 28.506 9.75 26.6677 9.75 24.75V18.1312C10.5469 19.0977 11.65 19.9805 13.032 20.7405C13.4216 20.9548 13.8276 21.1561 14.25 21.3444V24.75H15.75V21.9385C16.4879 22.1941 17.239 22.41 18 22.5854V24.75H19.5V22.8844C20.2334 23.0069 20.9851 23.0992 21.75 23.1605V27.75H23.25V23.2401C23.499 23.2463 23.749 23.2496 24 23.25H25.5V24.75H27V23.25H29.25V24.75H30.75V23.25H33V27.75H34.5V23.25H36.75V24.75H38.25V23.25H40.5V24.75H42V23.508C43.0004 23.8622 43.8434 24.5585 44.3801 25.4739C44.9169 26.3894 45.1128 27.4651 44.9334 28.511C44.7539 29.5569 44.2106 30.5058 43.3994 31.19C42.5881 31.8741 41.5612 32.2496 40.5 32.25H24C20.1176 32.25 16.4791 31.425 13.7549 29.9265ZM45 36.75C44.9986 37.9431 44.5241 39.0869 43.6805 39.9305C42.8369 40.7741 41.6931 41.2486 40.5 41.25H12V33.75H14.25V35.25H15.75V33.75H18V35.25H19.5V33.75H21.75V38.25H23.25V33.75H25.5V35.25H27V33.75H29.25V35.25H30.75V33.75H33V38.25H34.5V33.75H36.75V35.25H38.25V33.75H40.5V35.25H42V33.5602C43.1622 33.2579 44.2072 32.6143 45 31.7122V36.75Z" fill="black"/>
</svg>
