<svg width="50" height="50" viewBox="0 0 50 50" fill="none" xmlns="http://www.w3.org/2000/svg">
<path d="M20.3685 2.34375L10.3302 30.5002C10.2745 30.4946 10.2206 30.4826 10.1641 30.4789C8.01571 30.3379 6.02801 31.6703 5.21776 33.7951L2.7159 40.3549C2.41333 41.1366 2.29179 41.9767 2.36043 42.8122C2.42907 43.6476 2.68609 44.4566 3.11219 45.1785C3.97499 46.6406 5.39989 47.5396 7.0202 47.6465C9.16864 47.7874 11.1564 46.4551 11.9667 44.3303L14.4687 37.7704C14.7713 36.9887 14.8929 36.1486 14.8242 35.3131C14.7556 34.4777 14.4985 33.6687 14.0723 32.9469C13.8892 32.6398 13.6757 32.3519 13.4351 32.0875C14.1758 30.8347 15.2597 29.8201 16.5588 29.1639L20.4465 16.8763C21.9457 12.1439 21.9185 7.05979 20.3685 2.34375ZM11.7252 36.5918L9.22323 43.1504C8.89344 44.0148 8.08475 44.5566 7.21092 44.4997C6.88351 44.4767 6.56689 44.3729 6.28937 44.1977C6.01185 44.0224 5.78208 43.7812 5.62059 43.4954C5.44741 43.2018 5.34297 42.8728 5.31512 42.533C5.28726 42.1933 5.33671 41.8516 5.45975 41.5337L7.9618 34.9746C8.29149 34.1103 9.10018 33.5684 9.97401 33.6252C10.3014 33.6482 10.618 33.752 10.8955 33.9272C11.173 34.1025 11.4028 34.3438 11.5642 34.6296C11.7376 34.9232 11.8421 35.2524 11.87 35.5922C11.8978 35.9321 11.8483 36.2738 11.7252 36.5918Z" fill="#D69F6D"/>
<path d="M27.3105 41.6562C26.9932 38.8262 24.4883 36.751 21.6152 36.8389L13.8281 14.9951L9.31738 2.34375C7.7677 7.05972 7.74037 12.1436 9.23926 16.876L10.8271 21.8936L13.127 29.1641C13.9373 29.5723 14.6687 30.1212 15.2871 30.7852C15.9 31.4431 16.3896 32.2059 16.7324 33.0371L18.6738 37.7598C17.8721 38.2796 17.2238 39.0042 16.7958 39.8584C16.3678 40.7127 16.1757 41.6658 16.2393 42.6191C16.4541 45.5938 19.25 47.9102 22.2988 47.6338C25.1904 47.3711 27.3437 45.0059 27.3437 42.251C27.3438 42.0523 27.3327 41.8537 27.3105 41.6562ZM22.0439 44.5498C20.7353 44.6895 19.5596 43.7695 19.417 42.4961C19.2744 41.2227 20.2178 40.0771 21.5254 39.9385C22.833 39.7998 24.0098 40.7188 24.1533 41.9922C24.2969 43.2656 23.3516 44.4111 22.0439 44.5498Z" fill="#D69F6D"/>
<path d="M27.3428 42.25C27.3428 45.0049 25.1895 47.3701 22.2979 47.6328C19.249 47.9092 16.4531 45.5928 16.2383 42.6182C16.1747 41.6648 16.3669 40.7117 16.7948 39.8575C17.2228 39.0032 17.8712 38.2787 18.6729 37.7588L16.7314 33.0361C16.3886 32.2049 15.899 31.4421 15.2861 30.7842C14.6677 30.1202 13.9363 29.5713 13.126 29.1631L10.8262 21.8926C11.8516 19.7627 12.8516 17.4717 13.8271 14.9941L21.6143 36.8379C24.4873 36.75 26.9922 38.8252 27.3096 41.6553C27.3317 41.8527 27.3428 42.0513 27.3428 42.25Z" fill="#D69F6D"/>
<path d="M43.8326 26.6266L35.1562 25V17.9688H30.4688H25.7812V25L17.1049 26.6269C16.0303 26.8283 15.0599 27.3991 14.3617 28.2404C13.6635 29.0817 13.2813 30.1407 13.2812 31.234V43.75H47.6562V31.2337C47.6562 30.1404 47.274 29.0815 46.5758 28.2401C45.8776 27.3988 44.9072 26.8281 43.8326 26.6266Z" fill="#FEC9A3"/>
<path d="M35.1562 23.4375V17.9688H25.7812V23.4375C27.1854 24.3201 28.8102 24.7883 30.4687 24.7883C32.1273 24.7883 33.7521 24.3201 35.1562 23.4375Z" fill="#FEB784"/>
<path d="M47.6562 31.2334V44.5313C47.6562 45.3601 47.327 46.1549 46.741 46.741C46.1549 47.327 45.3601 47.6563 44.5312 47.6563H16.4062C16.2206 47.6564 16.0353 47.64 15.8525 47.6074H15.8516C15.1306 47.477 14.4784 47.0976 14.0086 46.5354C13.5389 45.9732 13.2814 45.2639 13.2813 44.5313V31.2344C13.2812 30.1411 13.6633 29.0821 14.3615 28.2408C15.0596 27.3994 16.0299 26.8285 17.1045 26.627L24.2188 25.293L25.7812 25L30.4688 26.6084L35.1562 25L39.8438 25.8789L43.833 26.627C43.9414 26.6475 44.0479 26.6709 44.1523 26.6982C45.1558 26.9601 46.0441 27.5473 46.6781 28.368C47.3121 29.1886 47.6562 30.1963 47.6562 31.2334Z" fill="#E0E0DE"/>
<path d="M27.3438 39.8438V25.5362L25.7812 25L24.2188 25.293V39.8438H27.3438Z" fill="#D6D6D4"/>
<path d="M47.6553 31.2324V44.5303C47.6553 45.3591 47.326 46.1539 46.74 46.74C46.1539 47.326 45.3591 47.6553 44.5303 47.6553H16.4053C16.2196 47.6554 16.0343 47.6391 15.8516 47.6064C25.2783 45.8213 39.8008 40.7773 44.1514 26.6973C45.1548 26.9591 46.0431 27.5463 46.6771 28.367C47.3112 29.1876 47.6552 30.1954 47.6553 31.2324Z" fill="#D6D6D4"/>
<path d="M28.9062 26.6094H32.0312V47.6569H28.9062V26.6094Z" fill="#3D4D63"/>
<path d="M28.9062 27.3444V29.3757L30.4687 28.1257L32.0312 29.3757V27.3444L30.4687 26.6094L28.9062 27.3444Z" fill="#374559"/>
<path d="M42.9688 35.9375L38.2812 38.2812L13.2812 39.8438V44.5312C13.2812 45.3601 13.6105 46.1549 14.1965 46.741C14.7826 47.327 15.5774 47.6562 16.4062 47.6562H20.3125L39.0468 43.6403L43.75 42.9688H47.6562V35.9375H42.9688Z" fill="#FEB784"/>
<path d="M22.6562 38.2812L17.9688 35.9375H13.2812V42.9688H17.1875L21.8907 43.6406L22.6562 43.75L40.625 47.6562H44.5312C45.3601 47.6562 46.1549 47.327 46.741 46.741C47.327 46.1549 47.6562 45.3601 47.6562 44.5312V39.8438L22.6562 38.2812Z" fill="#FEC9A3"/>
<path d="M37.8125 47.6562H35.625C35.5007 47.6562 35.3815 47.6069 35.2935 47.519C35.2056 47.431 35.1562 47.3118 35.1562 47.1875V22.6562C35.9851 22.6562 36.7799 22.9855 37.366 23.5715C37.952 24.1576 38.2813 24.9524 38.2813 25.7812V47.1875C38.2813 47.3118 38.2319 47.431 38.144 47.519C38.0561 47.6069 37.9368 47.6562 37.8125 47.6562Z" fill="#D69F6D"/>
<path d="M35.1563 33.5938V47.1875C35.1562 47.3118 35.2056 47.431 35.2935 47.519C35.3815 47.6069 35.5007 47.6562 35.625 47.6562H37.8125C37.9368 47.6562 38.0561 47.6069 38.144 47.519C38.2319 47.431 38.2813 47.3118 38.2813 47.1875V30.4688L35.1563 33.5938Z" fill="#D69F6D"/>
<path d="M35.1562 46.0938H38.2813V47.1875C38.2813 47.3118 38.2319 47.431 38.144 47.519C38.0561 47.6069 37.9368 47.6562 37.8125 47.6562H35.625C35.5007 47.6562 35.3815 47.6069 35.2935 47.519C35.2056 47.431 35.1562 47.3118 35.1562 47.1875V46.0938Z" fill="#E0E0DE"/>
<path d="M25.7812 22.6562V40.9375C25.7812 40.9991 25.7691 41.06 25.7456 41.1169C25.722 41.1738 25.6875 41.2254 25.644 41.269C25.6004 41.3125 25.5488 41.347 25.4919 41.3706C25.435 41.3941 25.3741 41.4062 25.3125 41.4062H23.125C23.0634 41.4062 23.0025 41.3941 22.9456 41.3706C22.8887 41.347 22.8371 41.3125 22.7935 41.269C22.75 41.2254 22.7155 41.1738 22.6919 41.1169C22.6684 41.06 22.6562 40.9991 22.6562 40.9375V25.7812C22.6563 24.9524 22.9855 24.1576 23.5715 23.5715C24.1576 22.9855 24.9524 22.6562 25.7812 22.6562Z" fill="#D69F6D"/>
<path d="M22.6562 38.2812V40.9375C22.6562 40.9991 22.6684 41.06 22.6919 41.1169C22.7155 41.1738 22.75 41.2254 22.7935 41.269C22.8371 41.3125 22.8887 41.347 22.9456 41.3706C23.0025 41.3941 23.0634 41.4062 23.125 41.4062H25.3125C25.3741 41.4062 25.435 41.3941 25.4919 41.3706C25.5488 41.347 25.6004 41.3125 25.644 41.269C25.6875 41.2254 25.722 41.1738 25.7456 41.1169C25.7691 41.06 25.7812 40.9991 25.7812 40.9375V35.1562L22.6562 38.2812Z" fill="#FFA912"/>
<path d="M22.6562 39.8438H25.7812V40.9375C25.7812 40.9991 25.7691 41.06 25.7456 41.1169C25.722 41.1738 25.6875 41.2254 25.644 41.269C25.6004 41.3125 25.5488 41.347 25.4919 41.3706C25.435 41.3941 25.3741 41.4062 25.3125 41.4062H23.125C23.0634 41.4062 23.0025 41.3941 22.9456 41.3706C22.8887 41.347 22.8371 41.3125 22.7935 41.269C22.75 41.2254 22.7155 41.1738 22.6919 41.1169C22.6684 41.06 22.6562 40.9991 22.6562 40.9375V39.8438Z" fill="#E0E0DE"/>
<path d="M23.4375 41.4062H25.3125C25.3741 41.4062 25.435 41.3941 25.4919 41.3706C25.5488 41.347 25.6004 41.3125 25.644 41.269C25.6875 41.2254 25.722 41.1738 25.7456 41.1169C25.7691 41.06 25.7812 40.9991 25.7812 40.9375V39.8438H25L23.4375 41.4062Z" fill="#D6D6D4"/>
<path d="M35.9375 47.6562H37.8125C37.9368 47.6562 38.0561 47.6069 38.144 47.519C38.2319 47.431 38.2813 47.3118 38.2813 47.1875V46.0938H37.5L35.9375 47.6562Z" fill="#D6D6D4"/>
<path d="M24.2188 41.4062V42.439C24.2188 42.5795 24.2746 42.7142 24.3739 42.8136C24.4733 42.9129 24.608 42.9688 24.7485 42.9688H26.814C26.9545 42.9688 27.0892 42.9129 27.1886 42.8136C27.2879 42.7142 27.3438 42.5795 27.3438 42.439V38.5742L25.7812 38.4766V40.9375C25.7812 40.9991 25.7691 41.06 25.7456 41.1169C25.722 41.1738 25.6875 41.2254 25.644 41.269C25.6004 41.3125 25.5488 41.347 25.4919 41.3706C25.435 41.3941 25.3741 41.4062 25.3125 41.4062H24.2188Z" fill="#FEC093"/>
<path d="M38.2812 39.2578V47.1467L39.8438 47.4864V39.3555L38.2812 39.2578Z" fill="#FEC093"/>
<path d="M39.8438 25.8789V36.7188H38.2812V25.5859L39.8438 25.8789Z" fill="#D6D6D4"/>
<path d="M30.3223 2.34375L33.2532 6.25H35.1907L32.2598 2.34375H30.3223Z" fill="#82462A"/>
<path d="M25.5703 2.34375L28.6025 6.25H30.5649L27.5326 2.34375H25.5703Z" fill="#82462A"/>
<path d="M37.5 9.375V14.8438C37.5 16.7086 36.7592 18.497 35.4406 19.8156C34.122 21.1342 32.3336 21.875 30.4688 21.875C28.6039 21.875 26.8155 21.1342 25.4969 19.8156C24.1783 18.497 23.4375 16.7086 23.4375 14.8438V9.375C23.4377 7.51024 24.1785 5.72191 25.4971 4.40333C26.8157 3.08475 28.604 2.34391 30.4688 2.34375C30.5557 2.34375 30.6436 2.3457 30.7295 2.34863C32.5479 2.41623 34.2692 3.18608 35.5318 4.49637C36.7944 5.80667 37.4999 7.55539 37.5 9.375Z" fill="#FEC9A3"/>
<path d="M37.499 9.37402V14.8428C37.4987 16.4748 36.9309 18.0559 35.8929 19.3153C34.855 20.5747 33.4115 21.434 31.8096 21.7461C32.623 20.9477 33.2688 19.9949 33.7091 18.9436C34.1495 17.8924 34.3755 16.7638 34.374 15.624V9.37402C34.3731 7.99657 34.0415 6.63948 33.4071 5.4168C32.7728 4.19412 31.8541 3.14158 30.7285 2.34766C32.5469 2.41526 34.2682 3.1851 35.5308 4.4954C36.7934 5.80569 37.4989 7.55441 37.499 9.37402Z" fill="#FEC093"/>
<path d="M37.5 10.1562V16.6855C37.5 17.5319 37.3283 18.3694 36.9951 19.1475L35.7646 22.0166C35.5841 22.4383 35.2837 22.7978 34.9007 23.0504C34.5178 23.3029 34.0691 23.4376 33.6104 23.4375H27.3271C26.8684 23.4377 26.4196 23.3031 26.0367 23.0505C25.6537 22.7979 25.3533 22.4384 25.1729 22.0166L23.9424 19.1475C23.6092 18.3694 23.4375 17.5319 23.4375 16.6855V10.1562L26.3379 15.2314C26.4061 15.351 26.5047 15.4504 26.6238 15.5195C26.7428 15.5886 26.878 15.625 27.0156 15.625H33.9219C34.0846 15.6251 34.2432 15.5739 34.375 15.4785C34.4673 15.4139 34.544 15.3295 34.5996 15.2314L37.5 10.1562Z" fill="#82462A"/>
<path d="M37.5 10.1562V16.6855C37.5 17.5319 37.3283 18.3694 36.9951 19.1475L35.7646 22.0166C35.5841 22.4383 35.2837 22.7978 34.9007 23.0504C34.5178 23.3029 34.0691 23.4376 33.6103 23.4375H29.3652C30.8605 22.7514 32.1274 21.6505 33.0154 20.2657C33.9035 18.8808 34.3753 17.2701 34.375 15.625V15.4785C34.4673 15.4139 34.544 15.3295 34.5996 15.2314L37.5 10.1562Z" fill="#743B20"/>
<path d="M23.4375 11.7188V8.59375C23.4375 6.00488 25.1864 3.90625 27.3438 3.90625L27.2063 4.40117C26.4404 7.1582 25.1501 9.66367 23.4375 11.7188Z" fill="#82462A"/>
<path d="M37.5 11.7196V6.34706C37.5 5.96486 37.4129 5.58768 37.2453 5.24419C37.0777 4.9007 36.834 4.59992 36.5328 4.36471C36.2315 4.1295 35.8806 3.96604 35.5067 3.88675C35.1328 3.80746 34.7458 3.81442 34.375 3.90712V6.25087C34.375 6.25087 35.7874 9.66454 37.5 11.7196Z" fill="#743B20"/>
<path d="M37.5 5.70508V6.25H27.3438C26.3077 6.25 25.3142 5.83845 24.5816 5.10589C23.8491 4.37332 23.4375 3.37975 23.4375 2.34375H34.1387C34.5801 2.34369 35.0172 2.43059 35.4251 2.59949C35.8329 2.76839 36.2035 3.01598 36.5156 3.32812C36.8278 3.64026 37.0754 4.01083 37.2443 4.41868C37.4132 4.82652 37.5001 5.26364 37.5 5.70508Z" fill="#82462A"/>
<path d="M37.499 5.70508V6.25H33.7881C33.1707 4.67534 32.104 3.31694 30.7207 2.34375H34.1377C34.5791 2.34369 35.0163 2.43059 35.4241 2.59949C35.8319 2.76839 36.2025 3.01598 36.5147 3.32812C36.8268 3.64026 37.0744 4.01083 37.2433 4.41868C37.4122 4.82652 37.4991 5.26364 37.499 5.70508Z" fill="#743B20"/>
<path d="M38.2661 10.1563H37.5V14.8438H38.2661C38.5739 14.8458 38.8791 14.7871 39.1642 14.6712C39.4493 14.5553 39.7088 14.3843 39.9278 14.168C40.1469 13.9518 40.3212 13.6946 40.4408 13.411C40.5604 13.1274 40.623 12.823 40.625 12.5152V12.485C40.623 12.1772 40.5605 11.8728 40.4408 11.5892C40.3212 11.3056 40.1469 11.0483 39.9279 10.8321C39.7088 10.6158 39.4493 10.4449 39.1642 10.3289C38.8791 10.213 38.5739 10.1543 38.2661 10.1563Z" fill="#FEB784"/>
<path d="M22.6636 10.1562H22.625C22.0034 10.1562 21.4073 10.4032 20.9677 10.8427C20.5282 11.2823 20.2813 11.8784 20.2812 12.5C20.2813 13.1216 20.5282 13.7177 20.9677 14.1573C21.4073 14.5968 22.0034 14.8438 22.625 14.8438H23.4363V10.1567L22.6636 10.1562Z" fill="#FEB784"/>
<path d="M35.1562 25L30.4688 26.609L34.0096 29.5254L35.1562 25Z" fill="#EBEBE9"/>
<path d="M30.4688 26.6087L25.7812 25L26.9278 29.5252L30.4688 26.6087Z" fill="#EBEBE9"/>
<path d="M43.9788 25.8569L38.9643 24.9203C38.8025 24.1981 38.4385 23.5368 37.9148 23.0139C37.5284 22.6329 37.0678 22.3354 36.5616 22.1399L37.712 19.4554C38.0882 18.5805 38.2817 17.638 38.2807 16.6856V15.625C39.1095 15.625 39.9044 15.2958 40.4904 14.7097C41.0765 14.1237 41.4057 13.3288 41.4057 12.5C41.4057 11.6712 41.0765 10.8763 40.4904 10.2903C39.9044 9.70424 39.1095 9.375 38.2807 9.375V5.70527C38.2807 4.60655 37.8442 3.55283 37.0673 2.77592C36.2904 1.999 35.2366 1.56253 34.1379 1.5625H23.4369C23.2297 1.5625 23.031 1.64481 22.8845 1.79132C22.738 1.93784 22.6557 2.13655 22.6557 2.34375C22.6549 3.38823 23.0048 4.40273 23.6493 5.22461C22.9895 6.22342 22.6435 7.39674 22.6557 8.59375V9.375C22.5468 9.37502 22.4379 9.38072 22.3296 9.39209C22.2995 6.91281 21.8875 4.45297 21.1083 2.09912C21.0573 1.94463 20.9593 1.80993 20.8279 1.71384C20.6966 1.61774 20.5386 1.56504 20.3759 1.56309H20.3667C20.2055 1.56309 20.0483 1.61296 19.9166 1.70585C19.7848 1.79874 19.685 1.9301 19.6309 2.08193L14.8432 15.5097L10.0557 2.08135C10.0016 1.92952 9.90178 1.79815 9.77004 1.70526C9.6383 1.61237 9.48105 1.56251 9.31986 1.5625H9.31009C9.14719 1.56457 8.989 1.61751 8.85768 1.71392C8.72635 1.81034 8.62845 1.94539 8.57767 2.1002C6.9705 6.97006 6.9422 12.2231 8.49681 17.11L11.207 25.696L9.78802 29.6855C7.46605 29.7135 5.37083 31.2102 4.48832 33.5185L1.98753 40.0749C1.64311 40.9668 1.50519 41.925 1.5841 42.8778C1.66302 43.8306 1.95674 44.7531 2.4432 45.5762C3.4348 47.2614 5.0849 48.3008 6.9721 48.4277C7.09287 48.4355 7.21315 48.4395 7.33294 48.4395C9.52171 48.4395 11.5175 47.133 12.4997 45.0687V45.3125C12.5007 46.141 12.8302 46.9353 13.4161 47.5212C14.0019 48.107 14.7962 48.4366 15.6247 48.4375H45.3119C46.1405 48.4366 46.9348 48.107 47.5206 47.5212C48.1065 46.9353 48.436 46.141 48.4369 45.3125V31.2344C48.4373 29.9589 47.9919 28.7234 47.1779 27.7415C46.3638 26.7596 45.2323 26.093 43.9788 25.8569ZM46.8744 39.0121L39.4891 38.5506L43.1527 36.7188H46.8744V39.0121ZM22.8251 42.9873C22.8056 42.983 22.7861 42.9794 22.7665 42.9766L17.2967 42.1953C17.2604 42.1901 17.2237 42.1875 17.1869 42.1875H14.0619V36.7188H17.7837L21.8744 38.7641V41.4062C21.8744 41.6134 21.9568 41.8122 22.1033 41.9587C22.2498 42.1052 22.4485 42.1875 22.6557 42.1875H25.7807C25.9879 42.1875 26.1866 42.1052 26.3331 41.9587C26.4796 41.8122 26.5619 41.6134 26.5619 41.4062V39.3082L34.3744 39.7971V45.4993L22.8251 42.9873ZM17.2445 27.3926L21.8744 26.5281V37.0172L18.3176 35.2388C18.2091 35.1845 18.0895 35.1562 17.9682 35.1562H14.0619V31.2344C14.0614 30.3234 14.3791 29.4409 14.9602 28.7394C15.5413 28.0379 16.3493 27.5615 17.2445 27.3926ZM21.1892 17.1115C21.3591 16.5777 21.5104 16.0228 21.6459 15.4558C21.9709 15.5676 22.3121 15.6248 22.6557 15.625V16.6861C22.6546 17.6384 22.848 18.5809 23.2241 19.4559L24.3744 22.1387C23.7763 22.3694 23.2443 22.7438 22.8253 23.229C22.4063 23.7142 22.1133 24.2951 21.9721 24.9204L18.513 25.5664L21.1892 17.1115ZM24.8229 6.29297C25.061 6.44566 25.3125 6.57641 25.5742 6.68359C25.3043 7.31944 25.0025 7.94128 24.6701 8.54678C24.5273 8.80068 24.3749 9.05137 24.2182 9.30039V8.59375C24.2131 7.78688 24.4217 6.99304 24.8229 6.29297ZM33.8601 7.03125C33.866 7.04502 33.8716 7.05762 33.8779 7.07197L33.8825 7.08174C34.3882 8.19043 35.16 9.73799 36.0682 11.0856L33.921 14.8438H27.0154L24.8832 11.1124C25.2998 10.5315 25.6845 9.9284 26.0356 9.30576C26.4415 8.56698 26.8049 7.80561 27.124 7.02539C27.1967 7.0291 33.8601 7.03125 33.8601 7.03125ZM35.5838 7.03125H36.7182V9.18115C36.269 8.4127 35.8776 7.64365 35.5838 7.03125ZM27.3793 28.0332L26.9003 26.1968L28.8587 26.8496L27.3793 28.0332ZM32.0777 26.8496L34.036 26.1968L33.5575 28.0327L32.0777 26.8496ZM32.8119 37.8403V29.4381L33.5209 30.0053C33.6226 30.0866 33.7431 30.1413 33.8713 30.1642C33.9995 30.1872 34.1314 30.1777 34.255 30.1367C34.2962 30.1226 34.3362 30.105 34.3744 30.0842V37.7427L32.8119 37.8403ZM24.9994 23.5728V40.625H23.4369C23.4369 40.625 23.4424 25.6493 23.4433 25.6325C23.4714 25.1742 23.634 24.7344 23.9108 24.368C24.1876 24.0016 24.5663 23.725 24.9994 23.5728ZM26.5619 30.0844C26.6963 30.1564 26.8488 30.1873 27.0005 30.1733C27.1523 30.1592 27.2966 30.1008 27.4154 30.0054L28.1244 29.4381V37.8402L26.5619 37.7426V30.0844ZM29.6869 28.1881L30.4682 27.5631L31.2494 28.1881V37.9415L29.6869 37.9389V28.1881ZM34.3744 24.4367L30.8258 25.6198L30.4682 25.739L26.5619 24.4368V24.1224C26.8117 24.1859 27.0684 24.2182 27.3261 24.2188H33.6102C33.8679 24.2182 34.1246 24.1859 34.3744 24.1224V24.4367ZM36.7182 16.6856C36.7191 17.4263 36.5686 18.1594 36.276 18.8398L35.0463 21.709C34.9261 21.9902 34.7259 22.2299 34.4705 22.3983C34.2152 22.5668 33.916 22.6564 33.6102 22.6562H27.3261C27.0202 22.6564 26.7211 22.5668 26.4657 22.3984C26.2104 22.2299 26.0102 21.9902 25.89 21.709L24.6603 18.8397C24.3678 18.1593 24.2174 17.4263 24.2182 16.6856V13.0979L25.6587 15.6189C25.7956 15.8579 25.9932 16.0565 26.2314 16.1947C26.4695 16.3329 26.74 16.4059 27.0154 16.4062H33.921C34.1964 16.4059 34.4669 16.3329 34.7051 16.1947C34.9433 16.0565 35.1408 15.8579 35.2778 15.6189L36.7182 13.0979V16.6856ZM39.8432 12.5C39.8427 12.9143 39.6779 13.3114 39.385 13.6043C39.0921 13.8972 38.6949 14.062 38.2807 14.0625V10.9375C38.6949 10.938 39.0921 11.1028 39.385 11.3957C39.6779 11.6886 39.8427 12.0857 39.8432 12.5ZM35.5692 3.5584C35.8896 3.77148 36.1583 4.0537 36.3553 4.38431C36.5522 4.71492 36.6726 5.08549 36.7075 5.46875H34.7499L32.8749 3.125H34.1379C34.6474 3.12447 35.1456 3.27532 35.5692 3.5584ZM30.8852 3.13848L32.749 5.46875H30.0624L28.1874 3.125C28.1874 3.125 30.7473 3.13008 30.8852 3.13897V3.13848ZM26.1865 3.125L28.0615 5.46875H27.3432C26.6506 5.46788 25.9778 5.23734 25.4302 4.81323C24.8827 4.38912 24.4912 3.79539 24.3171 3.125H26.1865ZM22.6557 11.7188V14.0625C22.2413 14.0625 21.8439 13.8979 21.5508 13.6049C21.2578 13.3118 21.0932 12.9144 21.0932 12.5C21.0932 12.0856 21.2578 11.6882 21.5508 11.3951C21.8439 11.1021 22.2413 10.9375 22.6557 10.9375V11.7188ZM20.2666 4.95029C20.6228 6.61413 20.7897 8.31291 20.7642 10.0143C20.4278 10.2696 20.1467 10.5906 19.938 10.9578C19.7293 11.3249 19.5974 11.7307 19.5502 12.1504C19.503 12.5701 19.5416 12.995 19.6635 13.3994C19.7855 13.8037 19.9883 14.1791 20.2596 14.5027C20.1034 15.2399 19.9168 15.9578 19.6999 16.6393L17.6045 23.2592L15.6733 17.8336L20.2666 4.95029ZM8.91351 9.72656C8.9139 8.12254 9.08412 6.52306 9.42132 4.95488L16.8248 25.7283L16.7731 25.8958C16.3767 25.984 15.9914 26.1163 15.6244 26.2901V25H14.0619V26.5625H15.121C14.5173 26.9315 13.9909 27.414 13.5707 27.9833L12.7993 25.5419C12.788 25.4932 12.7721 25.4457 12.7517 25.4001L9.98656 16.6403C9.27779 14.4041 8.91591 12.0724 8.91351 9.72656ZM7.07533 46.8689C5.71312 46.7773 4.51566 46.0172 3.78851 44.781C3.42204 44.1597 3.20105 43.4634 3.1421 42.7445C3.08316 42.0256 3.1878 41.3027 3.44818 40.63L5.94818 34.0759C6.63441 32.281 8.29564 31.1513 10.0841 31.2544L10.217 31.2733C10.3955 31.2989 10.5774 31.2619 10.7318 31.1687C10.8861 31.0754 11.0035 30.9316 11.0639 30.7617L11.9887 28.1612L12.3798 29.3993C12.4331 29.5672 12.5416 29.7121 12.6877 29.8104C12.5626 30.2747 12.4993 30.7535 12.4994 31.2344V34.8055C12.4322 34.6059 12.3445 34.4138 12.2376 34.2323C12.0122 33.8365 11.6922 33.5026 11.3062 33.2606C10.9203 33.0186 10.4804 32.876 10.0258 32.8456C8.80863 32.7645 7.68529 33.5097 7.23285 34.6961L4.7306 41.255C4.56527 41.6825 4.499 42.142 4.53679 42.5989C4.57458 43.0557 4.71543 43.4981 4.94876 43.8927C5.17417 44.2885 5.49415 44.6224 5.88011 44.8644C6.26606 45.1064 6.70596 45.249 7.16048 45.2794C7.22025 45.2834 7.27975 45.2854 7.339 45.2854C8.48714 45.2854 9.52337 44.5574 9.95394 43.4289L12.4559 36.8699C12.4716 36.8287 12.4852 36.787 12.4994 36.7454V40.7467L11.2384 44.0492C10.5485 45.8535 8.8764 46.985 7.07533 46.8689ZM10.996 36.3123L8.49408 42.8713C8.28724 43.4136 7.79095 43.7556 7.26292 43.7196C7.0623 43.7053 6.86848 43.6409 6.69924 43.5322C6.52999 43.4236 6.39075 43.2741 6.29427 43.0977C6.1809 42.9051 6.11267 42.6893 6.0947 42.4665C6.07674 42.2437 6.10951 42.0198 6.19056 41.8115L8.69251 35.2525C8.88968 34.7356 9.34837 34.4018 9.84954 34.4018C9.87415 34.4018 9.89883 34.4026 9.92357 34.4042C10.1242 34.4185 10.318 34.4829 10.4873 34.5916C10.6566 34.7002 10.7958 34.8497 10.8923 35.0262C11.0058 35.2188 11.074 35.4346 11.092 35.6575C11.1099 35.8803 11.0771 36.1043 10.996 36.3126V36.3123ZM15.6244 46.875C15.2102 46.8745 14.8131 46.7097 14.5201 46.4168C14.2272 46.1239 14.0624 45.7267 14.0619 45.3125V43.75H17.132L22.5155 44.5191L26.598 45.4038L26.8372 45.4562L20.6596 46.7817C20.6411 46.7844 20.623 46.7877 20.6047 46.7915L20.2269 46.8748L15.6244 46.875ZM29.6869 46.875V46.4429L30.5332 46.2597L31.2494 46.4172V46.875H29.6869ZM35.9369 46.875V23.5742C36.2661 23.6907 36.5656 23.8781 36.8142 24.1232C37.2177 24.5265 37.4592 25.0637 37.4931 25.6331C37.494 25.6494 37.4994 46.875 37.4994 46.875H35.9369ZM46.8744 45.3125C46.874 45.7267 46.7092 46.1239 46.4163 46.4168C46.1233 46.7097 45.7262 46.8745 45.3119 46.875H40.708L39.0619 46.5184V40.0895L46.8744 40.5777V45.3125ZM46.8744 35.1562H42.9682C42.8469 35.1562 42.7273 35.1845 42.6188 35.2388L39.0619 37.0172V26.5281L43.6915 27.3929C44.5867 27.5617 45.3947 28.0381 45.9759 28.7395C46.5571 29.441 46.8749 30.3234 46.8744 31.2344V35.1562Z" fill="#131212"/>
<path d="M25.7812 11.3281C25.7812 11.5599 25.85 11.7865 25.9787 11.9792C26.1075 12.1719 26.2905 12.3221 26.5047 12.4108C26.7188 12.4995 26.9544 12.5227 27.1817 12.4775C27.4091 12.4323 27.6179 12.3207 27.7818 12.1568C27.9457 11.9929 28.0573 11.7841 28.1025 11.5567C28.1477 11.3294 28.1245 11.0938 28.0358 10.8797C27.9471 10.6655 27.7969 10.4825 27.6042 10.3537C27.4115 10.225 27.1849 10.1562 26.9531 10.1562C26.6424 10.1566 26.3446 10.2802 26.1249 10.4999C25.9052 10.7196 25.7816 11.0174 25.7812 11.3281Z" fill="#131212"/>
<path d="M33.9844 12.5C34.2161 12.5 34.4427 12.4313 34.6354 12.3025C34.8281 12.1737 34.9783 11.9907 35.067 11.7766C35.1557 11.5625 35.1789 11.3268 35.1337 11.0995C35.0885 10.8722 34.9769 10.6634 34.813 10.4995C34.6491 10.3356 34.4403 10.224 34.213 10.1788C33.9857 10.1336 33.75 10.1568 33.5359 10.2455C33.3218 10.3342 33.1388 10.4844 33.01 10.6771C32.8812 10.8698 32.8125 11.0964 32.8125 11.3281C32.8128 11.6388 32.9364 11.9367 33.1561 12.1564C33.3758 12.3761 33.6737 12.4997 33.9844 12.5Z" fill="#131212"/>
<path d="M28.166 13.7812L29.727 9.87676L31.177 10.4564L29.616 14.3609L28.166 13.7812Z" fill="#131212"/>
<path d="M29.5792 17.1885H28.125V18.751H29.5792C30.9366 18.751 32.2247 18.4356 33.2062 17.8633L32.4188 16.5137C31.6836 16.9425 30.6486 17.1885 29.5792 17.1885Z" fill="#131212"/>
</svg>
