<svg width="48" height="48" viewBox="0 0 48 48" fill="none" xmlns="http://www.w3.org/2000/svg">
<path d="M38.25 5.4375H9.75C7.67897 5.4375 6 7.11647 6 9.1875V35.8125C6 37.8835 7.67897 39.5625 9.75 39.5625H38.25C40.321 39.5625 42 37.8835 42 35.8125V9.1875C42 7.11638 40.321 5.4375 38.25 5.4375Z" fill="#D69F6D"/>
<path d="M30.75 0.9375L33.8438 5.43759L31.9631 14.6775L24 11.8125L16.0369 14.6775L14.1562 5.43759L17.25 0.9375H30.75Z" fill="white"/>
<path d="M30.75 0.9375L24 11.8125L17.25 0.9375H30.75Z" fill="#CC9059"/>
<path d="M30.5625 20.7188H42V24.8438H30.5625V20.7188Z" fill="white"/>
<path d="M38.25 4.50009H34.3369L31.5225 0.406406C31.3477 0.151969 31.0587 0 30.75 0H17.25C16.9413 0 16.6523 0.151969 16.4775 0.406406L13.6631 4.50009H9.75C7.16531 4.50009 5.0625 6.60291 5.0625 9.18759V18.2813C5.0625 18.799 5.48231 19.2188 6 19.2188C6.51769 19.2188 6.9375 18.799 6.9375 18.2813V9.18759C6.9375 7.63678 8.19919 6.37509 9.75 6.37509H13.3904L15.1183 14.8645C15.1726 15.1313 15.3401 15.3613 15.5773 15.4947C15.8146 15.6282 16.0982 15.652 16.3543 15.5597L23.0625 13.1462V38.6251H9.75C8.19919 38.6251 6.9375 37.3634 6.9375 35.8126V26.7188C6.9375 26.2012 6.51769 25.7813 6 25.7813C5.48231 25.7813 5.0625 26.2012 5.0625 26.7188V35.8126C5.0625 38.3973 7.16531 40.5001 9.75 40.5001H38.25C40.8347 40.5001 42.9375 38.3973 42.9375 35.8126V9.18759C42.9375 6.60291 40.8347 4.50009 38.25 4.50009ZM32.8457 5.64066L31.2606 13.4285L25.4075 11.3226L30.79 2.65059L32.8457 5.64066ZM24 10.0348L18.9352 1.875H29.0647L24 10.0348ZM15.1543 5.64066L17.21 2.65059L22.5925 11.3226L16.7394 13.4285L15.1543 5.64066ZM38.25 38.6251H24.9375V13.1462L31.6457 15.5597C31.7487 15.5968 31.8561 15.6151 31.9631 15.6151C32.1223 15.6151 32.2808 15.5745 32.4227 15.4947C32.6599 15.3613 32.8274 15.1313 32.8817 14.8645L34.6096 6.37509H38.25C39.8008 6.37509 41.0625 7.63678 41.0625 9.18759V19.7812H30.5625C30.0448 19.7812 29.625 20.2011 29.625 20.7188V24.8438C29.625 25.3614 30.0448 25.7812 30.5625 25.7812H41.0625V35.8126C41.0625 37.3634 39.8008 38.6251 38.25 38.6251ZM41.0625 23.9062H31.5V21.6562H41.0625V23.9062Z" fill="black"/>
<path d="M42.6001 44.4672L40.3501 42.5922C39.9526 42.261 39.3613 42.3144 39.0297 42.7123C38.6983 43.11 38.752 43.7012 39.1498 44.0327L39.4106 44.25H8.58938L8.85009 44.0328C9.24788 43.7013 9.30159 43.1101 8.97019 42.7124C8.6385 42.3145 8.04741 42.261 7.64981 42.5923L5.39981 44.4673C5.18606 44.6454 5.0625 44.9093 5.0625 45.1875C5.0625 45.4658 5.18606 45.7296 5.39991 45.9078L7.64991 47.7828C7.82512 47.9289 8.03794 48 8.24953 48C8.51803 48 8.78484 47.8852 8.97028 47.6626C9.30169 47.2649 9.24797 46.6737 8.85019 46.3422L8.58938 46.125H39.4106L39.1499 46.3422C38.7521 46.6737 38.6984 47.2649 39.0298 47.6626C39.2153 47.8852 39.4819 48 39.7506 48C39.9622 48 40.175 47.9288 40.3502 47.7828L42.6002 45.9078C42.8139 45.7297 42.9376 45.4658 42.9376 45.1875C42.9376 44.9093 42.8139 44.6454 42.6001 44.4672Z" fill="white"/>
<path d="M6 23.4375C6.24656 23.4375 6.48844 23.3372 6.66272 23.1627C6.83719 22.9884 6.9375 22.7466 6.9375 22.5C6.9375 22.2534 6.83719 22.0116 6.66272 21.8372C6.48844 21.6627 6.24656 21.5625 6 21.5625C5.75344 21.5625 5.51156 21.6627 5.33719 21.8372C5.16281 22.0117 5.0625 22.2534 5.0625 22.5C5.0625 22.7466 5.16272 22.9884 5.33719 23.1627C5.51156 23.3372 5.75344 23.4375 6 23.4375Z" fill="black"/>
</svg>
