<svg width="38" height="31" viewBox="0 0 38 31" fill="none" xmlns="http://www.w3.org/2000/svg">
<path fill-rule="evenodd" clip-rule="evenodd" d="M22.258 0.424157C23.3415 0.9897 24.0063 2.03405 23.9999 3.16194C23.9892 4.64092 22.8453 5.91764 21.242 6.23962V12.4295C22.8545 12.7426 24.0042 14.0282 23.9999 15.5136C23.9956 16.9987 22.8385 18.2789 21.2243 18.5849L21.2342 24.7771C22.9825 25.1176 24.1634 26.5915 23.9704 28.1927C23.777 29.794 22.2722 31.0054 20.4834 31C18.6946 30.9945 17.1991 29.7738 17.0181 28.1713C16.8372 26.5691 18.0291 25.1023 19.7803 24.7726L19.7728 18.5852C18.161 18.2738 17.0096 16.9913 17.0092 15.5072C16.9925 14.0138 18.1589 12.7211 19.786 12.4295V6.23962C18.1592 5.94772 16.994 4.65501 17.0117 3.16194C17.0053 2.03405 17.6697 0.9897 18.7536 0.424157C19.8371 -0.141386 21.1741 -0.141386 22.258 0.424157ZM20.4952 1.32576C19.369 1.32608 18.4561 2.14799 18.4561 3.16194C18.4575 4.17556 19.37 4.99683 20.4959 4.99779C21.6217 4.99747 22.5346 4.17524 22.5342 3.1613C22.5342 2.14767 21.6213 1.32576 20.4952 1.32576ZM22.5342 27.8525C22.5342 28.8665 21.6213 29.6887 20.4948 29.6887C19.3686 29.6884 18.4557 28.8665 18.4561 27.8522C18.4561 26.8382 19.3693 26.0163 20.4959 26.0167C21.621 26.0183 22.5328 26.8395 22.5342 27.8525ZM20.4948 17.3431C21.621 17.3431 22.5342 16.5212 22.5342 15.5072C22.5328 14.4939 21.621 13.6726 20.4959 13.6714C19.3693 13.671 18.4561 14.4926 18.4561 15.5069C18.4557 16.5208 19.3686 17.3431 20.4948 17.3431Z" fill="black"/>
<path fill-rule="evenodd" clip-rule="evenodd" d="M34.3043 0C34.6885 0 35 0.338841 35 0.756757V6.24324C35 6.66116 34.6885 7 34.3043 7H25.6957C25.3115 7 25 6.66116 25 6.24324V0.756757C25 0.338841 25.3115 0 25.6957 0H34.3043ZM33.6087 1.51351H26.3913V5.48649H33.6087V1.51351Z" fill="black"/>
<path fill-rule="evenodd" clip-rule="evenodd" d="M37.4 12C37.7313 12 38 12.3388 38 12.7568V18.2432C38 18.6612 37.7313 19 37.4 19H26.6C26.2687 19 26 18.6612 26 18.2432V12.7568C26 12.3388 26.2687 12 26.6 12H37.4ZM27.2 17.4865H36.8V13.5135H27.2V17.4865Z" fill="black"/>
<path fill-rule="evenodd" clip-rule="evenodd" d="M34.3043 24C34.6885 24 35 24.3388 35 24.7568V30.2432C35 30.6612 34.6885 31 34.3043 31H25.6957C25.3115 31 25 30.6612 25 30.2432V24.7568C25 24.3388 25.3115 24 25.6957 24H34.3043ZM26.3913 29.4865H33.6087V25.5135H26.3913V29.4865Z" fill="black"/>
<path fill-rule="evenodd" clip-rule="evenodd" d="M7.69384 8.0316L14.5575 10.2283C14.8266 10.317 15.0059 10.5695 14.9998 10.8507V20.1493C15.0063 20.4302 14.8273 20.6827 14.5585 20.7714L7.70318 22.9684C7.63847 22.9895 7.57086 23 7.50261 23C7.43533 23 7.36837 22.9895 7.3043 22.9684L0.441292 20.7717C0.172155 20.6827 -0.00651915 20.4302 0.000241481 20.1493V10.8507C-0.00748496 10.5701 0.170867 10.3173 0.439361 10.2283L7.29271 8.0316C7.42309 7.98947 7.56346 7.98947 7.69384 8.0316ZM12.2219 10.8507L7.49875 9.34028L2.77564 10.8507L7.49875 12.3608L12.2219 10.8507ZM1.31889 11.7482L6.7583 13.4977V21.4229L1.31889 19.6734V11.7482ZM8.07694 13.5498V21.4749L13.6812 19.6734V11.7482L8.07694 13.5498Z" fill="black"/>
</svg>
