<svg width="36" height="36" viewBox="0 0 36 36" fill="none" xmlns="http://www.w3.org/2000/svg">
<g clip-path="url(#clip0)">
<path d="M35.2181 15.6681C34.6753 15.8136 34.0824 15.5045 33.9264 14.9223L33.902 14.8312L31.4616 15.4851C31.6136 16.3007 31.6939 17.1411 31.6939 18.0001C31.6939 18.8591 31.6135 19.6996 31.4615 20.5152L33.9019 21.1691L33.9263 21.078C34.0823 20.4957 34.6753 20.1867 35.218 20.3323C35.7807 20.483 36.1146 21.0613 35.9638 21.624L35.369 23.8437C35.2182 24.4063 34.6402 24.7403 34.0773 24.5894C33.5146 24.4386 33.1808 23.8603 33.3316 23.2977L33.3559 23.2066L30.9148 22.5524C30.346 24.1613 29.485 25.6332 28.3953 26.9037L30.1869 28.6953L30.2536 28.6286C30.6654 28.2168 31.3333 28.2166 31.7452 28.6286C32.1571 29.0405 32.1571 29.7082 31.7452 30.1201L30.1202 31.745C29.7084 32.1569 29.0406 32.1569 28.6287 31.745C28.2168 31.3331 28.2168 30.6654 28.6287 30.2535L28.6954 30.1868L26.9038 28.3952C25.6332 29.485 24.1613 30.3461 22.5523 30.9149L23.2063 33.3558L23.2975 33.3314C23.882 33.1748 24.4445 33.5373 24.5892 34.0772C24.7399 34.6398 24.4061 35.2181 23.8434 35.3689L21.6237 35.9636C21.061 36.1145 20.4827 35.7805 20.332 35.2179C20.1813 34.6553 20.5151 34.0769 21.0778 33.9262L21.1689 33.9018L20.515 31.4614C19.6994 31.6134 18.859 31.6937 18.0001 31.6937C17.1411 31.6937 16.3007 31.6134 15.4851 31.4614L14.8312 33.9018L14.9223 33.9262C15.485 34.0769 15.8188 34.6553 15.6681 35.2179C15.5174 35.7806 14.9391 36.1146 14.3764 35.9638L12.1567 35.369C11.5941 35.2183 11.2603 34.6399 11.411 34.0773C11.5556 33.5374 12.1181 33.1748 12.7027 33.3316L12.7938 33.356L13.4479 30.915C11.8389 30.3462 10.367 29.4852 9.09639 28.3953L7.30475 30.1869L7.37148 30.2536C7.78337 30.6655 7.78337 31.3333 7.37148 31.7452C6.95966 32.1571 6.29183 32.1571 5.87994 31.7452L4.25502 30.1203C3.84313 29.7084 3.84313 29.0406 4.25502 28.6287C4.66691 28.2168 5.33481 28.2169 5.74656 28.6287L5.81328 28.6954L7.60492 26.9038C6.51514 25.6333 5.65417 24.1614 5.08534 22.5526L2.64423 23.2067L2.66863 23.2978C2.81938 23.8605 2.48553 24.4388 1.92289 24.5895C1.35997 24.7404 0.781934 24.4064 0.631184 23.8438L0.0362696 21.6239C-0.11448 21.0613 0.219363 20.4829 0.782004 20.3322C1.32482 20.1866 1.91769 20.4957 2.07371 21.0779L2.09811 21.169L4.53852 20.5151C4.3865 19.6995 4.30614 18.859 4.30614 18C4.30614 17.1411 4.38643 16.3006 4.53845 15.4851L2.09804 14.8312L2.07364 14.9223C1.91762 15.5045 1.32468 15.8136 0.781934 15.668C0.219293 15.5173 -0.114551 14.9389 0.0361993 14.3763L0.630973 12.1566C0.781793 11.594 1.35976 11.26 1.92268 11.4109C2.48532 11.5616 2.81917 12.1399 2.66842 12.7026L2.64402 12.7937L5.08499 13.4478C5.65382 11.8388 6.51479 10.3669 7.60463 9.09625L5.813 7.30462L5.74628 7.37135C5.33453 7.78316 4.66663 7.78331 4.25474 7.37135C3.84285 6.95946 3.84285 6.2917 4.25474 5.87981L5.87966 4.25488C6.29148 3.84299 6.95931 3.84299 7.3712 4.25488C7.78309 4.66677 7.78309 5.33453 7.3712 5.74642L7.30447 5.81315L9.0961 7.60471C10.3667 6.51487 11.8386 5.65382 13.4476 5.08506L12.7936 2.6441L12.7024 2.6685C12.1179 2.82515 11.5554 2.46262 11.4107 1.92276C11.26 1.36012 11.5938 0.781799 12.1565 0.63105L14.3762 0.036274C14.9389 -0.114548 15.5172 0.21944 15.6679 0.782009C15.8186 1.34465 15.4848 1.92297 14.9221 2.07372L14.831 2.09812L15.4849 4.53852C16.3005 4.38651 17.1409 4.30621 17.9998 4.30621C18.8588 4.30621 19.6992 4.38651 20.5148 4.53852L21.1687 2.09812L21.0776 2.07372C20.5149 1.92297 20.1811 1.34465 20.3318 0.782009C20.4826 0.21944 21.0608 -0.114548 21.6235 0.036274L23.8432 0.63105C24.4059 0.781799 24.7397 1.36012 24.589 1.92276C24.4443 2.46269 23.8818 2.82522 23.2973 2.6685L23.2061 2.6441L22.5521 5.08506C24.161 5.65389 25.633 6.51487 26.9036 7.60471L28.6952 5.81315L28.6285 5.74642C28.2166 5.33453 28.2166 4.66677 28.6285 4.25488C29.0403 3.84299 29.7081 3.84299 30.12 4.25488L31.7449 5.87981C32.1568 6.2917 32.1568 6.95946 31.7449 7.37135C31.3331 7.78331 30.6652 7.78316 30.2534 7.37135L30.1867 7.30462L28.3951 9.09625C29.4849 10.3669 30.3459 11.8388 30.9147 13.4478L33.3557 12.7937L33.3313 12.7026C33.1805 12.1399 33.5144 11.5616 34.077 11.4109C34.6399 11.26 35.218 11.594 35.3687 12.1566L35.9635 14.3763C36.1146 14.939 35.7807 15.5173 35.2181 15.6681ZM18.0001 6.41552C11.6124 6.41552 6.41558 11.6123 6.41558 18C6.41558 24.3877 11.6124 29.5845 18.0001 29.5845C24.3877 29.5845 29.5845 24.3877 29.5845 18C29.5845 11.6123 24.3877 6.41552 18.0001 6.41552Z" fill="#333333"/>
<path d="M18 24.8535C18.5825 24.8535 19.0547 25.3257 19.0547 25.9082C19.0547 26.4907 18.5825 26.9629 18 26.9629C17.4175 26.9629 16.9453 26.4907 16.9453 25.9082C16.9453 25.3257 17.4175 24.8535 18 24.8535Z" fill="#333333"/>
<path d="M18 9.03711C18.5825 9.03711 19.0547 9.50931 19.0547 10.0918C19.0547 10.6743 18.5825 11.1465 18 11.1465C17.4175 11.1465 16.9453 10.6743 16.9453 10.0918C16.9453 9.50931 17.4175 9.03711 18 9.03711Z" fill="#333333"/>
<path d="M15.7422 14.6855C16.3247 14.6855 16.7969 15.1577 16.7969 15.7402C16.7969 16.3227 16.3247 16.7949 15.7422 16.7949C15.1597 16.7949 14.6875 16.3227 14.6875 15.7402C14.6875 15.1577 15.1597 14.6855 15.7422 14.6855Z" fill="#333333"/>
<path d="M20.2598 14.6855C20.8423 14.6855 21.3145 15.1577 21.3145 15.7402C21.3145 16.3227 20.8423 16.7949 20.2598 16.7949C19.6773 16.7949 19.2051 16.3227 19.2051 15.7402C19.2051 15.1577 19.6773 14.6855 20.2598 14.6855Z" fill="#333333"/>
<path d="M20.2598 19.2051C20.8423 19.2051 21.3145 19.6773 21.3145 20.2598C21.3145 20.8423 20.8423 21.3145 20.2598 21.3145C19.6773 21.3145 19.2051 20.8423 19.2051 20.2598C19.2051 19.6773 19.6773 19.2051 20.2598 19.2051Z" fill="#333333"/>
<path d="M15.7422 19.2051C16.3247 19.2051 16.7969 19.6773 16.7969 20.2598C16.7969 20.8423 16.3247 21.3145 15.7422 21.3145C15.1597 21.3145 14.6875 20.8423 14.6875 20.2598C14.6875 19.6773 15.1597 19.2051 15.7422 19.2051Z" fill="#333333"/>
<path d="M25.9082 16.9453C26.4907 16.9453 26.9629 17.4175 26.9629 18C26.9629 18.5825 26.4907 19.0547 25.9082 19.0547C25.3257 19.0547 24.8535 18.5825 24.8535 18C24.8535 17.4175 25.3257 16.9453 25.9082 16.9453Z" fill="#333333"/>
<path d="M10.0938 16.9453C10.6762 16.9453 11.1484 17.4175 11.1484 18C11.1484 18.5825 10.6762 19.0547 10.0938 19.0547C9.51126 19.0547 9.03906 18.5825 9.03906 18C9.03906 17.4175 9.51126 16.9453 10.0938 16.9453Z" fill="#333333"/>
<path d="M23.5918 22.5371C24.1743 22.5371 24.6465 23.0093 24.6465 23.5918C24.6465 24.1743 24.1743 24.6465 23.5918 24.6465C23.0093 24.6465 22.5371 24.1743 22.5371 23.5918C22.5371 23.0093 23.0093 22.5371 23.5918 22.5371Z" fill="#333333"/>
<path d="M12.4082 11.3535C12.9907 11.3535 13.4629 11.8257 13.4629 12.4082C13.4629 12.9907 12.9907 13.4629 12.4082 13.4629C11.8257 13.4629 11.3535 12.9907 11.3535 12.4082C11.3535 11.8257 11.8257 11.3535 12.4082 11.3535Z" fill="#333333"/>
<path d="M23.5918 11.3535C24.1743 11.3535 24.6465 11.8257 24.6465 12.4082C24.6465 12.9907 24.1743 13.4629 23.5918 13.4629C23.0093 13.4629 22.5371 12.9907 22.5371 12.4082C22.5371 11.8257 23.0093 11.3535 23.5918 11.3535Z" fill="#333333"/>
<path d="M12.4082 22.5371C12.9907 22.5371 13.4629 23.0093 13.4629 23.5918C13.4629 24.1743 12.9907 24.6465 12.4082 24.6465C11.8257 24.6465 11.3535 24.1743 11.3535 23.5918C11.3535 23.0093 11.8257 22.5371 12.4082 22.5371Z" fill="#333333"/>
</g>
<defs>
<clipPath id="clip0">
<rect width="36" height="36" fill="white" transform="matrix(1 0 0 -1 0 36)"/>
</clipPath>
</defs>
</svg>
